<?xml version="1.0" encoding="iso-8859-1"?>
<!-- Generator: Adobe Illustrator 30.6.0, SVG Export Plug-In . SVG Version: 9.03 Build 0)  -->
<svg version="1.1" id="Layer_1" xmlns="http://www.w3.org/2000/svg" xmlns:xlink="http://www.w3.org/1999/xlink" x="0px" y="0px"
	 width="720" height="720" viewBox="0 0 720 720" enable-background="new 0 0 720 720" xml:space="preserve">
<g id="Generative_Object">
	<g>
		<circle fill="#010101" cx="360" cy="360" r="353.81"/>
		<path fill="#C3C5C7" d="M699.15,272.44c5.1,18.43,8.08,37.35,9.93,56.64c2.16,22.44,2.02,44.72-0.52,67.13
			c-2.73,24.04-7.53,47.72-15,70.72c-11.51,35.46-28.04,68.57-50.1,98.66c-39.21,53.48-92.48,95.01-154.07,119.78
			c-21.01,8.45-42.84,14.7-65.11,18.93c-37.35,7.1-75.38,7.96-112.99,2.51c-18.08-2.62-35.78-6.48-53.23-11.85
			c-39.84-12.27-77.41-31.47-110.38-56.95c-11.83-9.14-23.05-18.76-33.64-29.32c-27.76-27.7-50.5-58.23-67.79-93.22l0.06-0.64
			C16.99,454.21,6.48,385.88,15.22,319.18c8.04-61.43,32.12-117.92,67.76-165.62C155.07,57.57,273.34,4.86,392.86,16.06
			c26.58,2.49,50.46,8.27,73.86,14.86c111.76,35.48,202.88,128.59,232.2,241.62L699.15,272.44z"/>
		<g>
			<path fill="#E5E8E8" d="M699.15,272.44c0.02,0.27,0.13,0.67-0.19,1.12l-2.49-8.68c-12.39-40.87-32.11-79.04-58.15-112.98
				c-16.65-21.7-35.1-40-56.18-57.41c-16.34-13.5-33.84-25.22-52.4-35.45c-11.1-6.12-22.17-11.59-33.87-16.43
				c-9.78-4.05-19.22-7.91-29.35-11.01l-32.08-8.4c-15.65-3.52-31.17-5.59-47.17-6.93c-17.97-1.51-35.73-1.28-53.75,0.18
				c-54,4.4-104.34,20.44-150.76,48.35c-39.78,23.92-74.28,55.19-101.75,92.57c-5.39,7.34-10.55,14.42-15.06,22.25L53.99,200.4
				c-11.67,21.62-20.69,44.36-27.6,67.98c-5.26,17.97-8.66,36.19-10.97,54.72c-3.01,24.21-3.45,48.15-1.16,72.45
				c2.64,27.95,8.23,55.29,17.34,81.81c4.4,12.81,9.23,25.23,15.02,37.35c0.14,0.29-0.14,0.65-0.38,0.73
				c-18.39-37.32-29.95-76.13-34.75-117.8c-2.44-21.24-2.95-42.33-1.11-63.61c1.01-11.71,2.36-22.91,4.38-34.43
				c4.65-26.54,12.3-52.17,22.9-76.93c17.91-41.81,44.94-81.23,77.59-112.93c26.89-26.11,58.36-48.29,92.01-64.77
				c38.09-18.64,78.01-29.72,120.32-33.66c44.5-4.15,89.24,0.12,132.08,13.02c50.11,15.1,95.97,41.11,134.91,76.05
				c36.68,32.91,65.96,73.25,85.9,118.31c6.05,13.67,11.44,27.57,15.4,41.88L699.15,272.44z"/>
			<path fill="#9C9D9F" d="M526.77,349.86c1.26,9.36,1.17,18.86-0.48,28.2c-3.86-1.23-7.63-1.66-11.73-1.97l-38.15-2.85l-34.57-2.6
				c-3.34-0.25-6.42-0.53-9.5-0.04l-0.66-0.46c0.64-6.17,0.61-12.37-0.08-18.59l0.68-0.46c1.07-0.5,2.34-0.57,3.81-0.19
				c28.52-0.11,57.77-0.54,86.3-1.08C524.02,349.4,525.49,349.42,526.77,349.86z"/>
			<path fill="#9C9D9F" d="M459.54,227.93c-0.17,0.98-0.79,1.83-1.86,2.56c-4.35,5.66-8.54,11.43-12.55,17.32l-0.81-0.07
				c0.18,0.22,0.45,0.55,0.34,0.74c-1.6,2.65-4.09,6.21-6.01,8.63c-0.49,1.1-1.11,1.58-1.87,1.45l0.03,1.18l-27.83,40.06l-1.71,3.75
				l-0.84,0.15c-4.06-2.77-8.31-5.32-12.75-7.65l-3.81-1.36l-0.78-0.98l4.29-5.75l37.97-66.3c1.91-3.33,3.02-6.67,4.03-10.23
				c-0.11,1.07,0.44,1.18,1.22,1.55c5.91,2.82,11.42,6.14,16.7,9.98L459.54,227.93z"/>
			<path fill="#9B9C9E" d="M333.68,290.77l-1,1.21c-5.47,2.38-10.88,5.41-15.05,9.49l-0.98-2.68l-24.81-39.8l-14.33-23.08
				c-0.24,0.12-0.59,0.27-0.76,0.12c-0.57-0.5-4.13-6.04-4.63-7l0.3-0.81c-1.25,0.21-3.62-2.28-3.17-3.47
				c0.36-0.87,1.09-1.43,1.92-2.02c6.9-4.95,14.2-9.17,21.89-12.85c0.65-0.31,1.25-0.27,1.22-0.99c0.73,3.29,1.52,6.31,3.09,9.48
				l33.35,67.41L333.68,290.77z"/>
			<path fill="#9C9E9F" d="M289.38,348.93l0.52,1.45c-0.69,5.54-0.63,11.19,0.77,16.61l-0.31,1.49c-2.72-0.58-5.32-0.66-8.2-0.48
				l-39.83,2.42l-37.36,2.4l-5.93,0.93c0.16-1.15-0.31-2.28-0.45-3.6c-0.86-8.13-0.42-16.2,0.49-24.21
				c3.38,0.73,6.5,0.76,10.05,0.87l67.38,2.08L289.38,348.93z"/>
			<path fill="#E1E3E5" d="M404.22,416.83c1,3.2,2.49,5.92,4.32,8.86l41.8,67.33c-0.67,0.97-1.37,1.64-2.27,2.31
				c-6.01,4.46-12.46,8.01-19.33,11.06c-0.26,0.09-0.67,0.19-0.77,0.02c-1.07-1.78-2.35-4.64-3.18-6.58
				c-0.78-1.1-1.01-2.12-0.69-3.05l-0.74,0.1c0,0-7.41-14.44-22.22-43.33l0.43-0.7l-0.77,0.03c-3.95-8.35-8.24-16.49-12.85-24.42
				l0.35-0.78l-0.44-0.93c5.11-3.64,10.36-7.12,15.74-10.42L404.22,416.83z"/>
			<path fill="#E2E4E6" d="M334.4,424.8l-0.38,1.46l-2.84,3.62c-3.66,6.44-7.06,12.97-10.2,19.61l-0.82,0.06l0.52,0.53
				c-4.61,9.17-9.23,18.33-13.84,27.5l-0.82,0.07l0.48,0.6l-12.83,25.68l-0.85,0.14c-0.7,0.06-1.3-0.15-1.98-0.51
				c-6.21-3.3-12.19-6.78-17.95-10.81c-0.67-0.47-1.21-0.93-1.4-1.62l41.26-68.15c1.77-2.92,3.16-5.62,4.16-8.73l0.75-0.28
				c4.68,4.15,10.35,8.19,16.36,10.09L334.4,424.8z"/>
			<g>
				<path fill="#010101" d="M640.92,440.18c-4.93-0.03-9.58-2.47-13.05-5.81L565,374.02c-5.02-4.82-5.57-12.59-0.2-17.36
					l26.18-23.26l37.47-33.48c4.98-4.45,10.91-7,17.63-6.95l33,0.2c5.46,0.03,9.94,3.54,10.95,8.89
					c6.01,31.87,7.09,64.23,3.31,96.48l-5.72,34.04c-0.71,4.23-4.78,7.88-9.24,7.86L640.92,440.18z"/>
				<g>
					<path fill="#202020" d="M679.74,436.34l-0.83-0.1l-26.84-15.67l-0.02-0.82c7.5-34.57,8.15-70.24,2.24-105.54l15.6-7.32
						l15.27-7.18c0.89,1.07,1.19,2.19,1.48,3.69c7.37,38.93,7.2,78.87-0.43,117.76l-2.3,10.76
						C683.44,434.11,681.74,435.69,679.74,436.34z"/>
					<path fill="#FDFEFE" d="M631.07,402.43l-3,14.75l-40.76-42.21c-4.89-6.38-5.53-15.25,0.45-21l42.6-40.93
						c2.72,15.47,4.12,30.6,4.23,46.26C634.51,373.86,633.36,387.92,631.07,402.43z"/>
					<path fill="#818384" d="M644.3,422.82c-4.53,1.42-9.21,0.31-12.92-2.41l2.57-13.13c5.82-32.05,5.71-64.65-0.3-96.7
						c2.77-1.7,5.36-2.8,8.64-2.87c2.91-0.06,7.23,1.54,7.89,4.95c4.74,24.69,5.63,49.71,3.21,74.74l-4.57,30.53
						C648.46,420.38,646.79,422.03,644.3,422.82z"/>
					<path fill="#4C4C4C" d="M580.07,361.84c-1,7.21,1.96,13.03,6.81,18.03l40.1,41.35c4.76,4.9,11.91,7.19,18.48,4.97
						c3.05-0.94,5.91-3.28,6.6-6.44l26.65,15.53c0.53,0.31,0.86,0.59,1.03,1.07c-1.26,0.41-2.39,0.56-3.81,0.56l-32.99-0.19
						c-4.4-0.03-8.32-1.2-11.45-4.12l-8.75-8.18l-39.94-38.36l-15.72-15.22c-2.92-2.83-3.27-7.3-0.78-10.25l1.26-0.59
						c4.05,0.37,8.1,0.74,12.16,1.11L580.07,361.84z"/>
					<path fill="#202020" d="M623.57,314.85c-0.79,0.04-1.3-0.6-1.53-1.89c-0.96-0.41-1.74-0.94-0.8-1.86l12.8-10.92
						c3.33-2.41,7.5-3.53,11.71-3.52l30.87,0.07c1.8,0,3.5-0.04,5.12,0.66l-28.02,13.56c-0.79-1.61-1.72-2.91-3.13-3.98
						c-7.59-5.77-16.94-2.01-23.56,4.48L623.57,314.85z"/>
					<path fill="#1F201F" d="M623.57,314.85l-16.54,15.63l-20.36,19.34c-3.51,3.33-5.94,7.3-6.6,12.02l-13.77-1.26l2.18-2.59
						l16.82-14.8l21.18-18.88l14.76-13.23c-0.1,0.82,0.73,0.95,1.33,1.43L623.57,314.85z"/>
				</g>
			</g>
			<g>
				<path fill="#010101" d="M136.44,607.09c1.37-1.26,2.27-0.1,3.72,0.26c0.71,0.08,1.27,0.57,1.68,1.49
					c31.09,27.65,70.13,51.41,111.21,64.93c1.72,0.65,3.66,0.96,5.43,0.44l0.74,0.48c0.46-0.89,1.19-1.67,2.2-2.34l1.59-2.1
					l18.09-31.48l1.04-2.49l0.82-0.15l-0.41-0.88c0.73-2.21,0.55-4.57,0.05-6.82l-20.09-88.52c-1.25-3.52-4.48-4.86-8.01-4.18
					c-29.29,8.83-58.42,18.16-87.37,28.01c-2.05,1.02-3.84,2.5-5.17,4.38l-15.25,24.59l-0.82-0.01c-0.68,0.13-1.09-0.13-1.58-0.54
					l-1.44-1.35l15.01-24.25c2.48-4,6.14-6.69,10.59-8.11l42.52-13.66l41.81-13.05c6.09-1.9,12.79,1.77,14.2,8.03l19.9,88.28
					c1.05,4.65,0.24,9.31-2.11,13.37l-18.12,31.44c-2.43,4.21-7.59,7.31-12.69,5.65c-25.99-8.46-50.61-20.38-73.72-35.14
					c-14.29-9.13-27.69-19.44-40.44-30.47C137.93,611.26,137.02,609.29,136.44,607.09z"/>
				<path fill="#1E1E1E" d="M261.62,639.46c-0.64,11.41-1.19,22.85-1.65,34.32l-0.74,0.91c-2.26,0.89-4.33,0.45-6.67-0.35
					c-33.35-11.33-64.5-27.96-92.45-49.45l-17.42-14.23c-1.14-0.93-1.94-1.94-2.52-3.31c-0.27-0.64-0.63-2.13-0.14-2.81l30.62-18.04
					l3.92,3.24C199.91,610.7,230.62,628.34,261.62,639.46z"/>
				<g>
					<path fill="#010101" d="M275.32,628.54l0.44,1.01c-1.38,4.79-5.43,9.88-10.51,10.83c-1.18,0.22-3.43,0.51-3.63-0.92
						c-0.57-0.01-1.13-0.04-1.69-0.11c-0.55-0.08-1.1-0.16-1.61-0.34c-32.06-11.52-61.89-30.32-87.89-51.57L140.61,605
						c0.09,1.03-0.06,1.81-0.45,2.35l-0.27,0.41c-1.11-0.26-2.26-0.48-3.45-0.67c-0.7-2.64-0.31-5.38,1.17-7.78l5.26-8.51l0.68-0.33
						c0.86,0.71,1.64,1.45,2.34,2.22l0.39,0.71l-2.54,4.36l23.17-13.67c-5.84-9.61,3.18-18.92,12.35-21.31
						c19.25-5.8,38.61-11.45,58.07-16.95c11.33-1.74,19.43,3.52,23.52,14.13l15.2,60.46c0.19,0.95,0.35,1.9,0.42,2.87
						c0.07,1.1,0.15,3.68-0.28,4.56C276.04,628.2,275.66,628.38,275.32,628.54z"/>
					<path fill="#FDFEFE" d="M228.74,597.85c-16.27-9.08-31.17-19.59-45.25-31.81l20.47-6.17l34.63-10.13
						c7.54-0.81,15.83,3.4,17.82,11.13l14.39,56.01C255.92,611.77,242.35,605.45,228.74,597.85z"/>
					<path fill="#7E7F80" d="M268.69,633.6c-1.25,1.23-3.53,3.32-5.43,2.66c-18.18-6.39-35.32-14.85-51.84-24.77
						c-14.33-8.61-27.7-18.36-40.21-29.32c-1.26-1.1-1.94-2.53-1.78-4.16c0.54-5.56,4.72-9.01,10-10.64
						c7.16,6.65,14.58,12.23,22.45,17.84c14.03,10,28.82,18.5,44.45,25.78l25.57,10.38C272.76,625.7,272.04,630.3,268.69,633.6z"/>
				</g>
				<path fill="#1E1E1E" d="M282.97,636.13c-0.22,0.17-0.58,0.39-0.73,0.26c-2.13-1.9-5.03-4.93-6.93-7.09l0.01-0.76
					c0.88-3.31,0.52-6.28-0.32-9.6l-8.62-34.19l-5.39-21.71c-2.23-10.6-12.13-19.21-23.49-16.52l-36.69,10.54l-21.65,6.49
					l-4.97,2.08c-6.85,3.4-11.47,12.65-6.11,18.59l-26.51,15.65l4.33-7.17l14.81-23.96c2.31-3.74,5.34-5.63,9.39-6.95l30.45-9.92
					l21.06-6.71l32.7-10.1c3.6-1.11,8.12,1.28,8.94,4.9l7.63,33.89l12.33,54.08C283.88,630.81,284.07,633.48,282.97,636.13z"/>
				<path fill="#4F4E4E" d="M282.97,636.13l-1.24,2.96l-17.78,30.97c-1.19,2.07-2.61,3.8-4.72,4.63l1.56-34.79
					c0.02-0.46,0.5-0.51,0.83-0.44c2.2,0.79,4.31,0.25,6.32-0.85c3.88-2.11,6.26-5.88,7.37-10.07c0.25,0.09,0.52,0.22,0.8,0.51
					L282.97,636.13z"/>
			</g>
			<g>
				<path fill="#010101" d="M576.62,593.08c-0.35-0.05-0.6-0.09-0.76,0c0.3,1.21-0.17,2.07-1.04,2.54c-0.39-0.46-0.7-0.63-1.14-0.59
					l-0.73,0.15L558.06,570c-2.14-3-5.45-4.7-8.89-5.79l-82.75-26.73c-4.22-0.91-6.94,1.16-8.31,5.1l-20.36,88.75l-0.24,2.17
					c0.3,1.15,0.28,2.18-0.05,3.07l0.8,0.08l2.05,4.73l16.2,28.99c1.02,1.19,1.63,2.38,1.83,3.58l0.87-0.15
					c1.75,1.48,4.21,1.76,6.33,0.97c28.4-10,57.39-24.07,82.69-41.81c9.6-7.33,19.12-14.73,28.58-22.2
					c0.45-0.88,1.02-1.26,1.69-1.13l1.51-1.14c0.68-0.53,1.69,0.32,2.19,0.93c-0.51,1.93-1.35,3.56-2.93,4.83l-15.77,12.71
					c-10.87,8.76-22.39,16.11-34.43,23.22c-14.63,8.64-29.69,16.02-45.45,22.34l-17.71,6.55c-5.39,1.49-10.45-1.62-13.09-6.33
					l-17.7-31.71c-2.13-3.81-2.31-7.9-1.37-12.02l14.14-61.79l5.89-25.36c1.57-6.77,8.28-10.27,14.77-8.18l32.71,10.53l51.24,16.58
					c4.43,1.43,8.17,4.93,10.45,8.86L576.62,593.08z"/>
				<path fill="#1E1F1E" d="M578.51,609.61c-0.61,0.93-1.17,1.76-2.11,2.48l-27.76,21.42c-22.14,15.36-45.94,27.79-71.01,37.52
					l-11.86,4.38c-2.55,0.94-5.52,0.47-7.42-1.49c-0.97-10.9-1.75-21.91-2.31-33.05l0.68-0.47c31.9-11.92,64.16-29.56,90.41-51.88
					l20.18,12.28l11.68,6.95C578.87,608.5,578.82,609.14,578.51,609.61z"/>
				<g>
					<path fill="#010101" d="M573.68,595.03c0.32-0.75,0.63-0.69,1.27-0.39c0.32-2.08,0.88-2.6,1.67-1.56l4.39,7.42
						c1.63,2.76,2.03,5.82,1.21,8.91c-0.43,0.29-1,0.16-1.72-0.4c-0.72,0.8-1.39,1-1.98,0.61c-0.33-0.41-0.48-0.94-0.43-1.57
						l-30.97-18.69c0.09-0.05,0.17-0.25,0.16-0.24c-9.18,8.45-20.19,15.97-30.77,22.63c-17.61,11.09-36.88,20.76-56.35,28.12
						c-0.53,0.2-1.1,0.3-1.68,0.39c-0.58,0.09-1.17,0.14-1.76,0.16c-0.05,1.32-2.06,1.15-3.13,1.01c-2.8-0.36-5.42-2.22-7.27-4.28
						c-1.41-1.57-3.86-4.71-2.97-6.74c-0.35-0.14-0.7-0.34-0.89-0.69c-0.72-1.32-0.23-5.17,0.04-6.75
						c5.17-20.9,10.33-41.64,16.14-62.27c3.9-8.87,12.28-13.85,21.96-12.85c19.88,5.47,39.79,11.22,59.72,17.25
						c8.71,2.41,17.4,12.6,10.56,21.03l25.53,15.31l-3.08-5.63L573.68,595.03z"/>
					<path fill="#FEFEFE" d="M479.1,604.15l-12.58,5.94l-18.2,7.29l5.34-21.24l7.76-30.51c2.23-8.79,10.36-15.21,19.58-13.35
						l20.21,5.64l32.99,9.89l-17.27,13.61C504.93,590.06,492.57,597.64,479.1,604.15z"/>
					<path fill="#7D7E80" d="M456.99,636.46c-2.11,0.79-3.51,0.94-5.26-0.24c-4.84-3.25-6.56-9.24-4.35-14.72l15.55-5.86
						c8.91-3.36,17.15-7.49,25.56-12.09c17.91-9.62,34.6-21.04,50-34.41c4.43,1.05,8.21,3.89,9.92,7.99
						c1.13,2.7,0.49,5.13-1.73,7.04c-12.4,10.7-25.75,20.17-39.94,28.52C490.79,622.05,474.39,629.96,456.99,636.46z"/>
				</g>
				<path fill="#1E1F1E" d="M573.68,595.03l4.67,8.41l-28.66-17.18c3.4-3.17,3.73-7.68,1.6-11.65c-2.34-4.35-6.37-7.35-11.21-8.83
					l-50.71-14.91l-9.29-2.41c-8.71-0.95-17.87,4.61-20.8,12.47l-5.08,18.54l-3.7,14.25l-7.24,28.97c-0.64,2.56-0.61,5.25,0.06,7.72
					l-0.08,1.11c-0.25,0.53-4.91,5.18-5.29,5.2c-0.16,0.01-0.33-0.06-0.5-0.16c-0.71-1.64-0.85-3.44-0.4-5.38l8.24-35.99
					l12.07-52.54c0.93-4.04,5.03-7.19,9.25-5.83l55.94,18.02l26.83,8.72c4.01,1.3,7.64,3.21,9.92,7.09L573.68,595.03z"/>
				<path fill="#4D4C4C" d="M456.71,640.42l2.02,32.12c0.04,0.67,0.11,1.13-0.38,1.39c-0.96-0.99-1.74-1.98-2.44-3.23l-16.22-29.03
					l-2.22-5.12l5.87-6.15C445.02,636.64,451.59,642.33,456.71,640.42z"/>
			</g>
			<g>
				<path fill="#1A191A" d="M293.88,421.03c-7.92,2-15.84,4.1-24.2,4.85c-0.3,0.03-0.56,0.1-0.68,0.19
					c-0.24,0.18-0.27,0.53-0.21,0.82c-0.69,0.16-1.15-0.46-1.37-1.86l-5.19-8.64c0,0-0.12-0.66-0.36-1.98
					c-0.26,0.09-0.66,0.21-0.77,0.04c-0.38-0.56-3.15-5.84-3.17-6.19c-0.02-0.29,0.2-0.55,0.4-0.77c-2.29-3.59-5.08-7.63-9.63-8.37
					l-36.47-1.35c-9.82-0.08-18.77,4.89-26.89,9.94l-21.38,14.02l-0.74-0.35l-0.37,1.11c-8.03,5.55-16.07,11.09-24.1,16.63
					l-0.75-0.34c-0.56,1.48-1.3,1.72-2.79,1.96c0.74,0.78-1.41,2.28-2.18,1.56c0.04,0.55,0.06,0.82,0.06,0.82
					c-8.15,5.87-16.3,11.74-24.46,17.62l-1.18-0.02l0.11,0.81c-9.28,6.48-19.66,17.67-12.97,29.48l-0.46,0.71l-0.11,0.74
					l-39.69,7.34c0.03,0.55-0.15,0.76-0.75,0.9c-0.89-3.2,0.64-6.08,3.01-8.43l24.99-24.89c4.95-4.93,9.72-9.61,15.1-13.8
					l18.15-14.13l15.18-11.95l23.18-18.14l31.87-24.79c5.76-4.48,12.41-7.55,19.71-8.08l24.36-1.78l52.28-3.24
					c4.62-0.29,9.03,0.07,13.29,2.44c-7.98-0.71-15.12,1.93-20.27,7.82c-8.82,10.1-7.82,25.14,2.61,33.75
					C281.78,419.41,287.79,421.23,293.88,421.03z"/>
				<path fill="#2C2C2C" d="M113.86,525.17l-21.3,34.74c0.43,0.36,0.75,0.18,0.91,0.24c-1.69,0.46-3.48,0.06-5.05-0.74
					c0.78-0.01,1.05-0.44,1.49-1.16l20.89-34.54c0.38-0.62,0.67-0.98,0.69-1.63C112.52,521.61,114.49,524.25,113.86,525.17z"/>
				<g>
					<path fill="#010101" d="M526.29,378.06c4.59,1.46,9.1,3.42,12.98,6.56l92.43,74.78l11.63,11.65l22.72,22.88
						c4.2,4.23,4.51,9.88,1.98,15c-9.26,18.7-19.48,36.64-31.99,53.38c-2.98,3.99-8.39,4.73-12.88,3.52l-14.45-3.91l-24.46-6.81
						l-12.01-3.86l-23.02-9.69l-53.89-22.7l-23.97-10.15c-5.45-2.31-10.52-5.05-14.93-8.98c-2.22-1.99-4.48-4.12-6.09-6.7
						l-0.73,0.16c-14.87-23.74-29.59-47.58-44.17-71.51c-1.15-1.7-1.56-3.31-1.22-4.84c-0.38-0.23-0.81-0.48-1-0.91
						c-1.72-4-0.9-10.96,0.52-15.02c-0.12-6.02,1.95-11.81,5.72-16.49c4.22-4.11,9.93-9.62,15.24-12.19
						c2.14-1.04,5.47-2.57,7.63-1.63c0.75-0.87,1.89-1.19,3.41-0.97c28.14,1.87,56.14,3.96,84.29,6.32
						c2.09,0.18,4.02,0.67,5.81,1.48L526.29,378.06z"/>
					<g>
						<path fill="#FEFEFE" d="M595.37,457.3l15.18,11.19c-6.04,13.34-12.91,26.23-20.94,38.61L574,529.15l-18.72-9.13l-44.55-22.55
							l-24.27-13.35c-3.85-2.12-7.26-4.51-10.24-7.72c-3.23-3.49-6.06-7.15-8.25-11.43l-12.71-24.88c-2.12-4.15-3.95-8.7-1.46-12.55
							l3.64-5.64l6.73-11.99c2.1-3.74,5.21-5.34,9.38-5.47l26.59-0.8c8.16-0.25,16.02,1.25,23.38,4.73l7.84,4.54L595.37,457.3z"/>
						<g>
							<path fill="#1A191A" d="M665.88,504.21c-0.54-0.45-0.81-0.67-0.81-0.67l-41.32-6.35l-0.32-0.76l-0.52-0.56l2.78-6.17
								c1.72-7.35-3.19-14.86-8.43-19.66l-19.29-14.29l-1.93-2.3l-0.6,0.43c-22.02-16.05-44.46-31.5-67.31-46.33
								c-7.38-4.15-15.63-6.5-24.11-6.66l-25.25,0.59l-0.44-0.69c-0.68,0.36-5,1.1-5.24,0.98c-0.27-0.14-0.43-0.4-0.53-0.68
								c-0.24,0.85-0.89,0.99-1.15,0.05l-0.64,0.75c-3.52,0.37-6.52,2.46-8.32,5.48l-6.85,12.2l-0.82,0.02
								c-0.02,0.88-0.03,1.33-0.03,1.33c-2.97,3.48-4.62,7.28-4.95,11.38l-0.68,0.74c-1.01-0.19-1.33-1.11-0.95-2.76
								c-7.68-1.16-14.99-3.25-22.17-6.2c-0.3-0.12-0.55-0.36-0.81-0.61c-0.26-0.25-0.49-0.54-0.7-0.84
								c9.65,1.58,19.27-3.2,24.04-11.56c4.98-8.73,3.74-19.65-2.85-27.09c-4.95-5.59-11.37-8.32-18.93-8.01
								c4.15-1.69,8.09-2.37,12.34-2.04l39.62,3.02l36.55,2.82c8.72,0.67,16.75,3.59,23.59,9.1l60.5,48.75l30.28,24.92l33.29,33.09
								C665.37,498.06,666.58,501.2,665.88,504.21z"/>
							<path fill="#4B494B" d="M424.5,422.64c7.72,3.58,15.96,5.75,24.47,7.03c-0.2,1.53-0.32,2.6,0.17,3.37
								c0.74,0.75,1.16,1.84,1.28,3.26c4.85,10.1,9.86,20.12,15.04,30.08c3.65,7.22,8.91,13.68,15.8,18.01
								c29.99,16.86,60.51,32.63,91.57,47.31c9.86,4.03,23.22,7.96,30.33-2.71l0.99-0.2c0.71-0.76,1.02-0.82,1.62,0.06L626,561.68
								c0.52,0.98-0.18,1.01-1.09,0.91l-41.08-11.29l-12.52-4.4l-18.65-7.75l-35.03-14.84l-36.17-15.15l-14.07-6.35
								c-5.45-2.93-10.53-6.5-13.88-11.75l-6.45-10.09l-13.2-21.27l-23.37-37.74c-2.45-3.95-3.99-8.06-3.72-12.84
								C410.1,416.53,416.69,421.29,424.5,422.64z"/>
							<path fill="#4C4A4C" d="M665.88,504.21c-0.34,1.47-0.95,2.58-1.68,4.09c-8.72,18.06-18.83,35.23-30.73,51.37
								c-1,1.36-2.15,2.08-3.49,2.58c-0.73,0.19-1.28,0.13-1.67-0.18l-22.03-35.59l0.28-1.26c0.33-1.09,0.69-2.19,1.28-3.17
								c5.13-7.92,9.94-16.03,14.41-24.33l1.16-1.29l42.17,6.48C665.89,503.06,665.83,504.06,665.88,504.21z"/>
							<path fill="#5A595A" d="M447.53,404.04l-0.68-0.32c-1.42-1.64-3.47-2.48-6.14-2.51l-0.62-0.79
								c0.37-17.02-23.88-17.48-24.15-0.45l-0.65,0.77c-0.43,0.7-1.32,1.08-2.68,1.12c-1.54,0.39-2.83,1.23-3.87,2.5
								c-2.03-8.03,1.11-16.48,7.9-21.24c6.78-4.76,15.8-4.83,22.66-0.18C446.16,387.58,449.43,395.98,447.53,404.04z"/>
							<path fill="#898989" d="M447.53,404.04c-2.11,8.96-10.07,15.31-19.27,15.38c-9.2,0.07-17.26-6.15-19.52-15.07
								c-0.33-2.15,3.45-3.48,6.54-3.62l0.79,0.6c2.48,13.3,20.85,13.64,23.82,0.44l0.81-0.57c0.13-0.11,0.42-0.66,0.65-0.63
								C444.27,400.92,447.83,402.03,447.53,404.04z"/>
							<path fill="#2F2E2F" d="M629.98,562.25c-1.58,0.58-3.44,0.79-5.07,0.34c0.19-0.06,0.42-0.02,0.72-0.18l-20.44-33.17
								c-0.29-0.47-0.54-0.56-1.04-0.46c-0.75-0.89,1.31-3.82,2.42-3.56c0.14,0.09,0.09,0.4,0.2,0.69l22.28,35.99
								C629.25,562.25,629.82,562.21,629.98,562.25z"/>
							<path fill="#010101" d="M596.05,453.45l1.47,2.55c0.02,0.89-1.47,1.33-2.15,1.29l-0.6,0.44l-63.76-44.24
								c-8.87-5.76-18.92-9.64-30.02-9.18l-26.97,0.81l-0.44-0.69c-1.73-0.33-0.63-2.58,0.91-2.98c1.38,0.05,2.67-0.17,3.85-0.65
								l25.7-0.6c10.47,0.22,19.99,3.53,28.58,9.29l28.6,19.21L596.05,453.45z"/>
							<path fill="#010101" d="M478.33,400.8c-0.88,1.7-3.64,0.35-4.36,1.55c-0.32,0.53-0.84,1.33-0.4,2.08l-0.71,0.74
								c-3.32,0.18-6.2,1.84-7.86,4.75l-6.72,11.96l-0.82,0.02c-0.87,0.09-1.45-0.17-1.96-0.52c-0.61-0.42-0.94-0.94-0.71-1.78
								l6.88-12.26c2.06-3.68,5.64-6.01,9.75-6.19c0.21,0.46,0.59,0.44,1.15-0.05L478.33,400.8z"/>
							<path fill="#010101" d="M472.56,401.1c0.12,0.61-0.39,1.71-1.14,1.37c-0.41-0.18-0.22-1.12-0.01-1.32L472.56,401.1z"/>
							<g>
								<path fill="#010101" d="M457.46,421.9l0.42,0.64c-5.19,7.05-5.71,8.94-2.13,16.96l13.86,27.01
									c3.9,6.46,8.99,12.32,15.59,16.09c28.73,16.31,58.91,31.12,88.52,45.64c13.6-18.42,26.62-37.87,35.98-59.5l-14.42-10.62
									l0.08-0.82c0.1-0.54,0.54-0.91,1.33-1.12c-0.81-1.12-1.03-2.03-0.66-2.73l20.7,15.29c6.09,4.5,13.11,16.11,8.67,23.25
									l-1.99,4.45c-4.94,10.05-10.57,19.54-16.86,28.79l-2.42,3.56c-1.24,1.83-2.59,3.64-4.46,4.94
									c-7.17,5.01-19.26,2.48-27.17-1.39l-15.81-7.75l-28-13.83l-23.37-12.14l-22.61-12.55c-7.94-4.41-13.8-11.32-17.89-19.38
									l-14.18-27.95c-0.94-1.85-1.4-3.75-1.51-5.71c-0.16-2.84,0.29-5.24,1.84-7.62l3.81-5.83
									C455.58,420.44,456.47,421.21,457.46,421.9z"/>
								<path fill="#808083" d="M599.77,528.63c-4.5,6.55-15.14,4.49-22.31,2.04c14.49-18.64,26.43-38.35,36.2-59.9
									c5.46,4.22,11.69,12.79,9.02,18.86C616.31,503.37,608.72,516.23,599.77,528.63z"/>
							</g>
							<g>
								<path fill="#010101" d="M440.7,401.2c-0.89,6.42-6.44,11.15-12.92,11.03c-6.48-0.12-11.84-5.06-12.5-11.51
									c-0.5-4.92,1.88-9.68,6.1-12.24c4.23-2.56,9.55-2.46,13.68,0.26C439.19,391.46,441.38,396.31,440.7,401.2z"/>
								<circle fill="#FDFDFE" cx="428.01" cy="399.41" r="9.27"/>
							</g>
						</g>
					</g>
				</g>
			</g>
			<g>
				<path fill="#020202" d="M130.03,427.52l0.18,0.75c0,0-10.92,8.54-32.75,25.62l-0.76-0.3c0.01-0.58,0.07-1.46-0.5-1.72l-1.8-1.02
					l8.03-6.27l24.69-19.31c1.71,0.94,2.57,1.41,2.57,1.41L130.03,427.52z"/>
				<path fill="#010101" d="M153.22,409.38l0.18,0.75c-7.53,5.89-15.06,11.79-22.6,17.68l-0.77-0.29c-1.18-0.29-2.68-0.78-2.91-2.23
					l22.5-17.61c0.34,0.7,0.42,1.36,0.54,2.2L153.22,409.38z"/>
				<path fill="#4C4A4C" d="M93.46,560.15c-1.24,0.22-1.7-0.05-1.38-0.82l20.95-34.17l0.82,0l0.8-0.09
					c5.54,10.66,20.64,8.02,29.85,3.81c29.74-13.92,59.04-28.7,87.91-44.33c10.49-5.06,17.35-14.39,22.43-24.65l12.38-24.56
					c1.03-2.38,1.41-4.99,1.02-7.55l0.54-0.92c-0.31-0.92-0.22-1.46,0.28-1.61l9.36-1.36c5.1-1.29,10.26-2.26,15.45-2.89
					c4.33-1.09,8.7-1.99,12.51-4.86c3.54-2.67,5.94-6.22,7.7-10.25c0.38,4.7-0.73,8.94-3.09,12.84l-16.03,26.45l-15.4,25.37
					l-10.08,16.65c-3.92,6.47-9.37,11.32-16.37,14.27l-24.74,10.41l-52.27,21.51l-23.85,9.91c-5.6,2.33-11,4.11-16.89,5.66
					l-25.83,6.81L93.46,560.15z"/>
				<path fill="#4C4A4C" d="M94.16,491.74c0.81,0.87,1.61,1.77,2.19,2.81c4.55,8.79,9.4,17.39,14.57,25.82l0.57,1.72l0.38,1.19
					c-7.25,12.27-14.67,24.37-22.25,36.31l-1.21-0.17c-1.31-0.67-2.51-1.53-3.43-2.95l-16.02-24.7l-13.79-26.98l-1.57-4.06
					c0.01-0.28-0.03-1.05,0.2-1.52L94.16,491.74z"/>
				<path fill="#010101" d="M258.32,407.5c-0.63,0.37-1.31-0.11-2.05-1.44c-0.47-0.59-1.2-0.29-2.2,0.89l-0.93-0.22
					c-1.43-2.42-3.77-4.15-6.61-4.43l-34.86-1.08c-7.99,0-15.53,4.14-22.16,8.09l-22.48,14.68l-0.74-0.36
					c-1.77,1.14-5.06-0.24-3.08-2.23l19.94-13.1c8.2-5.39,19.23-11.56,29.08-11.22l35.11,1.21
					C252.87,398.49,256.56,402.62,258.32,407.5z"/>
				<path fill="#020202" d="M140.65,441.21l0.15,0.76c0,0-9.86,7.09-29.58,21.27l-0.75-0.32c-0.48-1.28-1.78-1.74-2.99-2.19
					l25.57-18.42c1.52,1.33,2.42,1.54,3.5-0.7c-0.77-0.01-1.22-0.3-1.32-0.86l2.79-1.96c0.62,0.02,0.77,0.48,0.47,1.37
					C139.72,440.12,140.44,440.47,140.65,441.21z"/>
				<path fill="#020202" d="M163.22,421.4l-0.13,1.17c0.9,0.76,2.01,1.15,3.21,1.06l0.2,0.72c0,0-8.37,5.73-25.1,17.2l-0.75-0.34
					l-3.03-0.46l0.39-1.95L163.22,421.4z"/>
				<path fill="#010101" d="M258.32,407.5l3.54,6.92c0.17,0.65,0.27,1.36-0.09,2.09c-0.67,0.54-1.34,0.9-2.01,1.25
					c-0.26,0.1-0.66,0.21-0.77,0.05c-1.29-2-4.61-7.99-5.31-10.07l0.38-0.78c-0.13-1.05,0.6-1.66,1.32-1.9
					c0.92-0.31,1.39,0.55,1.97,1.26L258.32,407.5z"/>
				<path fill="#020202" d="M133.04,442.32l2.18-1.56l2.21,0.11c-0.18,1.95-1.93,3.62-3.26,3.1
					C133.54,443.72,132.96,443.23,133.04,442.32z"/>
				<path fill="#FEFEFE" d="M254.07,406.96l5.69,10.8l4.45,7.34c1.91,3.15,1.52,6.99-0.17,10.31l-11.25,22.12
					c-3.46,6.8-7.33,13.15-12.85,18.43c-2.33,2.22-4.93,3.71-7.78,5.32c-17.38,9.79-34.93,18.77-52.89,27.52l-17.27,8.44l-18.26,8.9
					l-17.47-25.33c-7.03-11.57-13.13-23.43-18.35-35.91l2.54-1.97l17.42-12.52l12.77-9.19l25.65-17.58l22.86-14.93l6.4-3.52
					c5.08-2.79,10.7-4.84,16.67-4.66l33.7,1.03C249.54,401.67,252.39,403.77,254.07,406.96z"/>
				<g>
					<path fill="#010101" d="M268.79,426.9c0.68,3.06,0.25,6.49-1.29,9.55l-11.65,23.07c-3.29,6.52-6.95,12.6-12.06,17.82
						c-3.39,3.45-7.33,5.85-11.57,8.14l-21.88,11.82l-19.38,9.82l-26.44,12.9l-19.7,9.51c-6.35,3.06-13.38,4.35-20.29,3.26
						c-3.15-0.5-6.36-1.63-8.14-4.11l-2.52-3.51l-2.37-3.09c-6.47-9.72-12.19-19.88-17.33-30.35l-1.25-2.92
						c-1.44-3.37-1.64-7-0.36-10.48c1.76-4.8,4.63-8.89,8.31-12.42l6.61-5.18c1.4-0.79,4.03,0.84,2.99,2.19
						c0.84,0.66-1.53,2.36-1.95,2c5.51,12.13,11.34,24.15,18.36,35.51l17.08,24.77c24.7-11.84,49.47-24.07,74.81-37.34
						c6.01-3.15,12.04-6.45,17.7-10c6.88-4.97,11.47-12.54,15.36-19.97l12.25-24.3c1.01-3.05,0.97-4.92-0.31-7.84l-4.34-7.18
						l0.34-0.8c-0.03-0.73,0.46-1.29,1.47-1.68c-0.06-0.75,0.15-1.31,0.63-1.66l6.19,10.34L268.79,426.9z"/>
					<path fill="#808083" d="M140.24,527.72c-6.35,2.42-17.69,3.25-21.32-1.64c-6.44-8.68-12.15-17.62-16.93-27.3l-5.47-11.08
						c-1.55-3.05-1.57-6.27-0.11-9.38c1.98-4.24,4.79-7.87,8.45-11.08l4.95,11.05l11.51,21.54
						C127.17,509.5,133.34,518.56,140.24,527.72z"/>
				</g>
				<g>
					<path fill="#010101" d="M290.36,368.48c0.38-0.22,0.81-0.47,1.26-0.43c2.67,0.29,6.37,2.54,8.62,4.05
						c2.54,1.7,9.15,7.79,10.91,10.13c3.15,4.21,4.92,8.98,5.37,14.22c1.62,3.1,3.18,15.03,1.01,17.32
						c-0.18,0.19-0.39,0.34-0.61,0.48c0.27,1.71-0.21,3.47-1.43,5.29c-14.27,23.92-28.66,47.78-43.17,71.59l-0.83,0.01
						c-3.97,5.19-8.63,9.56-14.46,12.45l-5.7,2.83l-53.51,21.98l-41.76,17.27l-14.94,5.47l-19.96,5.35l-25.83,6.9
						c-4.9,1.31-10.11-0.14-12.88-4.36L66.99,535.5l-16.04-31.09c-2.09-4.05-1.72-9.53,1.71-12.96l33.32-33.33l8.42-7.25
						c1.53-0.71,3.96,1.19,2.3,2.74c-1.64,2.26-3.66,4.27-6.06,6.05c-11.57,11.21-22.95,22.46-34.13,33.76
						c-1.4,1.54-2.49,3.46-2.46,5.58c-0.55,0.25-0.7,0.83-0.45,1.72l0.76,0.02l1.45,3.76l13.76,26.92
						c5.56,8.79,11.27,17.47,17.14,26.02c1.05,0.55,1.61,1.21,1.69,1.97c1.28-0.05,2.6,0.02,3.97,0.21
						c0.13,0.62,0.54,0.63,1.08,0.53l0.05-0.74l43.63-11.62c7.45-2.43,11.17-3.64,11.17-3.64c34.93-14.32,69.77-28.75,104.54-43.3
						c6.32-2.63,11.61-7.12,15.33-12.85l42.22-69.6c1.39-0.31,3.25-9.85,2.92-9.32c-4.65,7.46-9.77,10.81-18.41,12.42l-1.04-0.47
						c-12.38,2.16-23.97-7.86-25.83-19.94c-2.18-14.22,8.63-27.46,23.02-27.99c-2.94-0.94-6.06-1.11-9.14-0.94
						c-26.03,1.49-51.93,3.19-77.71,5.09c-6.03,0.56-11.72,2.94-16.67,6.38l-33.57,26.02l-0.77-0.29c-2.32,1.6-4.88,1.39-3.59-1.7
						l32.87-25.69c5.03-3.93,10.39-6.76,16.55-8.24l0.28-0.76l5.56-0.87l77.23-4.83l3.71-0.07
						C287.78,367.04,289.29,367.46,290.36,368.48z"/>
					<path fill="#595859" d="M311.45,402.26l-0.72-0.44c-0.11-0.74-0.73-1.29-1.85-1.65c0,0-1.39-0.4-4.18-1.19l-0.63-0.78
						c0.24-16.96-23.91-17.31-24.17-0.35l-0.65,0.76c-0.46,0.65-1.34,0.98-2.66,0.98l-1.83,0.66c-0.74,0.58-1.47,1.14-2.18,1.7
						c-1.9-8.08,1.39-16.48,8.26-21.14s15.9-4.58,22.69,0.19C310.33,385.76,313.48,394.22,311.45,402.26z"/>
					<path fill="#8A8A8A" d="M279.27,398.61l0.79,0.6c2.49,13.36,20.97,13.63,23.85,0.35l0.8-0.58c1.44-0.93,4.44,0.29,6.43,1.71
						c0.3,0.54,0.3,1.08,0.31,1.57c-2.26,8.94-10.33,15.18-19.55,15.1c-9.22-0.08-17.19-6.44-19.3-15.42
						C272.55,399.85,276.34,398.5,279.27,398.61z"/>
					<g>
						<path fill="#010101" d="M304.71,398.98c-0.84,6.45-6.38,11.24-12.89,11.15c-6.5-0.09-11.9-5.05-12.56-11.52
							c-0.5-4.9,1.87-9.66,6.08-12.22c4.21-2.57,9.52-2.49,13.65,0.2C303.12,389.27,305.34,394.09,304.71,398.98z"/>
						<circle fill="#FDFDFD" cx="292" cy="397.25" r="9.28"/>
					</g>
				</g>
			</g>
			<g>
				<path fill="#010101" d="M474.47,192.41c-6.3,1.8-12.81-2.12-14.18-8.39l-9.78-44.71l-8.49-40.02
					c-1.28-6.05-0.2-11.73,2.97-16.99l6.21-10.31l13.15-21.59c2.7-4.43,7.77-5.75,12.65-3.97c41.45,15.14,78.77,38.43,111.13,68.39
					c3.26,3.02,4.47,7.72,2.16,11.64l-18.76,31.82c-2.87,4.87-7.72,8.63-13.35,10.24L474.47,192.41z"/>
				<path fill="#1D1D1D" d="M587.8,123.18c-0.55-0.04-0.82-0.2-0.77-0.73c-3.62,1.13-5.92,3.25-6.92,6.34
					c-2.27,1.44-4.69,2.48-7.25,3.1c-0.87-0.84-1.74-1.2-2.62-1.09l-12.33,5.72l-0.7,0.31c-25.61-23.51-55.24-40.64-87.11-54.5
					c-12.44-5.41-18.91,7.13-18.79,18.11l14.57,59.25c1.04,3.44,3.09,6.47,5.76,8.86l0.26,1.16l0.51,0.54
					c-2.47,4.59-4.95,9.19-7.42,13.78l-0.82,0.03l-9.21-41.12l-9.11-42.92c-0.98-4.64-1.3-9.56,1.12-13.67l9.12-15.47l11.58-18.96
					c0.57-0.93,1.47-1.68,2.54-1.4c1.29,0.34,1.63-0.6,2.45-1c1.1-0.55,2.92,0.09,4.2,0.56c12.21,4.57,23.98,9.66,35.59,15.71
					c15.1,7.87,29.45,16.67,43.16,26.76c10.82,7.96,21.01,16.31,30.76,25.44C587.84,119.4,588.34,121.52,587.8,123.18z"/>
				<path fill="#4C4C4C" d="M587.8,123.18c-0.5,1.55-1.14,2.65-1.97,4.03l-18.15,30.33c-2.62,4.39-7.45,6.79-12.27,8.16L508.66,179
					l-35.11,9.92c-3.76,1.06-8.45-0.75-9.37-4.84l7.73-14.36l1.27,0.1c5.75,4.32,13.18,5.21,20.05,3.43l54.64-13.92
					c9-1.65,16.45-14.07,10.02-21.83l0.02-0.98c-0.17-0.6,0.14-0.84,0.7-1.1l11.1-5.17c1.46-0.68,2.37,0.16,3.25,1
					c2.16-0.56,4.62-1.93,6.65-2.88c0.47-2.34,1.76-3.8,3.72-4.82l4.31-2.24L587.8,123.18z"/>
				<g>
					<path fill="#010101" d="M557.91,136.53c6.34,5.88,2.25,17.22-5.25,21.76c-1.52,0.92-3.18,1.37-4.96,1.82l-54.3,13.83
						c-7.63,1.94-15.52,0.74-21.49-4.22c-3.37-2.8-5.88-6.4-6.96-10.77l-6.43-25.91l-7.9-32.51c-0.33-5.62,1.36-10.94,4.56-15.35
						c3.83-5.28,9.64-5.83,15.56-3.34c15.09,6.34,29.61,13.5,43.58,22.16c14.27,8.84,27.59,18.73,40.35,29.52L557.91,136.53z"/>
					<path fill="#FEFEFE" d="M490.29,171.04c-5.22,0.9-10.16-0.2-14.45-2.9c-3.94-3.01-6.79-6.85-7.99-11.8l-13.49-55.57
						c33.94,12.92,64.63,31.97,91.39,56.2l-31.01,7.74L490.29,171.04z"/>
					<path fill="#7E7F80" d="M557.16,146.18c-0.91,4.07-3.52,7.43-7.07,9.54l-5.38-4.49c-18.45-16.29-38.72-29.92-60.65-41.22
						c-9.71-5-19.56-9.14-29.82-13.24c1.28-7.03,5.36-14.58,12.77-12.26l13.85,5.82l21.24,10.74l21.56,13.3
						c10.67,7.36,20.85,14.96,30.57,23.49C556.66,139.98,557.92,142.78,557.16,146.18z"/>
				</g>
			</g>
			<g>
				<path fill="#000100" d="M259.05,41.66l0.54,0.59c-0.29,2.02-1.28,3.34-2.95,3.97l-1.79,1.11
					c-41.13,14.77-77.5,35.35-109.72,63.93c-0.33,1.04-0.84,1.75-1.52,2.12c0.53,0.61,0.8,1.37,0.84,2.28
					c6.09,11.39,12.36,22.72,18.82,33.98c2.57,4.15,6.36,7.37,11.06,8.8l82.21,25.71c4.75,0.92,8.29,0.55,10.04-4.45l0.81-0.29
					l-0.28-1.77c6.87-27.4,13.83-54.74,20.87-82.01c1.17-4.32,0.93-8.83-1.03-12.89l-15.74-28.38l0.41-0.72l-1.58-4.15
					c0.45-1.05,2.03-2.12,2.83-0.94l18.18,32.92c1.95,3.53,2.63,8.41,1.63,12.38l-11.42,45.16l-10.25,41.02
					c-0.99,3.96-4.03,7.25-7.83,8.34c-2.89,0.82-5.8,0.42-8.64-0.46l-37.47-11.68l-45.41-14.31c-5.49-1.73-9.58-5.75-12.31-10.59
					l-18.01-31.88c-2.45-4.34-1.57-9.4,2.26-12.7C178.81,76.49,215,56.19,259.05,41.66z"/>
				<path fill="#010101" d="M272.87,48.57c-0.95,0.1-1.65,0.4-2.22,1.02c0.65,1.32,0.82,2.62,0.96,4.07l-0.81,0
					c-1.26-2.51-2.72-4.87-4.38-7.07c-0.56,0.86-0.48,2.02,0.25,3.47c-0.09,7.5-0.39,15-0.92,22.51c-0.86,3.87-3.94,3.85-4.42-0.22
					l0.94-22.37c1.04-1.75,1.08-3.3,0.11-4.65l-5.09,1.44l-0.67-0.54l1.26-1.2l1.15-3.35c4.96-1.63,9.97,0.15,12.62,4.79
					L272.87,48.57z"/>
				<path fill="#1C1C1D" d="M271.61,53.65l15.26,27.41c2.66,4.77,3.14,9.48,1.78,14.74l-7.64,29.55l-4.24,16.93l-9.4,37.13
					l-0.73,0.13c-2.82-4.94-5.5-9.92-8.06-14.95c0.07-1.08,0.67-2.07,1.79-2.99c0,0,0.88-1.37,2.65-4.12
					c5.84-19.88,11.56-39.83,17.16-59.84c1.02-9.32-4.18-21.47-15-20.81c-1.28-0.75-2.26-0.57-3.1,0.68
					c-32.59,11.77-63.21,28.8-89.82,50.92l-2.09,0.9c-2.49-0.99-4.94-2.21-7.34-3.65c-1.4,0.12-2.81,0.23-4.2,0.31
					c-3.38-1.74-6.64-3.64-9.79-5.71c0.12-0.91,0.13-1.8,0.03-2.65l-4.85-3.12l-0.43-1.11c0.18-1.56,0.97-2.88,2.29-4
					c9.98-8.43,20.1-16.42,30.96-23.78l18.36-11.58c19.53-11.41,40.04-20.55,61.42-27.8l6.05-1.72c1.29,1.37,1.63,3.45,0.32,5.08
					l-0.96,22.51c-0.05,1.08,0.25,2.66,1.54,2.69c0.85,0.02,1.44-1.53,1.49-2.4l1.07-20.69c0.14-2.67-2.08-4.36,0.2-6.02
					c0.96,0.56,1.52,1.39,2.02,2.27L271.61,53.65z"/>
				<path fill="#4C4C4C" d="M170.19,129.32l0.05,0.93c-6.51,8.31,1.15,20.73,10.45,22.9l57.04,15.95c6.86,1.94,14.32,0.5,19.64-4.33
					l1.22-0.19c0.29-0.1,0.61-0.02,0.77,0.28l8.02,14.55c-0.7,2.77-2.76,5.27-5.64,5.74c-2.8,0.45-5.47-0.26-8.22-1.13l-51.84-16.31
					l-27.57-8.61c-5.53-1.73-9.44-5.42-12.2-10.37l-17.35-31.05c-0.8-1.44-1.15-2.61-0.95-4.3l5.55,3.55
					c0.83,0.51,0.56,2.04,0.27,3.11l9.58,5.35c1.33,0.06,3.12-0.93,4.34-0.27l6.46,3.5C170.15,128.8,170.19,129.1,170.19,129.32z"/>
				<g>
					<path fill="#010101" d="M258.6,164.59c-5.47,5.48-13.44,7.32-21.04,5.19l-57.06-15.95c-4.07-1.14-7.27-3.17-9.7-6.59
						c-1.83-2.57-3.36-5.42-3.63-8.69c-0.28-3.41,0.56-7.02,3.02-9.23c5.14-4.62,10.47-8.47,16.06-12.59
						c13.36-9.85,27.3-18.29,42.23-25.61c10.91-5.34,21.74-10.2,33.25-14.2c0.83-1.38,2.24-1.63,3.59-0.78
						c10.59-1.06,17.05,12,15.52,21.94l-9.16,32l-7.11,25.24C263.53,159.04,261.27,161.91,258.6,164.59z"/>
					<path fill="#FEFEFE" d="M237.84,166.21l-56.19-15.77l2.78-2.53c19.3-15.93,40.43-29.14,63.19-39.72
						c9.69-4.37,19.36-8.13,29.85-11.59l-14.94,53.09c-0.84,2.98-1.54,5.71-3.1,8.18C254.87,165.49,246.49,168.64,237.84,166.21z"/>
					<path fill="#7C7E7F" d="M177.59,148.91c-3.56-2.43-6-6.03-6.76-9.99c-0.67-3.49,0.61-6.25,3.26-8.36
						c9.96-7.92,20.06-15.33,30.86-22.16c16.55-10.48,39.64-21.69,58.11-28.02c3.47-1.19,6.97-0.66,9.53,2.07
						c2.63,2.8,4.21,6.43,4.76,10.44c-14.64,4.73-28.7,10.45-42.32,17.46C214.44,120.99,195.46,133.64,177.59,148.91z"/>
				</g>
			</g>
			<g>
				<path fill="#000101" d="M41.96,285.74c0.85-0.04,1.59,0.43,2.84,0.07c-1.81,3.84-5.6,1.57-7.64,6.33l0.37,0.94
					c-3.57,10.71-5.18,23.1-6.49,34.6c-3.73,32.87-1.84,67.24,5.07,98.25l0.78,1.95c0.84,0.79,1.28,1.59,1.31,2.39
					c0.81-0.16,1.62,0.04,2.42,0.61c13.43,0.29,26.91,0.4,40.43,0.32c4.08-0.17,7.7-2.42,10.62-5.14l65.04-60.75
					c2.05-2.49,2.06-5.18,0.92-8.1l0.44-0.74c-1.14-0.67-2.19-1.63-3.13-2.86l-61.86-57.95c-2.67-2.38-5.88-4.12-9.35-5l-0.85-0.91
					c-0.21-0.72-0.66-1.18-1.74-1.56l1.02-1.44c0.89,0.59,1.56,0.36,2.1-0.33c4.17,0.73,8.02,2.68,11.32,5.77l62.72,58.72
					c5.47,5.13,6.01,13.18,0.51,18.32l-62.95,58.92c-4.04,3.78-9.01,7.35-14.77,7.33l-39.73-0.15c-5.03-0.02-8.67-4.49-9.63-9.08
					c-3.01-14.36-5.09-28.48-6.05-43.13c-1.97-30.02,0.01-59.94,6.85-89.17C33.62,289.25,37.62,285.96,41.96,285.74z"/>
				<path fill="#202020" d="M67.38,414.12c0.02,1.08-0.92,1.48-2.8,1.2c-0.27,1.57-1.75,2.32-3.18,2.72
					c-3.49,2.17-7.04,4.24-10.66,6.21c-1.14,0.33-2.35,0.32-3.63-0.05c-0.94,0.6-1.93,1.06-2.98,1.39c0.31,1.13-0.14,2.03-0.95,2.82
					c-0.76,0.75-3.95,2.39-4.97,1.86c-1.49-1.03-2.47-2.57-2.84-4.48l-2.49-12.65c-1.69-8.61-2.59-16.97-3.34-25.78
					c-2.55-30-0.7-59.93,5.67-89.32c0.49-2.28,1.13-3.99,1.96-5.91c0.15-0.08,0.76-0.67,1.08-0.62l18.18,10.55l10.16,5.48
					c-4.49,24.35-5.97,46.84-4.23,71.88c0.75,10.77,2.25,21.13,4.14,31.69L67.38,414.12z"/>
				<path fill="#4E4D4D" d="M158.07,356.47c1.39,2.9,1.63,7.02-1.06,9.53l-40.85,38.18l-24.01,22.39c-3.1,2.89-7.13,5.34-11.45,5.33
					l-38.93-0.11c-1.49,0-2.61-0.87-3.56-1.53l3.43-1.76c0.83-0.4,1.35-0.64,1.78-1.63c0.22-0.5,0.2-0.72-0.4-2.01
					c1.84,0.34,2.55-0.9,3.94-1.34c0.87-0.21,2.34,0.75,3.48,0.1l9.46-5.38c0.66-0.38,0.86-0.84,1.82-1.04
					c0.59-0.13,1.65-0.83,2.05-1.42c0.14-2.2,1.95-0.36,3.61-1.66c2.48,8.41,17.79,9.92,24.79,3.01l21.05-20.79l22.81-22.86
					c4.26-4.26,5.97-10.16,5.47-15.84c-0.18-1.01-0.02-1.6,0.47-1.77l15.19-0.1L158.07,356.47z"/>
				<path fill="#202020" d="M67.01,289.39c0.04-0.27,0.12-0.67,0.32-0.7c0.52-0.08,4.66-0.01,4.88,0.09
					c0.26,0.12,0.37,0.44,0.47,0.71l1.38-0.09c0.34-1.28,2.85-0.66,3.56,0.06l5.27,0.29c4.12,0.84,7.88,2.8,11.07,5.75l5.13,4.74
					l20.24,19.13l34.67,32.4c1.66,1.56,3.16,2.77,4.09,4.71l-16.42,0.11c-0.16,0.4-0.14,0.73-0.15,1.06
					c-0.48-5.38-3.06-9.96-6.99-13.77l-11.09-10.75L94.73,304.6c-1.98-1.97-3.89-3.4-6.33-4.65c-7.46-3.85-17.19-3.33-21,4.51
					l-2.64-1.3L41.4,289.34L67.01,289.39z"/>
				<g>
					<path fill="#010101" d="M84.25,286.42c0.38,0.99-0.29,1.48-2.03,1.46c0.78,0.54,1.53,1.09,0.66,1.88
						c-0.05,0.27-0.14,0.66-0.34,0.69c-0.51,0.05-4.31-0.1-4.48-0.25c-0.24-0.19-0.4-0.42-0.45-0.73c-0.61-0.33-1.53-0.73-2.75-1.21
						c-0.12,0.51-0.39,0.89-0.81,1.15c0.07,1.03-1.09,1.06-1.38,0.09c-0.96-0.35-1.26-1.59-1.27-2.56
						c-3.23-0.38-4.58,0.19-4.04,1.71l-0.36,0.74l-0.33,0.7l-22.61,0.01c7.64,4.73,15.34,9.16,23.1,13.3
						c6.22-10.24,20.46-7.02,27.72,0.38l41.55,41.1c2.83,3.14,4.88,6.97,5.56,11.16c-0.59,0.39-0.57,0.95-0.5,1.61
						c0.64,0.35,0.7,0.79,0.78,1.41c0.55,4.28-1.73,10.06-4.38,13.4c-15.25,15.63-30.74,31.01-46.4,46.2
						c-5.99,4.34-15.92,5.11-21.77,0.18c-1.18-1-3.42-3.29-2.36-4.71c-0.98,0.2-1.43-1.99-1.57-2.85
						c-3.37-20.9-5.45-40.03-4.71-61.32c0.49-14.11,2.14-28.16,4.69-42.03c-9.24-4.95-18.42-10.15-27.55-15.58
						c0,0-0.36-0.07-1.09-0.2c-0.52-0.87-0.17-1.78,1.05-2.75c1.74-0.92,3.46-1.85,5.15-2.78c-0.78,0.04-1.25-0.25-1.39-0.88
						c0.99-0.59,2.08-0.11,3.31-0.1l36.41,0.32L84.25,286.42z"/>
					<path fill="#FEFEFE" d="M104.49,400.07l-13.56,13.25c-7.63-35.99-7.4-71.61-0.28-107.54l42.59,42.09
						c6.73,6.65,6.44,17.06-0.33,23.58L104.49,400.07z"/>
					<path fill="#808183" d="M87.73,415.9c-6.16,4.01-16.2,1.68-17.22-3.48c-7.02-35.41-7.09-70.36,0.12-105.75
						c0.61-3,3.71-4.76,6.36-5.18c3.71-0.59,7.13,0.25,10.46,2.1c-4.3,19.98-6.14,40.11-5.75,60.64
						C82.01,381.75,83.86,398.83,87.73,415.9z"/>
					<path fill="#000101" d="M72.67,289.49l-5.67-0.11c-0.29-0.47-0.75-1.07-0.64-1.58c0.46-1.98,3.3-1.67,6.22-1.51
						c-0.17,0.3-0.59,0.88-0.47,1.27C72.37,288.25,72.81,288.82,72.67,289.49z"/>
					<path fill="#000101" d="M77.61,289.46l-3.56-0.06c-0.18-0.75,0.03-1.51,0.56-2.08l2.37,1.27c0.22,0.12,0.55,0.13,0.65,0.27
						C77.73,289,77.7,289.29,77.61,289.46z"/>
				</g>
			</g>
			<g>
				<path fill="#010101" d="M193.36,189.93c0.48,0.24,0.68,0.74,0.6,1.51c4.67,1.27,1.44,3.75-1.77,1.47l-1.91-0.45l-0.57,0.53
					c-7.59-3.11-15.18-6.21-22.77-9.32c0,0-0.11-0.3-0.34-0.9c-0.17,0.23-0.43,0.56-0.64,0.5c-2.31-0.61-5.69-2.24-7.43-3.74
					l-0.55,0.54L147.75,176l-37.93-11.18l-0.21-0.8l-0.87-0.52c-3.84-0.82-3.07-3.3,0.27-3.26l34.25,9.97
					c4.33,1.26,8.18,2.52,12.37,4.24L193.36,189.93z"/>
				<path fill="#010101" d="M269.25,224.74l3.17,3.47c-0.21,0.61-0.63,1.18-1.27,1.72c0.2,0.86,0.05,1.43-0.44,1.73l-1.42-0.65
					c-3.68-4.46-8.22-8.18-13.4-10.75l-65.47-26.99l-0.14-0.82c2.77-0.24,3.56,1.25,4.51,1.08c0.35-0.06,1.04-0.48,0.7-1.01
					l-2.52-0.6l0.38-1.99l59.97,24.53C259.41,216.94,264.86,219.94,269.25,224.74z"/>
				<path fill="#010101" d="M109.01,160.24c-0.94,0.49-1.8,0.92-2.39,1.8c1.09,0.87,2.37,0.92,2.98,1.99
					c-0.11,0.25-0.29,0.61-0.5,0.59c-0.64-0.08-5.76-1.55-6.25-1.83l-0.29-0.82c-0.07,0.17-0.16,0.32-0.29,0.4
					c-0.44,0.29-5.52-1.08-5.68-2.17c-0.25,0.48-0.79,0.64-1.61,0.47c-0.02,0.7,0.39,1.32,1.23,1.88c3.05,1.89,5.58,6.3,7.3,9.49
					c1.58,2.92,3.18,5.98,3.4,9.37c0.91,0.36,1.58,0.78,2.29,1.48c0.54,0.54,3.7,6.47,3.75,7.1c0.18,2.25-2.68,2.27-3.85,0.64
					l-0.73,0.12c-5.52-10.05-11.02-20.09-16.5-30.12l0.07-0.73c1.07-0.37,0.39-1.71,0.08-3.25c1.56-0.29,3.05-0.38,4.63,0.07
					L109.01,160.24z"/>
				<path fill="#191919" d="M96.59,160.2l0.96,0.8c1.35,2.5,3.14,2.75,5.01,0.96l7.04,2.06l38.38,11.32l10.54,4.18
					c1.14,0.88,2.31,1.75,3.51,2.62l0.84,1.31c0.18,0.09,3.68-0.07,3.73-0.69l23.68,9.69l63.28,25.98
					c6.98,2.87,12.68,7.47,17.15,13.23c0.88-0.05,2.17,1.84,1.52,2.56l39.41,63.23c2.26,3.92,4.09,7.74,3.91,12.49
					c-3.14-7.04-9.16-12.05-16.72-13.69c-8.36-1.81-16.68,0.86-22.32,6.92c-5.7,6.12-7.54,14.61-5.34,22.68
					c0.06,1.35,0.04,2.65-1.36,3.32c-5.19-3.51-10.44-8.06-14.36-12.97c-0.28-0.35-1.27-1.66-1.24-1.91
					c0.03-0.32,0.19-0.58,0.42-0.81c0.05-0.88,0.54-1.69,1.49-2.44c2.24-3.61,4.32-7.37,6.24-11.29l5.82-9.12
					c2.22-3.75,1.4-7.84-0.03-11.67l-11.22-21.54c-0.13-1.39-0.62-2.84-1.48-4.35c-0.97-0.54-1.71-1.53-2.24-2.98
					c-1.05-1.14-1.57-2.25-1.57-3.34c-0.67-0.67-1.42-1.21-2.25-1.62c-3.9-4.6-8.34-8.81-13.61-11.8
					c-27.55-13.8-55.07-27.31-82.55-40.54l-0.08-0.82c-0.33-1.34-0.66-1.45-0.97-0.33l-1.6-0.05c-10.33-4.81-28.31-11.68-36.21-0.13
					l-1.61,1.08c-0.06,1.08-0.48,1.64-1.25,1.66c-1.27,0.59-3.25-2.62-2.39-3.59c0.84-0.14,1.46,0.41,2.31,0.57
					c0.59,0.11,1.07-1.06,0.73-1.67l-3.32-5.94c-0.5-0.89-1.57-1.25-2.62-1.69c0.17-2.94-2.14-7.76-3.85-10.42l-2.6-4.03
					c-0.89-1.37-1.24-2.77-2.9-3.63c-0.95-0.49-2.73-1.96-2.63-3.03C94.35,159.5,95.94,160.01,96.59,160.2z"/>
				<path fill="#4A4A4A" d="M93.46,224.91l0.27,1.07c-5.88,10.91,4.13,23.11,12.92,29.32c27.87,19.7,56.3,39.33,85.59,56.81
					c6.59,3.93,15.18,5.39,22.77,5.03l32.62-1.91c2.13-0.17,4.23-0.75,6.04-1.89l0.97,0.18c0.49,1.29,1.35,2.27,2.25,3.31
					c3.8,4.42,8.29,8.09,12.97,11.87l1.33-2.83c2.93,10.73,14.2,18.19,25.93,16.55c-3.7,2.36-7.7,3.36-12.17,3.23l-74.06-2.23
					c-11.9-0.36-18.16-1.73-27.55-9.07l-57.72-45.17l-22.55-17.53l-8.27-6.92l-19.32-18.97l-18.71-18.53
					c-1.07-1.06-1.64-2.29-2.14-3.53c-0.15-0.56-0.05-0.92,0.31-1.06c12.69,0.45,25.39,0.97,38.12,1.56L93.46,224.91z"/>
				<path fill="#1F1F1F" d="M91.94,159.92c0.61,0.17,0.68,0.67,1.01,1.26l16.16,29.46c0.65,1.18,1.21,2.55,2.39,3.59
					c-0.36,1.15-0.76,2.31-1.39,3.34c-5.46,8.48-10.6,17.13-15.43,25.97l-1.22,1.37l-37.28-1.6c-0.72-0.03-1.22-0.2-1.54,0.39
					c-0.58-1.43-0.37-3.17,0.34-4.81c8.36-19,20.65-39.48,33.04-56.16C89.1,161.28,90.46,160.43,91.94,159.92z"/>
				<path fill="#010001" d="M272.42,228.22l5.09,7.69c-0.44,0.83-1.2,1.21-1.83,2.06c-2.1-1.64-2.31-3.93-3.45-3.75
					c-0.58-0.77-1.3-1.59-1.52-2.56c-0.15-0.65-0.51-1.62-0.09-2.18C271.05,228.93,271.56,228.23,272.42,228.22z"/>
				<path fill="#1F1F1F" d="M166.61,182.77c0.31,0.34,0.41,0.68,0.22,0.92c-0.29,0.38-0.6,0.21-1.02,0.24l-3.44,0.27
					c-1.39-3.66-4.26-3.03-3.84-4.68L166.61,182.77z"/>
				<path fill="#1F1F1F" d="M102.56,161.96c0.04,0.39,0.03,0.67-0.08,0.93c-0.14,0.33-2.72,1.95-4.31,0.05
					c-0.7-0.84-1.5-1.59-1.58-2.74L102.56,161.96z"/>
				<path fill="#010101" d="M251.64,246.77c1.53,1.74,3,4.1,3.81,6.32c0.28,0.77,0.1,1.62,1,2.38c0.44,0.37,0.49,1.17,0.16,1.65
					c-0.27,0.39-0.71,0.63-1.48,0.6l-1.16,0.17l-1.2-0.8l-2.34-4.33c-1.26-1.58-2.07-3.2-2.44-4.88c0.05-0.72,0.09-2.3,1.18-2.29
					C249.92,245.59,251,246.49,251.64,246.77z"/>
				<path fill="#1F1F1F" d="M153.15,191.99l-0.97-0.33c-0.29-0.41-0.24-1.42,0.16-1.48c0.91-0.14,1.15,0.3,1.17,0.9
					C153.51,191.34,153.49,191.68,153.15,191.99z"/>
				<path fill="#FDFEFD" d="M247.98,247.87c2.39,3,4.15,6.45,5.99,10.02l12.01,23.37c1.67,3.25,0.58,7.28-1.48,10.04
					c-3.61,4.82-6.28,9.72-8.85,15.12c-1.41,2.95-4.14,5.6-7.55,5.82l-33.73,2.17c-8.63,0.55-16.77-2.13-24.09-6.67
					c-28.49-17.67-56.08-36.21-83.48-55.92c5.32-12.22,11.19-23.69,17.89-34.88c5.4-9.02,10.97-17.51,17.65-25.75
					c3.73,1.24,7.02,2.93,10.52,4.61l18.32,8.8l40.38,19.64l18.32,9.15C236.97,236.93,243.11,241.77,247.98,247.87z"/>
				<g>
					<path fill="#010101" d="M152.18,191.66c0.29-0.97,1.04-0.66,0.97,0.33l21.86,10.52l59.29,29.26c7.05,3.48,12.59,9.07,17.35,15
						c-0.48,0.45-1.33,0.28-2.55-0.49c-0.22,0.84-0.59,1.37-1.11,1.59l-1.6-0.83c-4.28-5.02-9.53-9.15-15.34-12.26
						c-29.15-14.64-58.82-29.03-88.49-43.03c-14.19,18.37-25.35,38.84-35.21,59.84c27.39,19.49,55.45,37.97,83.87,55.89
						c6.8,4.29,15.06,6.7,23.11,6.21l34.25-2.22c2.06-0.33,3.96-1.63,5.18-3.31c3.29-6.54,7.01-12.84,11.18-18.88
						c1.39-2.37,1.43-4.96,0.54-7.47l-11.93-23.23l0.43-0.7c0.02-0.7,0.6-1.01,1.75-0.93c0.64-0.38,0.5-0.98-0.41-1.79
						c-0.56-0.94-0.51-1.63,0.14-2.07l12.82,24.5c2.51,4.87,2.88,10.22-0.32,14.78c-3.36,4.81-6.29,9.69-8.82,15.04
						c-1.12,2.37-2.5,4.59-4.5,6.09c-2,1.5-4.65,2.28-7.34,2.44l-32.26,1.89c-8.85,0.52-17.44-1.56-25.14-6.26
						c-28.4-17.35-55.83-36.04-83.05-55.26c-5.97-4.22-10.7-9.53-13.96-15.98c-2.66-5.26-1.93-10.4,0.58-15.41
						c5.32-10.61,11.41-20.88,18.04-30.69l0.72-2.09c0.89-0.6,1.67-0.97,2.29-1.9c2.43-3.61,6.17-5.4,10.59-5.58
						C134.72,184.28,143.89,187.19,152.18,191.66z"/>
					<path fill="#7F8080" d="M103.89,249.29c-4.9-5.55-11.6-13.51-8.31-20.38c4.21-8.78,8.9-17.04,14.06-25.27
						c2.66-4.24,5.33-8.13,8.42-11.97c1.61-1.96,3.69-3.09,6.26-3.32c4.77-0.45,9.39,0.12,14.32,1.58
						c-4.42,5.63-8.39,11.12-12.19,17.17c-6.81,10.56-12.76,21.35-18.29,32.63L103.89,249.29z"/>
				</g>
				<g>
					<path fill="#010101" d="M92.03,156.67c1.48,0.1,1.75,4.31-0.08,3.25l-0.25,0.85c-1.1,0.47-2.21,1.19-2.93,2.16
						c-13.06,17.67-24.41,36.66-33.33,56.73c-0.45,1.01-0.53,2.33-0.27,3.39l-0.52,0.65c0.75,0.11,1.3,0.71,1.66,1.81
						c12.82,13.03,25.82,25.93,38.98,38.7l8.23,6.89l80.73,63.05c6.68,5.53,14.66,8.25,23.28,8.42l77.44,2.37
						c3,0.08,6.06-0.32,8.79-1.59c-6.99-0.04-13.79-3.12-18.4-8.37c-2.05-2.33-4.69-5.98-4.18-9.12c-1.75-1.56-1.68-5.22-1.59-7.6
						c0.88-24.22,32.43-31.72,45.03-11.71c-0.55-3.14-2-6.01-3.59-8.74l-39.18-62.85l0.37-0.74c0.16-0.78,0.62-0.78,1.18-0.26
						l2.15,2.96c0.59-0.69,1.24-1.03,1.95-1.02l0.77-0.09l38.84,62.41c0.54,0.96,0.71,2.04,0.51,3.24c0.39,0.2,0.83,0.42,1.02,0.81
						c0.74,1.51,1.03,4.63,1.11,6.38c0.19,4.03-1.15,12.32-2.34,16.37c-1.07,3.62-2.4,6.59-4.78,9.55
						c-2.95,3.66-11.61,10.83-15.77,12.84c-2.09,1.01-5.44,2.6-7.48,1.51l-0.41,0.7c-28.44-0.42-57.02-1.22-85.76-2.39
						c-1.79,0.11-3.16-0.33-4.12-1.31c-4.75-1.03-9.48-2.37-13.44-5.46l-48.01-37.36l-43.63-34.05l-40.43-40.02
						c-3.43-3.4-3.52-8.56-1.53-12.67c3.57-7.35,6.95-14.32,10.95-21.45c6.71-11.97,14.08-23.29,22.19-34.29
						C86.93,158.28,89.38,157.15,92.03,156.67z"/>
					<path fill="#5A5A5A" d="M313.37,323.22l-0.77-0.02c-1.15-1.84-3.51-2.44-5.56-2.59l-0.43-0.71l-0.68-0.75
						c-0.88-16.6-24.41-15.84-24.23,0.77l-0.63,0.79c-1.14-0.29-2.34-0.1-3.6,0.57c0,0-1.05,0.75-3.16,2.26
						c-1.78-7.96,1.46-16.2,8.18-20.82c6.72-4.62,15.57-4.69,22.36-0.19C311.64,307.05,315.01,315.24,313.37,323.22z"/>
					<path fill="#8D8D8D" d="M281.06,320.71l0.8,0.59c2.9,13.64,21.95,13.03,23.98-0.77l0.76-0.64c2.73-0.03,6.04,1.24,6.76,3.33
						c-1.9,9.23-9.98,15.87-19.4,15.95c-9.42,0.08-17.61-6.43-19.66-15.62c0.16-2.18,3.57-3.4,6.38-3.92L281.06,320.71z"/>
					<g>
						<path fill="#010101" d="M306.61,319.9c-0.4,6.62-5.77,11.85-12.4,12.06s-12.33-4.66-13.14-11.24
							c-0.6-4.83,1.58-9.58,5.64-12.27c4.05-2.69,9.28-2.86,13.5-0.43C304.42,310.44,306.9,315.04,306.61,319.9z"/>
						<circle fill="#FEFEFE" cx="293.8" cy="319.09" r="9.28"/>
					</g>
				</g>
			</g>
			<g>
				<path fill="#000100" d="M555.41,188.63c1.75-0.37,2.43,2.79,0.77,3.46l-0.05,0.77c-28.48,10.56-56.87,21.37-85.18,32.41
					l-0.65-0.5c-2.01,0.49-4.88,0.23-3.19-2.34l4.95-2.37l26.25-9.97L555.41,188.63z"/>
				<path fill="#010101" d="M467.1,222.43c-0.09,0.63,0.05,1.09,0.26,1.39c0.87,1.24,2.24,0.19,2.93,0.95l-0.69,1.05
					c-4.99,2.31-8.9,6.33-12.13,10.71l-11,15.3l-0.81-0.07c-0.39-0.69-0.52-1.59-0.4-2.72c-0.67-0.32-0.99-0.75-0.95-1.3
					l10.56-14.93c1.32-1.87,2.85-3.57,4.67-4.89L467.1,222.43z"/>
				<path fill="#010101" d="M621.86,167.86c0.36,0.69,0.89,1.29,0.76,2.1c-0.09,0.54-0.71,1.07-1.11,1.59l0.1,0.46
					c-3.66,1.31-7.47,2.45-11.41,3.42l-0.59-0.57c-0.75-0.05-1.63-0.22-2.14-0.74c-0.55-0.56-0.53-1.48-0.36-2.24L621.86,167.86z"/>
				<path fill="#000101" d="M445.66,251.76c0.21,0.18,0.5,0.48,0.41,0.65c-1.05,1.87-3.14,4.95-4.47,6.61
					c-0.42,1.01-0.99,1.43-1.71,1.28l-1.48,0.62c-1.01-0.24-1.18-1.47-1.62-2.34l7.53-10.82c0.52,0.26,1.53,0.43,1.67,1.29
					C446.1,249.74,446.05,251.18,445.66,251.76z"/>
				<path fill="#4C4C4C" d="M670.39,233.54c-0.62,1.56-1.61,2.8-2.98,4.11l-36.73,34.88l-40.74,30.3l-50.48,37.3
					c-7.09,5.24-15.13,7.09-23.85,7.19l-76.9,0.95c-4.86,0.06-9.15-1.2-13.07-3.67c9.9,1.46,19.23-3.39,24.29-11.6
					c1.36-2.84,3.39-4.81,5.71-6.86c3.18-2.81,8.24-6.59,12.17-8.05c0.57-0.21,1.2-0.13,1.78-0.03c1.56,0.81,3.42,1.28,5.36,1.42
					l29.77,2.18c6.48,0.47,12.79,0.2,18.95-1.82c3.24-1.06,6.41-2.18,9.38-4l47.72-29.22l38.92-25.75
					c4.05-2.68,6.57-7.21,9.35-10.98c2.24-3.03,3.22-6.79,2.86-10.4c-0.25-2.49-1.17-4.71-2.13-6.78l-0.06-0.84
					c13.55-0.17,27.13-0.04,40.74,0.38L670.39,233.54z"/>
				<path fill="#1B1B1B" d="M533.54,216.1l-0.01,0.77c-8.61,3.67-17.16,7.44-25.64,11.31l-0.75-0.43l-0.96,1.23l-18.28,8.67
					c-4.02,2.21-7.73,4.94-11.07,8.08l-1.64,0.61l-0.32,1.31l-3.08,3.42c-3.37,4.95-6.49,10.02-9.37,15.21l-1.06,0.42l0.48,0.56
					l-7.63,12.79c-1.82,3.04-2.52,6.61-1.71,10.08l-0.47,0.98c0.38,1.26,0.97,2.56,1.82,3.79c3.48,5.07,6.46,10.18,9.19,15.72
					c1.55,3.14,3.53,5.87,6.53,7.45c-7.74,3.35-14.27,8.54-19.66,14.94c2.37-5.76,3.58-9.59,2.41-16.15
					c-2.34-13.09-15.29-21.26-28.19-18.52c-6.47,1.38-12.4,5.92-16.02,12.3c0.69-5.14,3.16-9.14,5.97-13.19l25.79-37.16l5.78-8.54
					l10.61-14.77c3.63-5.12,8.26-9.95,14.02-12.22l19.23-7.59l49.5-18.64l17.16-6.45l25.55-9.55l27.88-7.68l11.9-3.31l10.15-2.5
					l-12.09,19.6l-7.38,11.52l-1.62-2.24c-1.83-2.54-4.17-4.6-7.26-5.39c-8.81-2.25-18.18,0.73-26.5,4.4L533.54,216.1z"/>
				<path fill="#1B1B1B" d="M670.39,233.54c0.06,0.01,0.01-0.69-0.2-0.69l-39.57-0.48c-0.43-0.01-0.74,0.16-0.86,0.35
					c-4.78-10.28-10.21-20.22-16.17-30.03c1.16-0.51,1.83-1.17,2.43-2.15l18.67-30.07c0.43-0.68,0.48-1.4,1.17-1.71
					c1.73,0.43,3.36,1.22,4.55,2.95c12.11,17.62,22.15,36.39,29.99,56.3C671.19,229.97,671.04,231.86,670.39,233.54z"/>
				<path fill="#FDFEFD" d="M455.3,289.27c-1.92-1.11-0.72-4.57-0.01-6.38l8.31-14.32l0.82,0l-0.17-1.1
					c2.95-5.36,6.26-10.59,9.93-15.69c1.06-1.74,2.39-2.86,3.99-3.38c0.06-0.31,0.13-0.61,0.25-0.89c0.11-0.27,0.24-0.52,0.42-0.71
					c3.8-3.9,9.26-6.79,14.04-9.31l14.66-6.92l1.11,0.24l-0.06-0.74c9.16-4.07,18.33-8.13,27.5-12.2l0.67,0.47l45.98-20.14
					c9.48,13.19,17.55,26.78,24.63,41.2l9,19.78l-35.85,23.35l-49.04,29.99c-7.36,4.5-15.68,6.49-24.22,5.83l-32.5-2.52
					c-3.81-0.29-6.81-2.67-8.35-6.13c-2.48-5.57-5.27-10.74-8.95-15.62C456.37,292.6,455.74,290.91,455.3,289.27z"/>
				<g>
					<path fill="#010201" d="M635.98,165.14c-0.27,0.97-1.4,2.38-2.5,1.8l-2.43-1.29c-0.69,0.61-1.58,1.85-1.25,2.63
						c0.69,1.59,3.65-1.84,6.06,0.47c0.15,0.69-0.03,1.37-0.56,2.06l-18.69,30.1c-1.38,1.39-2.07,2.08-2.07,2.08
						c5.41,9,10.78,18.13,14.83,27.82l0.38,1.91c1.7,0.65,2.45,4.03,2.72,5.85c0.35,2.35,0.21,4.69-0.48,6.96
						c-1.3,4.3-6.79,11.42-10.11,14.55c-29.15,20.27-59.51,38.92-90.02,57.26c-6.49,3.23-13.65,5.2-20.95,5.24
						c-13.1-0.59-26.24-1.37-39.17-2.9c-1.3-0.16-2.02-0.69-2.17-1.59c-2.22,0.33-4.42-2.52-5.55-4.3
						c-3.51-6.83-7.39-13.46-11.62-19.9c-0.79-1.07-0.91-1.99-0.37-2.75c0.91-0.44,1.71-1.01,2.41-1.71l0.85-0.13
						c0.77,0.28,1.26,1.01,1.48,2.19c4.14,6.25,8.1,12.75,11.21,19.63c1.38,2.3,4.21,3.87,6.85,4.05l33.2,2.57
						c6.88,0.42,13.75-0.96,19.92-4.03c29.63-17.56,58.92-35.71,87.47-54.71c-8.76-20.55-19.45-41.2-32.81-59.94l-45.19,19.79
						l-0.68-0.47l-0.08-0.76c1.09-1.27,0.74-1.7-1.05-1.28c-0.88,1.77-3.26,1.37-2.1-0.2c-0.11-0.25-0.22-0.67-0.06-0.74
						c16.44-7.57,33.32-14.86,50.06-21.83c9.86-3.21,22.59-5.02,28.58,5.34c6.14-9.42,12.15-18.98,18.01-28.68l-7.95,1.93
						l-0.67-0.56c-0.31-0.52-0.16-1.09,0.43-1.71c-0.36-0.83-0.39-1.49-0.07-1.98l9.78-2.63
						C633.08,164.85,634.57,164.93,635.98,165.14z"/>
					<path fill="#7F8082" d="M626.95,235.29c3.94,8.6-1.79,14.75-7.82,21.14c-6.28-15.11-13.41-29.1-21.72-42.85l-10.93-16.48
						c7.16-2.08,16.59-3.63,20.99,2.58C614.83,211.14,621.28,222.92,626.95,235.29z"/>
				</g>
				<path fill="#010101" d="M536.77,218.34l-28.11,12.47c-2.25,0.37-3.85-1.52-1.52-3.07l8.2-3.74l18.2-7.9
					c-0.07,0.51,0.81,0.95,0.93,0.67c0.93-2.07,1.63-0.59,3.47-1.67C538.14,216.22,537.89,217.84,536.77,218.34z"/>
				<path fill="#010101" d="M464.41,268.57l-7.85,13.38c-1.37,2.33-1.93,4.83-1.26,7.32c-0.52,1.29-2.14,2.46-3.26,1.84
					c-1.14-3.8-0.55-7.86,1.57-11.41l7.76-13C462.73,264.91,464.99,266.65,464.41,268.57z"/>
				<g>
					<path fill="#020202" d="M607.11,171.88c0.46,0.23,0.72,0.78,0.77,1.65c0.8,0.34,1.38,0.79,1.73,1.34l-0.13,0.76l-27.54,7.58
						l-25.11,9.38l-0.65-0.51c0.51-1.3,0.22-2.54-0.77-3.46l25.33-9.55L607.11,171.88z"/>
					<path fill="#000100" d="M560.27,188.2c0.55-0.44,1.06-0.22,1.34,0.11c0.44,0.52,0.4,0.89-0.24,1.41
						c-0.33,0.26-0.54,0.33-1.04,0.01C559.77,189.37,559.4,188.9,560.27,188.2z"/>
				</g>
				<path fill="#020202" d="M507.14,227.75l-0.61,1.75l2.13,1.32l-14.73,6.95c-5.88,2.78-11.22,6.19-15.76,10.63l-0.77,0.21
					c-0.76-0.76-1.49-1.52-2.21-2.27c3.64-3.61,7.71-6.74,12.38-9.31L507.14,227.75z"/>
				<path fill="#010101" d="M478.17,248.4c-3.5,3.43-6.33,7.48-8.87,11.83l-4.88,8.34c-0.38-0.79-0.93-1.69-1.83-2.04l-1.21,0.17
					l7.15-12.15c1.86-3.16,4.21-5.76,6.68-8.21c0.49-0.17,1-0.03,1.43,0.43L478.17,248.4z"/>
				<g>
					<path fill="#010101" d="M526.77,349.86c-3.1,0.74-6.02,0.79-9.29,0.84l-77.01,0.99c-2.96,0.04-5.52-0.01-8.21-0.59
						c-0.22,0.13-0.44,0.25-0.68,0.33c-1.24,0.4-5.14-1.52-6.5-2.25c-3.28-1.79-8.51-6.21-11.3-8.97
						c-6.31-6.21-8.5-11.73-8.97-20.08c-1-4.24-1.74-11.92,0.56-15.75c0.21-0.36,0.66-0.52,1.05-0.67l1.95-4.25l28.4-40.89
						c0.65,0.04,1.17,0.57,1.57,1.57c0.68-0.41,1.19-0.36,1.53,0.16l0.44,0.6l-27.22,39.29c-0.81,0.49-3.43,6.77-3.16,6.5
						c4.81-4.87,7.93-7.97,15.04-9.23c10.01-1.76,20.45,3,25.42,11.91c3.95,7.1,4.47,16.92-0.48,23.63l0.03,1.24
						c-4.55,7.06-12.75,11.13-20.67,11.5c0,0,2.03,0.55,6.09,1.65c27.38-0.05,54.78-0.33,82.19-0.82c7.68-0.29,15.25-2.36,21.47-7
						l91.19-67.58l36.96-35.1l1.34-1.49c0.46-1.03,1.08-1.65,1.87-1.86c0.15-0.43,0.06-0.74-0.43-0.93
						c0.21-0.88,0.46-2.24,0.16-3.09c-6.99-19.93-18.77-40.9-30.91-58.19c-0.6-0.85-2.1-1.47-3.08-1.78l-0.27-0.8
						c-0.39,0.33-0.88,0.31-1.46-0.06c-1.58,0.11-3.13,0.25-4.66,0.42c-2.24-2.9,1.94-4.64,4.28-2.72c0.66-0.58,1.31-0.99,1.96-1.24
						c3.25,0.49,5.74,2.05,7.6,4.79c12.11,17.94,22.37,36.91,30.27,57.12c1.81,4.62-0.1,9.48-3.54,12.75l-31.47,29.97l-10.46,8.99
						l-53.04,39.32l-35.21,25.91C536.06,346.97,531.5,348.73,526.77,349.86z"/>
					<path fill="#595959" d="M448.61,326.34l-0.44-0.18c-1.16-1.96-3.12-3.08-5.88-3.37l-0.29-0.78l-0.68-0.73
						c-0.84-16.24-23.78-15.93-24.18,0.32l-0.66,0.75c-0.31,0.58-0.92,0.82-1.81,0.72c0,0-0.93,0.34-2.79,1.03
						c-0.73,0.79-1.46,1.14-2.19,1.05c-1.56-8.05,1.95-16.24,8.87-20.64s15.82-4.13,22.46,0.68S450.66,318.4,448.61,326.34z"/>
					<path fill="#8D8D8D" d="M416.47,322.36l0.78,0.61c2.44,13.98,21.93,13.72,23.99-0.32l0.76-0.63c3.24,0.62,7.17,1.99,6.61,4.32
						c-2.33,9.03-10.61,15.24-19.93,14.96c-9.32-0.28-17.21-6.99-18.99-16.14C411.24,323.14,413.95,322.06,416.47,322.36z"/>
					<g>
						<path fill="#010101" d="M442,322.02c-0.39,6.7-5.89,11.97-12.6,12.06s-12.36-5.03-12.92-11.72c-0.4-4.77,1.89-9.37,5.95-11.92
							s9.19-2.61,13.32-0.18S442.27,317.24,442,322.02z"/>
						<circle fill="#FDFDFD" cx="429.2" cy="321.28" r="9.28"/>
					</g>
				</g>
			</g>
			<g>
				<g>
					<path fill="#010101" d="M435.38,211.45c0.34,1.28,0.24,1.73-0.16,2.98c-0.85,2.63-1.87,5.19-3.25,7.59l-37.99,66.34l-4.02,5.38
						l-0.86-0.02c0.08,2.22-3.22,4.12-5.1,5.19c-5.71,3.24-17.36,6.45-23.78,6.06c-3.95-0.24-11.47-2.78-15.24-4.57
						c-3.89-1.85-8.73-4.71-11.18-8.36l-0.12-1.27l-0.76,0.09l-2.82-4.76l-33.61-67.95c0,0-0.85-2.53-2.54-7.58
						c-0.07-0.48,0.04-1.05,0.33-1.7c-1.07-4.82-1.21-9.47-0.43-14.42l4.93-31.28l7.55-46.57l5.55-34.2l14.27-53.93
						c0.92-3.49,4.2-7.38,7.97-7.8c22.31-2.47,44.62-1.98,66.81,1.14c4.75,0.67,7.88,4.07,9.27,8.43l4.08,17.73l9.03,37.41
						l6.29,54.14l6.68,54.79C436.99,200.26,437,205.78,435.38,211.45z"/>
					<path fill="#1F1F1F" d="M384.88,274.58c-0.52-10.22-2.84-20.4-9.84-28.44l-0.38-1.52l0.63-0.73c3.85-0.35,6.9-3.03,9.04-6.09
						l16.35-24.49c5.95-8.85,8.79-19.34,8.4-29.98l-4.35-91.72c-1.5-12.14-3.4-24.02-15.93-29.01c-13.8-2.05-28.76-2.39-42.98-1.31
						c-11.21,0.85-17.44,18.69-18.52,28.1c-3.24,31.71-6.19,63.38-8.87,95.01c-0.44,8.41,0.74,17.02,4.53,24.61l18.24,30.07
						c1.86,2.53,4.52,4.66,7.75,4.91l0.61,0.72l-0.14,1.03c-6.3,6.21-8.78,15.23-8.59,23.94l-0.41,2.55
						c-2.68,6.54-1.76,15.07,2.02,21.87c-4.01-2.66-6.58-6.19-8.65-10.36L301.6,219c-4-8.05-5.5-16.54-4.11-25.43l3.92-24.93
						l11.17-68.93l2.95-16.8l3.64-13.95l9.71-37.04l4.09,7.68c1.12,2.1,2.29,4.36,3.31,6.56l1.65,3.57l3.06,5.38
						c0.39,0.69,1.08,0.62,1.51,0.16c0.38-0.4-3.3-10.58-5.71-13.4c0.05-0.71-0.45-1.56-0.7-2.11l-2.03-4.38l-3.71-7.62
						c1.16-1.92,2.91-3.52,5.36-3.76c21.52-2.09,42.91-1.66,64.3,1.24c2.36,0.32,4.25,1.51,5.59,3.38l-14.38,26.03
						c-0.1,1.63-0.6,2.92-1.92,4.01c-0.6,0.36-1.02,1.84-0.18,2.12c1.15,0.38,2.17-1.26,2.2-2.18c0.05-1.7,1.23-2.01,2.22-2.75
						c1.94-1.47,2.52-4.04,3.66-6.01l5.24-9.09l4.58-8.28l6.4,27.2l6.17,26.15l2.45,20.77l3.9,32.7l6.67,53.54
						c1.3,10.41-0.14,19.8-5.37,28.92l-37.3,64.89c-2.12,3.68-5.11,6.62-8.6,8.86C385.43,289.02,386.86,281.81,384.88,274.58z"/>
					<path fill="#464646" d="M374.66,244.62c6.75,7.61,10.49,17.2,10.43,27.48c-0.01,0.98,0.45,1.89-0.22,2.49
						c-2.13-7.78-7.87-13.81-15.53-16.06c-11.93-3.51-24.31,2.42-28.93,13.71c-0.48-0.83-0.28-1.84-0.29-2.92
						c-0.07-6.97,1.38-13.7,5.13-19.52c1.29-2.01,2.65-3.79,4.3-5.08l0.32-0.7c8.12-0.03,16.24-0.06,24.36-0.08L374.66,244.62z"/>
					<path fill="#565655" d="M381.97,284.45l-0.99,0.09c-1.51-1.18-3.36-1.84-5.28-1.9l-0.64-0.7l-0.67-0.75
						c-0.53-15.9-22.85-16.49-24.22-0.64l-0.71,0.72l-0.35,0.77c-2.09,0.16-3.84,0.86-5.23,2.13c-0.12,0.77-0.44,1.24-0.95,1.4
						c-1.85-7.88,1.25-16.09,7.83-20.79c6.59-4.7,15.37-4.95,22.21-0.63C379.81,268.45,383.37,276.48,381.97,284.45z"/>
					<path fill="#8C8C8C" d="M349.46,281.25l0.74,0.66c1.62,14.47,21.72,15,24.09,0.64l0.77-0.62c2.43-0.07,4.9,0.71,6.91,2.52
						c-1.64,9.32-9.61,16.2-19.07,16.47c-9.46,0.27-17.81-6.15-19.97-15.37C342.51,282.73,346.02,281.79,349.46,281.25z"/>
					<g>
						<path fill="#010101" d="M374.66,244.62l-25.11,0.09c-4.25,0.01-7.7-3.07-9.84-6.58l-16.07-26.42
							c-5.2-8.56-6.66-19.44-5.79-29.4l3.19-36.32l5.49-56.23c0.64-6.59,3.82-15.95,7.58-21.3c2.91-4.14,7.11-7.56,12.43-7.94
							c11.56-0.84,22.87-0.39,34.4,0.29l8.03,1.13c5.64,2.12,9.78,6.02,12.16,11.45c2.99,6.79,4.12,13.75,4.47,21.25l2.62,56.39
							l1.5,31.45c0.54,11.22-2.23,21.87-8.48,31.23l-16.17,24.22C382.69,241.52,379,244.6,374.66,244.62z"/>
						<path fill="#FEFEFE" d="M370.76,241.6c-5.98-0.44-11.88-0.51-17.87-0.1c-4.27,0.29-7.83-1.51-10.02-5.15l-15.46-25.59
							c-4.85-8.03-6.83-17.37-6.03-26.71l3.54-41.38l3.37-33.32l2.62-24l21.62-1.58c16.39-0.58,32.51,0.67,48.75,3.09l0.76,8.46
							l2.33,47.91l1.69,43.44c0.34,8.73-2.53,16.96-7.3,24.08l-6.93,10.34l-9.97,14.96C379.36,239.82,375.4,241.94,370.76,241.6z"/>
						<path fill="#7E7F80" d="M400.42,83.22c-22.57-3.64-45.35-4-68.27-1.65c2.32-8.29,6.89-16.87,15.82-17.69
							c12.03-0.47,23.84-0.47,35.77,0.81c6.38,0.68,11.54,4.16,14,9.98C398.87,77.29,399.73,79.67,400.42,83.22z"/>
					</g>
					<g>
						<path fill="#020202" d="M375.06,281.93c-0.5,6.83-6.28,12.06-13.12,11.88c-6.84-0.18-12.34-5.71-12.48-12.55
							c-0.1-4.72,2.41-9.11,6.53-11.43c4.11-2.32,9.17-2.18,13.16,0.35C373.13,272.7,375.4,277.22,375.06,281.93z"/>
						<circle fill="#FEFEFE" cx="362.28" cy="280.96" r="9.29"/>
					</g>
				</g>
				<g>
					<path fill="#C4C5C7" d="M389.1,293.72c2.98,0.9,5.87,1.88,8.55,3.57l7.76,4.89c0.68,0.43,1.05,0.87,1.02,1.52
						c-2.42,5.26-2.23,10.69-0.92,16.29l1.02,7.78c1.73,5.57,5.2,10.24,9.9,13.65l3.51,3.18c3.57,3.24,7.61,5.47,12.32,6.49
						l0.72,12.44l-0.66,7.06c-5.14,0.82-9.84,2.98-13.67,6.7l-3.62,2.72c-6.75,5.08-10.76,12.52-10.62,21
						c-1.86,5.2-1.85,10.56-0.21,15.81c-0.53,0.17-0.95,0.46-1.48,0.81l-13.83,9.02c-0.39,0.25-0.58,0.49-0.62,1.01l-1.25-0.42
						c-3.85-4.61-9.01-7.89-14.95-8.95c-7.64-4.55-17.08-4.64-24.75-0.11c-4.34,1.12-8.3,3.36-11.62,6.35l-1.32,0.26
						c-0.9,0-1.64-0.25-2.46-0.62c-4.47-2.03-8.57-4.55-12.41-7.61l-2.62-2.3c1.57-5.89,1.09-11.88-1.08-17.65
						c-0.6-6.29-2.92-12.01-7.43-16.38l-6.87-6.16c-3.18-2.85-6.99-4.69-11.18-5.59c-1.91-6.31-1.93-12.96-0.98-19.55
						c5.24-0.61,9.9-3.2,13.77-6.6l3.96-3.48c5.68-4.09,9.36-10.16,10.24-17.15l1.09-5.6c0.98-5.01,0.95-9.85-0.8-14.63
						c-0.06-0.93,0.42-1.42,1.09-1.99c4.44-3.79,9.56-6.36,14.96-8.7c3.22,4.17,7.57,7.6,12.55,9.35l5.76,2.03
						c5.17,2.82,13.09,2.68,19.03,0.79l5.9-1.88C381.55,299.59,386.19,297.61,389.1,293.72z"/>
					<g>
						<circle fill="#010101" cx="361.12" cy="359.44" r="49.14"/>
						<circle fill="#C4C6C8" cx="361.12" cy="359.44" r="45.63"/>
						<path fill="#979799" d="M324.71,381.33c5.51,4.16,11,7.67,17.55,9.69c9.08,2.81,18.51,2.74,27.61,0.11
							c16.69-4.58,29.53-17.67,33.32-34.86c1.65,16.7-7.36,32.74-21.94,40.54c-7.69,4.12-15.83,5.74-24.59,5.04
							C343.47,400.41,331.63,392.95,324.71,381.33z"/>
						<path fill="#E7E8EA" d="M340.18,336.76c-9.83,6.86-10.74,13.69-13.72,15.13c-0.8,0.39-1.62-0.23-1.9-0.69
							c-0.36-0.59-0.81-1.55-0.61-2.53c4.09-19.63,22.1-31.76,41.85-28.77c1.39,0.21,2.52,1.13,3.04,1.91
							c0.73,1.11,0.97,2.65,0.2,3.78c-1.34,1.94-3.65,2.8-6.04,3.08C354.77,329.66,346.96,332.03,340.18,336.76z"/>
						<path fill="#E9EAEB" d="M381.46,324.39c2.91,1.82,7.09,5.54,5.91,7.76c-1.67,3.15-8.85-0.33-12.57-3.19
							c-1.04-0.8-1.26-2.23-0.94-3.3c0.3-1.03,0.95-2.24,2.28-2.49C377.98,322.83,379.88,323.41,381.46,324.39z"/>
					</g>
				</g>
				<g>
					<path fill="#010101" d="M310.74,476.05l0.52,0.53c-4.19,8.31-8.38,16.63-12.57,24.96l-1.05,0.52c0.24,0.14,0.57,0.35,0.53,0.55
						c-0.09,0.47-1.67,4.23-1.88,4.47l-0.83,0.17c0.32,0.67,0.48,1,0.48,1c-0.59,2.38-1.18,4.77-1.77,7.16l-0.8,0.31l0.48,1.1
						c-0.53,2.77-0.47,5.6-0.16,8.39c5.15,40.29,10.45,80.6,17.2,120.7c3.72,15.35,7.6,30.65,11.62,45.89
						c1.04,1.42,1.57,2.13,1.57,2.13c0.9,0.51,1.34,1.12,1.32,1.83c0.49-0.44,1.14-0.4,1.95,0.12c7.3,0.94,14.68,1.53,22.13,1.78
						c14.54,0.22,28.9-0.29,43.06-1.53c0.8-0.51,1.41-0.53,1.85-0.07c-0.05-0.69,0.35-1.28,1.23-1.77c0,0,0.5-0.68,1.5-2.04
						c5.36-18.16,10.24-36.68,14.62-55.54c5.59-35.87,10.7-71.63,15.34-107.28c2-11.52-1.86-22.05-7.22-31.7l0.4-0.77
						c0.66-0.67,1.31-0.28,1.95,1.17c0.55-1.07,1.19-1.51,1.91-1.34l4.64,9.61c2.74,7.26,3.78,14.93,2.74,22.7l-3.97,29.73
						l-9.6,67.29c-1.56,10.96-3.88,21.27-6.8,31.89l-9.4,34.18c-1.21,4.38-4.79,7.9-9.42,8.19l-25.37,1.59
						c-13.16,0.33-25.9-0.21-38.95-1.68c-4.42-0.5-8.57-3.46-9.72-7.9l-10.19-39.34L305,638.12l-5.48-37.02l-6.06-44.2l-3.84-28.46
						c-1.01-7.47-0.07-17.7,3.18-24.35l4.21-8.63l8.98-17.79c0.82,0.06,1.65,0.09,2.48,0.08l0.54-0.44
						C308.88,475.96,310.08,474.51,310.74,476.05z"/>
					<path fill="#010101" d="M424.1,496.78l-1.14,1.51c-0.15,0.23-0.5,0.57-0.69,0.6c-0.89,0.12-0.99-1.73-2.03-1.94l-0.74,0.1
						c-5.49-10.73-10.99-21.46-16.49-32.19l0.43-0.7c-0.52-2.16-1.7-5.59-2.94-6.92c-1.33-1.42-0.63-3.59,1.07-4.4L424.1,496.78z"/>
					<path fill="#010100" d="M316.24,464.83c0.23,0.15,0.56,0.41,0.49,0.59c-0.84,2.12-3.94,8.91-5.14,10.48l-0.86,0.15
						c-0.45-0.1-0.9,0.06-0.93,0.32l-0.13,1.16c-0.53,1.3-2.9,1.37-3.67,0.13l14.15-28.1c0.75-0.1,1.22,0.54,1.53,0.93
						c0.66,0.84,0.38,2.77-1.01,4.25l-1.48,3.45l-1.64,3.29L316.24,464.83z"/>
					<path fill="#1B1B1B" d="M403.44,464.16l16.79,32.78l3.63,7.24c3.94,7.87,5.08,16.47,3.89,25.32l-5.17,38.4l-8.42,58.67
						c-1.57,10.93-4.04,21.18-6.94,31.79l-8.98,32.83c-0.6,2.19-2.11,3.89-3.86,4.86l-0.74,0c-4.6-13.26-9.13-26.52-13.59-39.78
						l0.63-0.63l0.65-0.79c9.56-2.21,13.67-12.08,15.36-20.82c3.2-32.07,6.21-65.33,7.86-97.58c0.07-9.48-0.7-19.28-5.52-27.64
						l-0.12-1.58c-2-2.17-3.68-4.65-5.04-7.45l-10.04-16l0.37-0.73c-1.25-1.37-2.36-2.8-3.34-4.3c0.14-0.3,0.12-0.58-0.01-0.87
						c-0.4-0.89-2.47-2.74-3.34-3.49c-2.28-1.98-4.48-3.26-7.64-3.1c-7.47,1.09-15.01,0.79-22.47-0.03
						c-4.39-0.13-7.09,1.81-9.74,5.08l-16.08,26.28c-0.52,0.26-1.02,0.76-1.5,1.49l0.44,0.68c-2.72,4.45-4.63,9.17-5.73,14.16
						l-0.81,0.31c-0.44,0.13-0.95,0.05-1.53-0.24c-1.28,0.42-2.33,0.31-3.15-0.32c-0.17-1.31-0.83-2.04-2-2.19
						c-1.29,0.26-2.61,0.49-3.96,0.71c-2.9-0.73-5.76-0.88-8.58-0.45c-1.05,0.06-1.52-0.29-1.41-1.05l2.1-8.47
						c1.21,1.22,2.72-1.52,3.12-2.48c0.51-1.2,0.03-2.01-0.94-2.72l13.1-26l5.5-11.22l14.01-27.54c2.38-4.73,5.01-9.03,9.34-12.24
						c-4.5,7.6-4.86,16.93-0.4,24.52c6.86,11.67,22.09,15.13,33.13,7.82c11.13-7.36,14.03-22.08,6.34-33.48
						c4.25,2.37,7.2,5.87,9.31,10L403.44,464.16z"/>
					<path fill="#202020" d="M313.99,519.25l0.36,1.94c-1.08,6.34-1.21,12.79-0.8,19.19c1.82,29.67,4.14,59.17,6.94,88.51
						c1.08,9.99,5.07,24.8,16.87,25.8l0.67,0.77l0.6,0.44c-4.15,13.22-8.3,26.44-12.44,39.66l-0.8,0.2
						c-1.95-1.06-3.54-2.93-4.15-5.37l-11.05-44.35l-5.18-32.15l-4.18-29.22l-4.27-31.6l-3.45-26.73
						c-0.48-3.71-0.58-7.25,0.25-10.63c1.12,0.52,2.09,0.38,3.31,0.1c3.3-0.76,5.4,1.86,9.57,0.05c0.83-0.36,2.76,0.28,3.18,1.02
						c0.31,0.55,0.26,1.31,0.54,1.54C310.91,519.17,312.72,517.27,313.99,519.25z"/>
					<path fill="#202020" d="M295.46,507.24l2.18-5.19l1.08-0.26c1.06,1.43,0.98,2.99-0.18,4.32c-0.22,0.26-1.56,2.94-2.59,2.02
						C295.69,507.9,295.54,507.61,295.46,507.24z"/>
					<path fill="#010101" d="M384.21,483.05c-0.58,0.26-1.26,0.04-2.03-0.66c-0.09,0.95-0.23,2.12-1.33,1.81
						c-0.24,0.13-0.53,0.24-0.76,0.11c-0.26-0.14-3.2-4.5-2.33-5.04c0.04-0.65,0.73-0.91,2.06-0.78c0.13-1.76-2.01-1.71-3.09-0.66
						c-0.91-0.12-1.77-0.66-2.58-1.62c-1.17-0.49-1.93-1.15-2.27-1.99c-1.53-0.21-3.09-0.3-4.61,0.06l-0.9,0.56
						c-5.66,0.72-11.35,0.68-17.05-0.11c-4.55-0.16-6.15,0.24-8.97,3.95l-15.69,25.86l-0.82,0c-0.45-0.86-1.21-1.25-2.15-1.82
						c-0.45,0.5-0.84,1.13-1.62,1.36c0.18-0.46,0.34-0.93,0.68-1.49l15.13-24.88c3.57-5.88,7.7-7.88,14.51-6.97
						c6.08,0.81,11.84,0.74,17.91-0.06c6.59-0.87,10.39,2.93,13.55,8.33L384.21,483.05z"/>
					<path fill="#010101" d="M384.21,483.05l10.28,16.37l4.43,7.81c-0.86-0.38-1.45-1.15-2.04-1.98c-0.61,0.44-1.31,0.78-1.55,1.37
						c0.02,0.42,0.26,1.06,0.06,1.46l-0.77,0.09c-4.72-7.74-9.43-15.48-14.15-23.23l0.38-0.73c0.9-1.34,0.58-2.27,0.62-4.04
						C381.85,481.83,383.62,482.11,384.21,483.05z"/>
					<path fill="#FDFEFE" d="M367.28,474.3c1.5-0.37,3.09-0.27,4.61-0.06c1.93,0.7,3.61,1.88,4.85,3.61
						c0.87-0.59,1.71,0.72,1.03,1.44l3.09,4.93l14.54,23.86c1.88,3.56,3.82,7.25,4.73,11.4c1.51,6.85,1.73,13.47,1.38,20.57
						l-4.83,64.49l-2.33,25.48c-23.57,3.15-47.11,2.94-70.75-0.28l-2.92-30.47c-2.09-21.8-3.66-43.28-4.41-65.18
						c0.2-7.44,0.6-14.57,3.32-21.41l4.28-8.12l15.72-25.93c3.2-5.28,7.2-4.87,12.58-4.33C357.35,474.81,362.29,474.82,367.28,474.3
						z"/>
					<g>
						<path fill="#010101" d="M323.85,504.56l0.43,0.69c-5.25,8.43-7.78,18.5-7.33,28.84c1.41,32.12,4.16,64.38,7.29,95.17
							c-0.74,0.02-0.09-0.11,1.32,0.04c22.8,2.54,45.32,3.35,68.11,0.13c2.68-29.56,5.05-59.36,7.12-89.41
							c0.51-10.54-0.07-21.42-5.52-30.64l0.11-1.3c-0.79-1.89-0.65-2.85,1.56-3.4l1.97,2.55c3.14,5.09,5,10.79,5.7,16.95
							c0.58,5.1,0.81,10.02,0.53,15.15l-0.87,15.85l-5.23,63.23l-1.62,15.36c-0.92,8.66-7.23,20.96-16.75,21.88
							c-14.2,1.37-28.46,0.94-42.65-0.18c-4.02-0.32-7.38-1.41-10.14-4.75c-5.12-6.22-7.36-13.69-8.11-21.75l-2.83-30.26
							l-4.05-57.33c-0.54-7.58-0.37-14.85,1.08-22.12l1.69-6.57l4.41-8.58l1.5-1.94C322.79,502.38,324.53,503.25,323.85,504.56z"/>
						<path fill="#7E7F82" d="M380.4,652.13c-14.86,1.2-29.32,1.02-43.9-0.45c-2.35-0.14-4.08-1.22-5.58-2.94
							c-3.53-4.35-5.94-9.49-6.91-15.33c23.27,3.15,46.32,3.26,69.73,0.33c-0.86,6.02-3.56,11.27-7.53,15.53
							C384.62,650.85,382.92,651.87,380.4,652.13z"/>
					</g>
					<path fill="#010101" d="M377.76,479.28l-1.03-1.44c-0.03-0.86,0.7-1.39,1.32-1.5c1.25-0.22,2.75,1.24,2.65,1.99
						c-0.07,0.5-0.51,0.95-1.14,0.94L377.76,479.28z"/>
					<path fill="#1B1B1B" d="M371.88,474.23l-4.61,0.06C368.1,473.69,370.49,473.72,371.88,474.23z"/>
					<g>
						<path fill="#4C4C4C" d="M380.68,655.64c0.11,1.42,0.7,2.6,1.22,4.08l12.48,36.33c-0.77,0.43-1.66,0.88-2.71,0.93l-29.32,1.59
							c-11.41,0.11-22.43-0.63-33.72-1.7c-1.28-0.12-2.28-0.59-3.24-1.11l12.65-40.3l1.56-0.35c12.7,0.92,25.28,0.55,37.99,0.09
							C378.63,655.17,379.67,655.39,380.68,655.64z"/>
						<g>
							<circle fill="#010101" cx="360.75" cy="668.49" r="8.78"/>
							<circle fill="#212121" cx="360.73" cy="668.48" r="5.31"/>
						</g>
					</g>
					<g>
						<path fill="#010101" d="M388.3,427.67l3.43,5.64l9.84,19.53l0.1,0.47c-1.56,1.48-1.39,3.21,0.51,5.21l1.15,2.77
							c0.7,1.3,0.73,2.25,0.11,2.86l-0.74,0.1l-16.29-31.72c-1.46-2.46-3.34-4.66-5.62-6.4c8.2,15.41-1.96,34.5-19.59,35.72
							c-18.25,1.26-31.02-17.15-23.88-33.9c-1.88,1.92-3.41,4.13-4.74,6.45l-15.52,30.36l-0.82,0.06l-0.43-0.2
							c1.37-4.19,3.17-8.27,5.42-12.26c0.13-0.95-0.23-1.88-1.07-2.82l7.68-15.41c1.75-3.5,3.92-6.56,6.55-9.35
							c3.67-3.48,7.74-5.96,12.68-7.25c7.85-4.59,17.37-4.56,25.26,0.11C378.84,418.82,384.2,422.47,388.3,427.67z"/>
						<path fill="#565657" d="M378.98,442c-1.8-1.57-4.16-2.1-6.51-2.49l-0.29-0.77l-0.66-0.76c-0.44-16.49-23.78-16.46-24.18,0.03
							l-0.66,0.76l-0.32,0.78c-2.49,0.39-4.55,1.01-6.3,2.83c-1.95-8.01,1.22-16.39,7.98-21.11c6.76-4.72,15.72-4.8,22.56-0.22
							C377.44,425.63,380.77,433.95,378.98,442z"/>
						<path fill="#858587" d="M346.67,438.76l0.78,0.6c2.41,13.77,21.56,13.75,23.95-0.03l0.78-0.6c3.1,0.59,7.06,1.32,6.81,3.26
							c-2.02,9.07-10.03,15.55-19.32,15.64c-9.29,0.09-17.42-6.24-19.61-15.26C340.09,440.05,343.6,439.36,346.67,438.76z"/>
						<g>
							<path fill="#010101" d="M372.17,438.74c-0.57,6.61-6.1,11.7-12.74,11.7c-6.64,0.01-12.18-5.06-12.76-11.67
								c-0.42-4.82,1.9-9.47,6.02-12.01c4.12-2.54,9.31-2.55,13.43-0.01C370.24,429.27,372.58,433.92,372.17,438.74z"/>
							<circle fill="#FDFDFD" cx="359.39" cy="437.59" r="9.24"/>
						</g>
					</g>
				</g>
			</g>
		</g>
	</g>
</g>
</svg>
