<?xml version="1.0" encoding="iso-8859-1"?>
<!-- Generator: Adobe Illustrator 30.6.0, SVG Export Plug-In . SVG Version: 9.03 Build 0)  -->
<svg version="1.1" id="Layer_1" xmlns="http://www.w3.org/2000/svg" xmlns:xlink="http://www.w3.org/1999/xlink" x="0px" y="0px"
	 viewBox="0 0 1159 727" enable-background="new 0 0 1159 727" xml:space="preserve">
<g>
	<path fill="#939598" stroke="#231F20" stroke-miterlimit="10" d="M97.62,307.1l0.26-14.16c0.02-0.98-0.57-1.62-1.51-1.81
		l-11.66-0.62l-20.9-13.11l213.42,3.98c1.33-0.04,1.74,0.8,1.71,1.91l-0.49,26.76l-111.85-2.13l-0.02-5.9
		c-0.01-1.53-1.28-2.67-2.84-2.69l-14.55-0.13l-1.55,0.61l-16.3-0.34c-0.52-1.25-1.28-2.13-2.73-2.13l-8.16,0.03l-4.01,0.78
		c-0.96,0.19-1.61,1.29-2.73,1.24c-1.66-0.08-3.42,1.16-3.46,2.77l-0.11,5.09c-0.04,2.14,1.56,3.67,3.66,4.13
		c0.96,0.21,1.96,0.34,2.39,1.58l-18.94,7.36l0.37-13.44L97.62,307.1z"/>
	<path fill="#939598" stroke="#231F20" stroke-miterlimit="10" d="M508.87,454.8c1.65,6.94-0.21,13.22-2.39,19.59
		c-0.96,2.82-3.07,4.08-5.67,5c-5.31,1.88-10.44,1.39-15.26-1.66c-4.01-2.53-8.43-4.61-13.41-4.75l-126.93-3.41l-4.71-0.15
		l-38.97-0.84c-1.61-0.03-3.08,0.93-4.31,1.68c-2.48,1.5-4.91,2.43-7.63,3.36c-1.97,0.68-3.75,1.94-6.06,1.35l11.79-11.7
		c0.66-0.66,0.95-1.62,0.98-2.58l0.26-9.24c0.05-1.61-1.03-3.16-2.13-4.27l-5.14-5.2l-10.37-0.47c-1.06-0.05-1.97,0.54-2.66,1.25
		l-5.68,5.85l2.21-7.98c1.08-3.89,12.35-6.62,19.08-3.15l8.73,4.49c2.38,0.72,4.72,1.61,7.27,1.69l23.39,0.68l4.58,19.71
		c0.45,1.93,1.36,3.54,3.24,4.25c1.75,0.72,3.4,0.82,5.46,0.69l107.95-7.05c2.56-0.17,4.54-1.4,5.28-3.71l2.26-7.07
		c0.3-0.95,0.9-2.8,2.08-2.79l10.54,0.07c2.93,0.02,5.57-0.46,8.15-2.12l2.07,7.9c-3.99,8.7-0.35,16.9,8.37,20.46
		c0.21,1.49,0.3,2.97,1.34,4.04c1.19,1.23,3.6,1.26,4.82,0.09c1.1-1.06,1.06-2.92,1.67-4.12c2.2-1.64,4.69-2.7,6.35-4.99
		c3.36-4.63,3.65-10.48,1.74-15.86c-0.83-2.33-1.17-4.56-0.13-6.76L508.87,454.8z"/>
	<path fill="#939598" stroke="#231F20" stroke-miterlimit="10" d="M452.27,458.24l-93.06,5.88l-16.47,1.16
		c-1.51,0.06-2.88-0.8-3.23-2.33l-4.69-20.64l124.12,2.89c-0.96,1.52-1.91,2.89-2.31,4.61l-2.12,6.5
		C454.22,457.22,453.7,458.15,452.27,458.24z"/>
	<path fill="#939598" stroke="#231F20" stroke-miterlimit="10" d="M241.47,430.44c-3.68-3.25-8.69-3.65-12.78-1.24
		c-2.4,1.28-3.79,3.43-5.88,5.26l33.42-70.84l28.51,2.6l-26.07,55.69l-9.74,20.68C247.32,437.7,245.3,433.62,241.47,430.44z"/>
	<path fill="#939598" stroke="#231F20" stroke-miterlimit="10" d="M238.7,484.62c-3.54,2.7-8.09,2.39-11.41-0.3
		c-3.33-2.7-5.33-6.25-6.58-10.48c-3.17-10.67-2.73-22.3,1.31-32.7c1.43-3.68,3.48-6.92,6.43-9.21c3.64-2.82,8.11-2.77,11.57,0.08
		c2.27,1.87,3.94,4.17,5.16,6.89c5.1,11.4,4.5,26.83-0.63,38.21C243.22,480.06,241.37,482.58,238.7,484.62z"/>
	<path fill="#939598" stroke="#231F20" stroke-miterlimit="10" d="M418.71,295.91c0.7,1.09,1.4,1.8,2.44,2.61l-58.31,9.38
		l-16.31,2.59l14.66-20.51c5.23-2.36,4.28-8.22,7.65-8.74l16.06-2.44c1.69-0.26,2.94,0.2,3.89,1.53c2.39,3.34,6.29,7.18,10.22,6.59
		l9.18-1.38c2.07-0.31,3.92,0.12,5.07,1.91L418.71,295.91z"/>
	<polygon fill="#939598" stroke="#231F20" stroke-miterlimit="10" points="306.39,319.03 294.53,344 266.18,341.42 280.09,311.92 
		306.6,312.34 	"/>
	<path fill="#939598" stroke="#231F20" stroke-miterlimit="10" d="M335.86,429.93c-1.38,0.45-2.68,0.21-4.11,0.11
		c-1.16-1.83-2.84-2.99-5.04-3.09l-4.95-0.22l1-53.89l3.66-0.31c2.11-0.18,4.76,0.32,5.88,2.28c1.07,1.87-0.95,5.6,1.05,7.88
		c0.72,0.82,1.81,1.24,3.36,1.32L335.86,429.93z"/>
	
		<rect x="281.06" y="282.65" transform="matrix(0.9999 0.0168 -0.0168 0.9999 5.0344 -4.9071)" fill="#939598" stroke="#231F20" stroke-miterlimit="10" width="25.42" height="27.41"/>
	<path fill="#939598" stroke="#231F20" stroke-miterlimit="10" d="M328.77,292.32l-0.18,8.97l7.31,4.28
		c1.17,0.22,2.26-1.07,3.52-1.46l-1.49,5.48c-1.11,1.17-2.73,1.33-4.39,1.42l-23.15-0.35l0.47-28.37l22.86,0.41
		c1.51,0,2.86,0.35,4.14,1.01l7.77,5.02c-1.21,0.92-1.82,1.95-2.41,3.39l-6.6-3.97L328.77,292.32z"/>
	
		<rect x="89.89" y="293.06" transform="matrix(0.9998 0.0185 -0.0185 0.9998 6.3102 -1.651)" fill="#939598" stroke="#231F20" stroke-miterlimit="10" width="5.11" height="94.82"/>
	
		<rect x="308.93" y="467.51" transform="matrix(0.0191 -0.9998 0.9998 0.0191 -168.0062 788.1222)" fill="#939598" stroke="#231F20" stroke-miterlimit="10" width="17.48" height="24.36"/>
	<polygon fill="#939598" stroke="#231F20" stroke-miterlimit="10" points="397.1,483.5 397.05,490 380.95,489.7 357.36,477.44 
		334.66,476.96 334.78,471.47 360.81,472.12 377.97,481.36 381.61,483.24 	"/>
	<path fill="#939598" stroke="#231F20" stroke-miterlimit="10" d="M335.82,340.2c-0.22,1.21-0.14,2.65-1.03,3.42
		c-1.04,0.89-2.86,1.64-4.29,1.51l-7.21-0.66l0.64-29.79c4.21,3.2,8.89,4.97,13.99,4.45l-0.32,16.1
		C336.47,336.66,335.91,338.13,335.82,340.2z"/>
	<path fill="#939598" stroke="#231F20" stroke-miterlimit="10" d="M469.65,445.46c0.63,0,0.94,0.62,0.73,1.05l-8.65-0.03
		c-1.19,0-1.96,1.58-2.29,2.6l-2.61,8.12c-0.67,2.07-2.11,3.34-4.4,3.49l-84.7,5.37l-25.3,1.69c-3.08,0.21-4.85-1.68-5.48-4.39
		l-6.79-29.29c-0.36-1.53-1.18-3.83-2.73-3.92l-9.35-0.55c-0.26-0.02,0.01-0.88,0.54-0.86l8.8,0.31c1.58,0.06,2.89,1.55,3.27,3.09
		l3.53,14.37l3.84,16.4c0.75,3.2,3.13,3.78,6.11,3.58l42.66-2.91l65.72-4.1c1.57-0.1,2.6-1.07,3.06-2.42l2.87-8.58
		c0.43-1.29,1.44-3.05,2.9-3.04L469.65,445.46z"/>
	<path fill="#939598" stroke="#231F20" stroke-miterlimit="10" d="M340.35,310.95c-0.92-0.44-0.22-2.32,0-3.15l3.97-15.05
		l15.06-2.34l-14.62,20.44C343.4,311.03,341.82,311.54,340.35,310.95z"/>
	<path fill="#939598" stroke="#231F20" stroke-miterlimit="10" d="M422.81,442.17l-13.22-0.24l0.25-9.63
		c-0.05-1.55,1.01-2.56,2.54-2.81l7.34,0.1c1.2,0.28,2.33,0.67,3.15,1.63L422.81,442.17z"/>
	<path fill="#939598" stroke="#231F20" stroke-miterlimit="10" d="M423.33,484.82c0.35,3.48,0.16,6.68-1.01,5.62
		c-0.6-0.55-0.01-1.66-0.73-2.26l-0.29,2.24l-22.64-0.41l0.11-5.8l22.59,0.59c-0.18,0.83,0.33,1.86,0.68,1.65
		c0.38-0.23,0.38-0.91,0.32-1.11C422.25,485.04,422.94,484.55,423.33,484.82z"/>
	<polygon fill="#939598" stroke="#231F20" stroke-miterlimit="10" points="336.11,304.49 329.91,300.71 330.09,293.13 
		336.48,289.59 342.45,293.26 340.02,302.3 	"/>
	<path fill="#939598" stroke="#231F20" stroke-miterlimit="10" d="M328.35,432.82l2.44,9.25l-12.98-0.28l0.16-10.76l8.7,0.16
		C327.46,431.2,328.13,431.98,328.35,432.82z"/>
	<path fill="#939598" stroke="#231F20" stroke-miterlimit="10" d="M407.81,284.2l-8.42,1.34c-4.02,0.64-7.21-2.71-9.7-6.08
		c-1.1-1.49-2.61-2.18-4.53-1.89l-17.03,2.56c-1.05,0.16-2,0.99-2.41,1.83l-1.88,3.87c-0.93,1.92-2.72,3.05-4.86,3.3l-13.52,1.57
		c4.51-1.79,8.99-1.89,13.43-2.75c1.58-0.31,2.8-0.66,3.55-2.18l2.11-4.26c0.64-1.3,1.65-2.05,3.09-2.26l18.02-2.68
		c1.84-0.27,3.23,0.54,4.39,1.84l3.67,4.1c1.58,1.77,3.77,2.43,6.13,2.03l8.42-1.43c2.94-0.5,5.45,0.62,7,3.07l5.2,8.2
		c1.25,1.98,3.27,2.93,5.62,2.51l17.48-3.12c0.06,0.65-0.38,0.97-1.01,1.08l-16.67,2.96c-2.42,0.43-4.34,0.09-5.77-2.11l-5.94-9.14
		C412.79,284.41,410.41,283.78,407.81,284.2z"/>
	<path fill="#939598" stroke="#231F20" stroke-miterlimit="10" d="M424.04,429.44c-3.33-4.43-9.77-4.72-13.84-1.56
		c-4.28,3.32-4.99,9.59-1.68,13.84c-0.77,0.24-2.05,0.33-2.68-0.09c-3-5.2-1.62-11.75,3.03-15.46c4.46-3.56,11.11-3.43,15.51,0.52
		c4.22,3.77,5.37,10.4,2.11,15.37c-0.47,0.43-1.76,0.32-2.41,0.01C426.64,438.32,426.99,433.36,424.04,429.44z"/>
	<path fill="#939598" stroke="#231F20" stroke-miterlimit="10" d="M348.19,312.56c-7.13,5.14-15.31,6.35-22.36,0.68l6.63,0
		l5.68-0.71C341.21,314.78,344.02,312.53,348.19,312.56z"/>
	<path fill="#939598" stroke="#231F20" stroke-miterlimit="10" d="M212.1,473l-6.03,0.02c-0.5-2.51-0.66-5.06-0.03-7.72l6.14,0.1
		L212.1,473z"/>
	<path fill="#939598" stroke="#231F20" stroke-miterlimit="10" d="M358.9,286.64l-4.83,0.66c0.67-1.84,1.01-4.37,2.32-6.02
		c2.06-1.1,4.83-0.79,7.36-1.25l-2.17,4.52C361.08,285.58,360.23,286.46,358.9,286.64z"/>
	
		<rect x="254.9" y="456.15" transform="matrix(0.9998 0.0178 -0.0178 0.9998 8.4015 -4.4759)" fill="#939598" stroke="#231F20" stroke-miterlimit="10" width="1.49" height="27.16"/>
	
		<rect x="322.71" y="479.79" transform="matrix(0.0221 -0.9998 0.9998 0.0221 -155.8405 801.8174)" fill="#939598" stroke="#231F20" stroke-miterlimit="10" width="18.47" height="1.55"/>
	<path fill="#939598" stroke="#231F20" stroke-miterlimit="10" d="M410.87,482.32l-10-0.31c0.54-1.89,1.87-3.09,3.4-3.71
		c1.94-0.08,3.47,0.73,5.18,1.36C410.54,480.05,411.34,480.64,410.87,482.32z"/>
	<path fill="#939598" stroke="#231F20" stroke-miterlimit="10" d="M291.41,475.39c1.99-0.81,3.9-1.72,5.99-2.74l3.87-1.88l-0.02,5.3
		L291.41,475.39z"/>
	<path fill="#939598" stroke="#231F20" stroke-miterlimit="10" d="M219.1,475.97c-1.08,0.31-2.24,0.17-3.51,0.07l0.19-13.89
		c0.15-0.16,0.7-0.16,0.87,0.02C216.71,466.79,217.49,471.11,219.1,475.97z"/>
	
		<rect x="250.58" y="456.78" transform="matrix(0.9999 0.0153 -0.0153 0.9999 7.208 -3.7854)" fill="#939598" stroke="#231F20" stroke-miterlimit="10" width="1.23" height="25.56"/>
	<path fill="#939598" stroke="#231F20" stroke-miterlimit="10" d="M420.3,495.23c-2.6,1.72-6.04,1.46-8.41-0.54
		c-0.39-0.39-0.31-1.51-0.14-2.03l8.63,0.14C420.54,493.6,420.5,494.2,420.3,495.23z"/>
	
		<rect x="294.1" y="479.1" transform="matrix(0.0194 -0.9998 0.9998 0.0194 -182.3104 773.8666)" fill="#939598" stroke="#231F20" stroke-miterlimit="10" width="18.53" height="1.55"/>
	<path fill="#939598" stroke="#231F20" stroke-miterlimit="10" d="M417.85,477.29c-4.87,2.36-6.38,1.28-11.26-0.53
		c0.36-1.01,0.93-1.44,1.73-1.92c2.5,1.62,5.39,1.74,8.11,0.6C416.98,475.65,417.5,476.2,417.85,477.29z"/>
	<path fill="#939598" stroke="#231F20" stroke-miterlimit="10" d="M409.97,492.58c0.85,1.89-3.48,3.22-5.74,2.96
		c-1.75-0.2-3.24-1.32-3.21-3.11L409.97,492.58z"/>
	<path fill="#939598" stroke="#231F20" stroke-miterlimit="10" d="M412.52,482.41c-0.3-0.58-0.23-1.12,0.02-1.74l5.28-1.23
		c0.84-0.19,1.72,0.23,2.22,0.63c0.72,0.56,1.01,1.45,0.83,2.47L412.52,482.41z"/>
	
		<rect x="308.64" y="282.34" transform="matrix(0.9998 0.0187 -0.0187 0.9998 5.5992 -5.726)" fill="#939598" stroke="#231F20" stroke-miterlimit="10" width="0.71" height="28.4"/>
	<path fill="#939598" stroke="#231F20" stroke-miterlimit="10" d="M335.76,431.44l-0.18,8.36c-0.01,0.36-0.47,0.47-0.67,0.34
		c-0.14-0.09-0.28-0.26-0.37-0.6l-2.15-8.05L335.76,431.44z"/>
	<path fill="#939598" stroke="#231F20" stroke-miterlimit="10" d="M428.85,489.94c-1.48,0.42-2.72,0.14-4.12,0.12l0.1-4.1
		c1.23,0.12,2.81-0.33,3.88,0.28C429.56,486.91,429.29,488.79,428.85,489.94z"/>
	<path fill="#939598" stroke="#231F20" stroke-miterlimit="10" d="M254.15,458.34l-0.51,23.93l-0.64-0.01l0.44-25.55
		C254.18,456.93,254.17,457.44,254.15,458.34z"/>
	
		<rect x="206.26" y="461.35" transform="matrix(0.9998 0.0187 -0.0187 0.9998 8.6893 -3.8319)" fill="#939598" stroke="#231F20" stroke-miterlimit="10" width="5.98" height="2.76"/>
	<path fill="#939598" stroke="#231F20" stroke-miterlimit="10" d="M415.98,497.85c-1.7,1.07-3.87,0.62-6.02,0.61
		c-1.76-0.01-3.4-0.02-4.76-1.23c2.16-0.31,3.68-0.9,5.46-1.86C411.95,497.1,413.62,497.32,415.98,497.85z"/>
	<path fill="#939598" stroke="#231F20" stroke-miterlimit="10" d="M211.94,476.92l-5.7-0.12c-0.32-0.98-0.34-1.83-0.12-2.7
		l5.83,0.15C212.11,475.16,212.15,475.7,211.94,476.92z"/>
	<path fill="#939598" stroke="#231F20" stroke-miterlimit="10" d="M204.76,474.96c-0.51,0.03-1.8-0.77-1.68-1.44
		c0.54-3.06,0.54-5.82,0.07-8.89c0.18-0.59,1.24-1.21,2-1.32c-0.51,2.63-0.68,5.05-0.56,7.74L204.76,474.96z"/>
	<path fill="#939598" stroke="#231F20" stroke-miterlimit="10" d="M464.51,348.72c-0.7,0.17-0.87-0.63-0.88-1.37l-0.04-13.7
		l0.66-0.24L464.51,348.72z"/>
	<path fill="#939598" stroke="#231F20" stroke-miterlimit="10" d="M214.64,462.12l-0.61,14.38c-0.78-4.91-0.23-9.56-0.31-14.29
		C213.92,462.06,214.33,461.98,214.64,462.12z"/>
	<path fill="#939598" stroke="#231F20" stroke-miterlimit="10" d="M257.93,483.05c-0.3-0.2-0.22,0.16-0.01,0.35
		c-0.49,0.01-0.71-0.12-0.71-0.43l0.51-26.83c0.41-0.26,1.05,0.15,1.04,0.69l-0.48,25.82C258.29,482.94,258.06,483.07,257.93,483.05
		z"/>
	
		<rect x="244.51" y="469.74" transform="matrix(0.0187 -0.9998 0.9998 0.0187 -216.6637 719.0786)" fill="#939598" stroke="#231F20" stroke-miterlimit="10" width="26.98" height="0.35"/>
	<path fill="#939598" stroke="#231F20" stroke-miterlimit="10" d="M414.49,473.58c0.5,0,0.78,0.32,0.79,0.53
		c0.03,0.8-4.21,1.62-6.42-0.5L414.49,473.58z"/>
	<path fill="#939598" stroke="#231F20" stroke-miterlimit="10" d="M428.73,484.79l-3.85-0.01l0.06-1.73
		c1.22,0.01,2.39-0.16,3.69,0.17C428.96,483.31,429.09,484.28,428.73,484.79z"/>
	<path fill="#939598" stroke="#231F20" stroke-miterlimit="10" d="M248.79,476.5c-0.03,0.41-1.24,0.48-1.65,0.19l1.62-4.89
		C249.08,473.38,248.91,474.6,248.79,476.5z"/>
	<path fill="#939598" stroke="#231F20" stroke-miterlimit="10" d="M430.06,484.78c1.42,0.71,1.35,5.41-0.13,6.2
		C430.41,488.76,430.32,487,430.06,484.78z"/>
	
		<rect x="424.73" y="491.22" transform="matrix(0.9998 0.0174 -0.0174 0.9998 8.6107 -7.3407)" fill="#939598" stroke="#231F20" stroke-miterlimit="10" width="3.96" height="1.17"/>
	<path fill="#939598" stroke="#231F20" stroke-miterlimit="10" d="M422.52,492.11c1,0.44,1,4.43-0.02,5.45L422.52,492.11z"/>
	<path fill="#939598" stroke="#231F20" stroke-miterlimit="10" d="M202.28,471.4c-0.57-1.45-1.05-3.19,0.03-4.79
		C202.61,468.23,202.5,469.67,202.28,471.4z"/>
	
		<rect x="422.7" y="479.39" transform="matrix(0.9998 0.0187 -0.0187 0.9998 9.0748 -7.8266)" fill="#939598" stroke="#231F20" stroke-miterlimit="10" width="0.71" height="3.9"/>
	<path fill="#939598" stroke="#231F20" stroke-miterlimit="10" d="M455.59,400.12c-0.74-1-0.69-2.7-0.06-4.19
		C456.14,397.32,455.96,398.43,455.59,400.12z"/>
	
		<rect x="398.31" y="492.43" transform="matrix(0.9998 0.0187 -0.0187 0.9998 9.311 -7.3684)" fill="#939598" stroke="#231F20" stroke-miterlimit="10" width="0.71" height="3.55"/>
	<path fill="#939598" stroke="#231F20" stroke-miterlimit="10" d="M398.85,482.38c-0.66-1.26-0.03-2.37,0.31-3.45
		C399.32,480.08,399.6,481.08,398.85,482.38z"/>
	<path fill="#939598" stroke="#231F20" stroke-miterlimit="10" d="M475.59,400.04l-11.79,0.1c-0.54-1.18-0.54-2.37-0.24-3.7
		l11.84-0.18C475.87,397.38,475.95,398.47,475.59,400.04z"/>
	<path fill="#939598" stroke="#231F20" stroke-miterlimit="10" d="M473.18,341.39c-2.29-0.15-4.4,0.78-6.63,0.22
		c-0.56-0.14-0.62-1.95-0.03-2.05l14-0.42c0.21,1.17,0.24,1.88,0.12,2.73L473.18,341.39z"/>
	<path fill="#939598" stroke="#231F20" stroke-miterlimit="10" d="M473.74,381.23c-2.6,0-4.83,0.69-7.22,0.19
		c-0.75-0.16-0.78-2.06-0.04-2.07l13.68-0.22c0.53-0.01,0.69,1.83,0.24,2.06C478.44,381.77,476.06,381.22,473.74,381.23z"/>
	<path fill="#939598" stroke="#231F20" stroke-miterlimit="10" d="M466.52,348.99c0.75-0.33,2.54-0.38,3.31-0.09
		c3.87,2.99,5.64-0.42,10.46,0.1c0.51,0.05,0.51,1.24,0.2,1.6c-0.26,0.3-0.72,0.49-1.42,0.49l-12.35,0.06
		C466.04,351.16,465.8,349.31,466.52,348.99z"/>
	<path fill="#939598" stroke="#231F20" stroke-miterlimit="10" d="M475.25,348.19c-1.49,0.9-3.05,0.69-4.09-0.61
		c-0.82-1.03-1.08-2.68,0.17-3.82c0.57,0.53,0.8,0.93,1.57,1.06c0.1-0.8-0.15-1.18-0.35-1.89c1.25-0.42,2.49-0.05,3.33,0.78
		c0.82,0.81,1.14,2.29,0.28,3.23c-0.37-0.6-1.5-0.93-1.62-0.51C474.36,347.07,474.89,347.6,475.25,348.19z"/>
	<path fill="#939598" stroke="#231F20" stroke-miterlimit="10" d="M474.87,387.61c-0.74,0.98-2.96,0.71-3.69-0.62
		c-0.6-1.11-1.36-2.57,0.12-3.68c0.32,0.52,0.82,1.17,1.53,0.98c0.09-0.36-0.16-1.26,0.16-1.73c1.18-0.24,2.36,0.01,3,0.76
		c0.78,0.92,1.1,2.21,0.22,3.34c-0.39-0.3-1.15-0.85-1.56-0.72C473.79,386.23,474.85,387.19,474.87,387.61z"/>
	<path fill="#939598" stroke="#231F20" stroke-miterlimit="10" d="M460.32,400.01c-0.47,0.81-2.52,0.8-3.1,0.14
		c-0.73-0.84-0.74-2.77-0.01-3.64c0.53-0.63,2.56-0.65,3.05,0.01C460.86,397.29,460.91,399,460.32,400.01z"/>
	<path fill="#939598" stroke="#231F20" stroke-miterlimit="10" d="M469.14,347.3c-0.02,0.32-1.39,0.26-1.42-0.1
		c-0.11-1.23-0.22-2.56,0.12-3.8c0.15-0.55,1.49-0.55,1.89-0.29C469.12,344.53,469.2,345.71,469.14,347.3z"/>
	<path fill="#939598" stroke="#231F20" stroke-miterlimit="10" d="M469.39,386.9c-0.46,0.44-1.15,0.41-1.79,0.04
		c-0.28-1.15-0.39-2.58,0.2-3.72c0.22-0.41,1.36-0.38,1.75-0.21C469.32,384.3,469.02,385.19,469.39,386.9z"/>
	<path fill="#939598" stroke="#231F20" stroke-miterlimit="10" d="M481.74,381.83c1.3,0.5,0.92,5.57,0.4,8.63L481.74,381.83z"/>
	<path fill="#939598" stroke="#231F20" stroke-miterlimit="10" d="M479.11,343.16c0.36,1.63,0.41,3.53-0.24,4.36
		c-0.19,0.24-0.96,0.2-0.97-0.02c-0.04-1.45-0.09-2.93-0.73-4.37C477.7,342.86,478.75,342.82,479.11,343.16z"/>
	<path fill="#939598" stroke="#231F20" stroke-miterlimit="10" d="M464.31,393.49l-0.4-3.54l0.04-7.09c0-0.29,0.39-0.66,0.74-0.65
		L464.31,393.49z"/>
	<path fill="#939598" stroke="#231F20" stroke-miterlimit="10" d="M479.07,387.27c-0.09,0.25-1.04,0.28-1.3,0.08
		c0.18-1.57,0.06-2.94-0.26-4.49c0.6-0.11,1.06-0.11,1.71-0.02C479.3,384.32,479.42,385.58,479.07,387.27z"/>
	<path fill="#939598" stroke="#231F20" stroke-miterlimit="10" d="M484.49,459.62c-0.74,0.11-1.31,0.08-2.01-0.06
		c0.19-1.32,0.35-2.32,0.88-3.63C484.07,456.98,484.19,458.16,484.49,459.62z"/>
	
		<rect x="477.36" y="344.61" transform="matrix(0.0187 -0.9998 0.9998 0.0187 128.4935 820.4908)" fill="#939598" stroke="#231F20" stroke-miterlimit="10" width="9.76" height="0.35"/>
	<path fill="#939598" stroke="#231F20" stroke-miterlimit="10" d="M480.35,343.02c0.96,0.37,0.99,3.53,0.05,4.55L480.35,343.02z"/>
	
		<rect x="457.52" y="401.73" transform="matrix(0.9994 -0.034 0.034 0.9994 -13.4267 15.8587)" fill="#939598" stroke="#231F20" stroke-miterlimit="10" width="2.84" height="0.9"/>
	<path fill="#939598" stroke="#231F20" stroke-miterlimit="10" d="M466.22,387.57c-0.57-1.45-1.05-3.19,0.03-4.79
		C466.55,384.4,466.44,385.85,466.22,387.57z"/>
	
		<rect x="456.99" y="394.14" transform="matrix(0.9998 0.0187 -0.0187 0.9998 7.457 -8.5095)" fill="#939598" stroke="#231F20" stroke-miterlimit="10" width="3.55" height="0.71"/>
	
		<rect x="458.6" y="398.2" transform="matrix(0.0187 -0.9998 0.9998 0.0187 55.1164 852.9068)" fill="#939598" stroke="#231F20" stroke-miterlimit="10" width="6.92" height="0.35"/>
	<path fill="#939598" stroke="#231F20" stroke-miterlimit="10" d="M448.29,376.9c-0.67,0.06-1.54-0.26-1.54-0.77l0-21.97l20.44-0.15
		l3.33-0.79l13.9,0.11l43.82-0.28c1.38-0.01,2.57-0.8,3.91-0.34l0.15,24.22l-15.03-0.23l-48.21,0.3c-1.27-0.38-2.32-0.42-3.6-0.39
		L448.29,376.9z"/>
	<path fill="#939598" stroke="#231F20" stroke-miterlimit="10" d="M501.53,446.69c-0.22,2.61-2.25,4.36-4.79,4.32
		c-4.61-0.08-8.36,1.9-10.51,6.54l-15.18-52.71l32.55,2.48c3.49,0.27,5.36,3.79,4.35,6.82L501.53,446.69z"/>
	<path fill="#939598" stroke="#231F20" stroke-miterlimit="10" d="M500.19,459.88c-1.16-4.91-5.79-2.63-4.08-7.75
		c2.71,0.02,5.8-0.97,6.39-3.92l6.63-33.23c0.44-2.19,0.67-4.18-0.67-6.09c-1.01-1.45-2.99-2.72-5.26-2.89l-35.98-2.64
		c-0.53-0.04-0.84-0.05-1.22-0.3c-0.22-0.14-0.25-0.94,0.02-0.95l6.8-0.1c4.83-0.07,10.68-0.11,11-3.7
		c0.12-1.41-0.69-2.85-2.24-3.12l-5.76-0.99l-9.56-0.18c-0.22,0-0.2-1.24,0.02-1.24l16.99,0.18c1.94-0.51,3.72-0.38,5.4,0.78
		l38.89,3.56c1.87,0.17,3.11-1.77,4.52-2.22l14.88-0.29c0.15,1.63,0.2,2.87-0.09,4.37l-17.89,4.15c-4.05,0.94-7.8,2.29-11.07,4.82
		c-3.07,2.38-5.9,5.36-6.73,9.24l-4.9,22.83l-3.36,19.71C501.99,460.22,501.15,460.13,500.19,459.88z"/>
	<path fill="#939598" stroke="#231F20" stroke-miterlimit="10" d="M486.93,331.13l-20.9,2.44c1.08-2.23,1.18-4.48-0.62-6.12
		l-2.88-3.04c5-1.03,8.99-4.16,11.96-8.62l29.93,1.9c2.69,0.17,3.76,1.8,4.23,4.06c0.73,3.52-0.82,7.1-4.7,7.53L486.93,331.13z"/>
	<path fill="#939598" stroke="#231F20" stroke-miterlimit="10" d="M501.16,284.79c1.61,3.16,1.75,8.75-1.87,8.98l-25.01,1.6
		c-1.85-3.07-4.24-5.08-7.27-6.94l13.56-13.47c1.51-1.77,2.33-3.61,2.74-5.94c1.13-6.47,7.37-11.05,13.93-9.52
		c6.13,1.44,10.04,7.57,9.22,13.67l-0.95,4.11l-1.49-8.32c-1.37-4.86-6.09-7.78-10.98-6.98c-4.85,0.8-8.37,5.39-7.92,10.48
		c0.46,5.14,4.38,8.68,9.52,8.76C497.23,281.28,499.89,282.31,501.16,284.79z"/>
	<path fill="#939598" stroke="#231F20" stroke-miterlimit="10" d="M531.27,346.12l-43.58,0.51l0.25-6.59
		c0.03-0.8,0.55-2.19,1.58-2.3l37.09-3.88c1.85-0.19,4.44,0.95,4.47,2.73L531.27,346.12z"/>
	<path fill="#939598" stroke="#231F20" stroke-miterlimit="10" d="M526.71,396.06l-37.3-3.51c-0.63-0.06-1.3-0.62-1.31-1.18
		l-0.13-7.34l42.32-0.36c0.69-0.01,1.2,0.52,1.19,1.17l-0.17,8.04C531.27,394.81,528.87,396.27,526.71,396.06z"/>
	<path fill="#939598" stroke="#231F20" stroke-miterlimit="10" d="M506.94,265.29c-2.63-5.67-8.32-8.77-14.37-7.86
		c-5.75,0.86-10.25,5.26-11.34,11.4c-0.22,1.23-0.63,2.81-1.55,3.76l-14.75,15.03c-1.39-0.18-2.57-0.51-3.84-1.09l6.57-6.25
		c1.2-1.14,2.31-3.78,2.28-5.58l-3.52-10.82c5.03-0.55,9.94-2.02,13.76-5.26c2.6-2.21,5-4.34,8.14-5.67
		c4.02-1.7,8.01-1.7,12.11-0.36c2.24,0.73,3.88,1.83,4.71,4.25l3.04,8.86c1.05,3.07,1.33,6.12,1.02,9.36l-0.69,7.11
		c-0.13,1.32-0.12,2.49-0.72,3.65c-1.39-2.93-1.24-5.71-0.25-8.56C508.9,273.31,508.76,269.24,506.94,265.29z"/>
	<path fill="#939598" stroke="#231F20" stroke-miterlimit="10" d="M507.14,313.4l0.52,3.99c-1.2-0.52-2.29-0.94-3.7-1.03l-28.8-1.79
		c2.82-5.25,2.89-11.18,0.51-16.53c-0.19-0.43-0.21-0.96,0.01-1.21c0.22-0.25,0.7-0.44,1.18-0.47l21.7-1.3
		c1.89-0.11,3.31-0.7,4.43-2.54c0.61,1.78,0.84,3.41,0.82,5.1c-0.04,2.61-1.82,3.82-4.27,3.97l-19.04,1.13
		c-1.51,0.09-2.49,1.59-2.55,2.85c-0.06,1.48,1.26,2.78,2.89,2.86l22.82,1.01C505.46,309.53,506.94,311.87,507.14,313.4z"/>
	
		<rect x="533.5" y="350.6" transform="matrix(1 -4.291280e-03 4.291280e-03 1 -1.5599 2.3225)" fill="#939598" stroke="#231F20" stroke-miterlimit="10" width="13.85" height="28.12"/>
	<path fill="#939598" stroke="#231F20" stroke-miterlimit="10" d="M564.51,382.29c-0.95-0.26-2.68-1.28-2.69-2.4l-0.11-31.08
		c0.61-1.7,2.92-2.55,4.43-3.04l5.03-1.61l-0.22,39.91L564.51,382.29z"/>
	<path fill="#939598" stroke="#231F20" stroke-miterlimit="10" d="M559,391.03c-0.03,3.29-0.65,6.3-0.02,9.69l-4.2-0.03l0.19-68.96
		c0.84-0.91,3.55-0.82,4.04-0.52c0.31,0.19,0.56,0.72,0.55,1.35l-0.29,27.96L559,391.03z"/>
	<path fill="#939598" stroke="#231F20" stroke-miterlimit="10" d="M564.67,316.66l-0.1,1.6l-3.01-0.11l-0.19-11.1
		c-0.02-1.32-2.03-2.01-3.31-2.01l-31.92-0.04c-1.44,0-2.66-1.16-2.66-2.6l0.06-39.58c0-1.03,3.2-0.98,3.32-0.12l0.11,33.27
		c-1.1,1.18-1.09,2.34-0.73,3.75c0.28,1.1,1.34,2.59,2.93,2.59l33.52,0.11c1.03,0,1.67,0.55,1.71,1.47l0.27,5.84
		C565.29,312.02,565.83,314.26,564.67,316.66z"/>
	<path fill="#939598" stroke="#231F20" stroke-miterlimit="10" d="M526.91,429.7l-0.08,36.12c-1.18,0.47-3.08,0.36-3.08-0.92
		l0.11-38.92l3.27-1.94l30.47-0.33c2.31-0.03,3.87-1.71,3.87-3.93l-0.03-10.58l4.12-0.11l-0.04,6.56l-0.85,1.97l0.11,6.6
		c0.01,0.8-0.56,2.13-1.57,2.15l-34.27,0.47C527.8,426.85,526.91,428.42,526.91,429.7z"/>
	<path fill="#939598" stroke="#231F20" stroke-miterlimit="10" d="M526.96,324.79c-7.59-1.42-13-7.12-15.02-14.26l-1.34-6.51
		l33.43,23.96L526.96,324.79z"/>
	<path fill="#939598" stroke="#231F20" stroke-miterlimit="10" d="M552.33,394.38c-0.14-2.44-1.55-4.2-2.86-6.09l-0.21-47.86
		c1.31-0.58,2.97-1.1,3.02-2.6l0.2-5.84c0.01-0.37,0.09-0.71,0.28-0.83c0.14-0.09,0.51-0.06,0.7,0.09c0.14,0.11,0.13,0.35,0.13,0.83
		l-0.07,66.97c0,0.82-0.07,1.27-0.84,1.5L552.33,394.38z"/>
	<path fill="#939598" stroke="#231F20" stroke-miterlimit="10" d="M510.73,426l1.14-6.4c0.44-2.49,1.46-4.68,3-6.68
		c3.37-4.27,8.03-6.97,13.36-8.22l15.79-3.21l-26.46,19.28L510.73,426z"/>
	<path fill="#939598" stroke="#231F20" stroke-miterlimit="10" d="M487.72,382.83c-1.58-2.45-4.27-0.9-4.58-2.63
		c-0.14-0.82,0.45-1.28,1.52-1.29l46.05-0.31c0.55,1.36,0.48,2.53-0.15,3.79L487.72,382.83z"/>
	<path fill="#939598" stroke="#231F20" stroke-miterlimit="10" d="M483.9,351.34c-0.98,0.01-0.82-1.01-0.52-1.56
		c0.77-1.41,2.28-0.71,4.07-1.98l43.09-0.35c0.77,1.09,0.64,2.34,0.12,3.53L483.9,351.34z"/>
	<path fill="#939598" stroke="#231F20" stroke-miterlimit="10" d="M573.82,400.18c-1.1-2.85-3.38-4.64-6.55-3.94l-0.08-5.78
		l5.89,0.11c1.01-0.97,1.37-2.2,1.91-3.43l4.21,0.05l-0.07,12.78L573.82,400.18z"/>
	
		<rect x="518.26" y="264.61" transform="matrix(1 -6.120536e-03 6.120536e-03 1 -1.6973 3.1893)" fill="#939598" stroke="#231F20" stroke-miterlimit="10" width="3.94" height="28.58"/>
	
		<rect x="513.85" y="262.17" transform="matrix(1 -4.677360e-03 4.677360e-03 1 -1.2989 2.4141)" fill="#939598" stroke="#231F20" stroke-miterlimit="10" width="3.24" height="33.45"/>
	<path fill="#939598" stroke="#231F20" stroke-miterlimit="10" d="M517.44,463.9c0,1.2-0.32,1.85-1.08,2.13
		c-0.57,0.21-2.07,0.07-2.07-0.93l0.01-31.33l3.24,0.01L517.44,463.9z"/>
	
		<rect x="518.76" y="436.47" transform="matrix(1 -1.588680e-03 1.588680e-03 1 -0.7144 0.8277)" fill="#939598" stroke="#231F20" stroke-miterlimit="10" width="3.81" height="27.24"/>
	<polygon fill="#939598" stroke="#231F20" stroke-miterlimit="10" points="563.14,329.12 551.94,329.14 551.87,320.65 563,320.34 	
		"/>
	<path fill="#939598" stroke="#231F20" stroke-miterlimit="10" d="M522.13,309.22c-1.3-0.47-2.39-1.63-3.75-2.56l-0.03-12.24l3.89,0
		L522.13,309.22z"/>
	<polygon fill="#939598" stroke="#231F20" stroke-miterlimit="10" points="522.56,434.97 518.74,434.99 518.89,422.66 
		522.57,420.01 	"/>
	<path fill="#939598" stroke="#231F20" stroke-miterlimit="10" d="M570.93,388.39l-7.32-0.05c-1.29-0.01-2.28,0.13-3.61,0.7
		l0.17-7.29c1.69,1.87,3.79,2.75,6.13,3.27l4.12,0.92C570.93,386.52,571.12,387.18,570.93,388.39z"/>
	<path fill="#939598" stroke="#231F20" stroke-miterlimit="10" d="M563.15,406.67l-10.49-0.13c-0.35-1.2-0.27-2.25-0.17-3.55
		l10.67-0.34C563.61,403.81,563.56,405.02,563.15,406.67z"/>
	<path fill="#939598" stroke="#231F20" stroke-miterlimit="10" d="M565.39,399.95c-1.54,0.48-2.7,0.41-4.28,0.31l0.02-7.02
		c0-1.03,0.4-1.88,1.04-2.34c0.72-0.51,2.2-0.75,2.91-0.15L565.39,399.95z"/>
	<path fill="#939598" stroke="#231F20" stroke-miterlimit="10" d="M546.99,382.88c-4.87,0.69-5.72-2.58-9.93-0.03
		c-1.1,0.67-3.12,0.18-4.3,0.13c-0.26-1.07-0.25-1.82,0.14-2.75l13.71,0.05C547.25,380.65,547.38,382.32,546.99,382.88z"/>
	<path fill="#939598" stroke="#231F20" stroke-miterlimit="10" d="M490.84,469.81c0.57,0.59,0.47,2.1,0.27,3
		c-4.89-1.9-8.58-6.37-8.68-11.74c0.49-0.38,2.32-0.39,2.46,0.19C485.7,464.96,487.21,468.05,490.84,469.81z"/>
	<path fill="#939598" stroke="#231F20" stroke-miterlimit="10" d="M541.68,389.41c-0.97,1.13-2.77,1.19-3.92,0.31
		c-1.78-1.36-1.51-4.42-0.5-4.68c0.68-0.18,1.1,1.18,1.59,0.87c0.79-0.5-0.49-1.58-0.21-2.03c0.23-0.38,0.78-0.67,1.31-0.69
		c1.27-0.05,2.38,0.67,2.87,1.62c0.58,1.12,0.78,2.51-0.16,3.78c-0.7-0.8-1.27-1.54-2.25-1.15
		C540.53,388.28,540.96,388.55,541.68,389.41z"/>
	<path fill="#939598" stroke="#231F20" stroke-miterlimit="10" d="M546.43,346.86c0.86,0.27,0.84,1.71,0.48,2.39l-13.78-0.09
		c-0.66,0-0.56-2.15,0.27-2.34c1.18-0.26,2.89-0.39,3.95,0.16C541.32,349.02,542.64,345.66,546.43,346.86z"/>
	<path fill="#939598" stroke="#231F20" stroke-miterlimit="10" d="M533.41,393.43c-0.63,0-0.49-1.86,0.04-2.03
		c1.49-0.49,2.94-0.2,4.4,0.11c2.69,0.58,5.63-1.11,9.01-0.65c0.29,0.88,0.32,1.72,0.05,2.62L533.41,393.43z"/>
	<path fill="#939598" stroke="#231F20" stroke-miterlimit="10" d="M541.69,345.12c-0.49,1.45-2.77,1.21-3.64,0.68
		c-2.34-1.44-1.25-5.09-0.33-5.27c0.34-0.07,0.89,0.57,1.28,1.04c0.62-0.59,0.41-1.23,0.3-1.98c1.4-0.44,2.46-0.03,3.25,0.87
		c0.74,0.85,1.18,2.31,0.3,3.27c-0.53-0.18-1.22-0.86-1.97-0.46C540.5,343.48,541.83,344.7,541.69,345.12z"/>
	<path fill="#939598" stroke="#231F20" stroke-miterlimit="10" d="M571.04,342.28l-7.25,2.05l-2.89,1.8
		c-0.11-1.96-0.19-3.55,0.2-5.38l10,0.17C571.26,341.2,571.29,342.12,571.04,342.28z"/>
	<path fill="#939598" stroke="#231F20" stroke-miterlimit="10" d="M546.79,338.79c-2.3,0.31-4.24-0.06-6.37-0.85
		c-2.56,0.59-5.27,0.88-7.74,0.4c-0.38-0.26-0.24-1.81,0.18-1.92l13.68-0.05C547.13,336.82,547.05,338.25,546.79,338.79z"/>
	<path fill="#939598" stroke="#231F20" stroke-miterlimit="10" d="M494.88,455.56c-2.41,0.32-4.21,1.69-4.79,4.05
		c-1.04,0.3-2.03,0.29-3.07,0.02c0.58-4.13,3.83-7.14,7.9-7.43L494.88,455.56z"/>
	<path fill="#939598" stroke="#231F20" stroke-miterlimit="10" d="M499.02,472.42c-0.46-1.11-0.12-2.1,0.17-3.05
		c2.89-1.77,4.73-4.58,5.21-7.94c0.54-0.43,1.64-0.37,2.21-0.1C506.11,466.17,503.43,470.15,499.02,472.42z"/>
	<path fill="#939598" stroke="#231F20" stroke-miterlimit="10" d="M466.47,391.26c-0.58-0.83-0.53-1.44-0.34-2.36
		c1.28,0.06,3.03-0.26,4.35,0.2c4.4,1.56,6.03-1.09,9.95-0.13c0.51,0.12,0.46,1.79-0.01,2.04L466.47,391.26z"/>
	<path fill="#939598" stroke="#231F20" stroke-miterlimit="10" d="M496.33,476.88c-0.19,0.6-2.08,0.71-2.46,0.17
		c-1-2.06-1.09-4.5-0.92-6.84l4.25-0.07C497.22,472.41,497.11,474.46,496.33,476.88z"/>
	<path fill="#939598" stroke="#231F20" stroke-miterlimit="10" d="M486.93,390.69c-1.06,0.33-1.85,0.26-3.09,0.12l0.06-7.98
		c0-0.45,1.36-0.43,1.78-0.22c0.53,0.27,0.97,0.92,1,1.76L486.93,390.69z"/>
	<path fill="#939598" stroke="#231F20" stroke-miterlimit="10" d="M493.82,465.95c0.49,0.2,0.51,2.03,0.02,2.21
		c-2.93,1.11-6.51-2.82-6.63-7.1c0.69-0.32,2.13-0.23,2.34,0.24C490.4,463.47,491.43,464.95,493.82,465.95z"/>
	<path fill="#939598" stroke="#231F20" stroke-miterlimit="10" d="M564.93,338.56c-1.18,0.2-2.27,0.1-3.46-0.22l-0.14-6.88
		c1.28-0.21,2.22-0.2,3.43,0.01L564.93,338.56z"/>
	<path fill="#939598" stroke="#231F20" stroke-miterlimit="10" d="M517.49,432.2c-1,0.4-2.07,0.25-3.18,0.08l0.05-6.11l3.04-2.27
		L517.49,432.2z"/>
	<path fill="#939598" stroke="#231F20" stroke-miterlimit="10" d="M516.98,305.48c-1.21-0.34-2.03-1.14-2.95-1.91l-0.08-6.73
		l3.16,0.04L516.98,305.48z"/>
	<path fill="#939598" stroke="#231F20" stroke-miterlimit="10" d="M495.87,468.5c-0.73-0.66-0.5-1.69-0.22-2.47
		c2.5-0.51,4.24-2.3,4.64-4.84c0.91-0.13,1.66-0.18,2.53,0.08C502.23,464.93,499.73,467.88,495.87,468.5z"/>
	<path fill="#939598" stroke="#231F20" stroke-miterlimit="10" d="M486.13,346.9c-0.06,0.76-1.94,0.72-2.49,0.24l0.08-7.34
		c1.02-0.33,1.9-0.31,2.94,0.02L486.13,346.9z"/>
	<path fill="#939598" stroke="#231F20" stroke-miterlimit="10" d="M482.19,397.63c0.35,1.61-1.66,2.45-4.21,2.4
		c0.14-1.38-0.01-2.4-0.2-3.8C479.94,396.19,481.95,396.5,482.19,397.63z"/>
	<g>
		<path fill="#939598" stroke="#231F20" stroke-miterlimit="10" d="M573.03,359.35l-0.01,10.11l-0.03,15.79
			c0,1.06,0.44,2.03-0.47,2.91l-0.02-9.12l0.1-16.5"/>
		<path fill="#939598" stroke="#231F20" stroke-miterlimit="10" d="M572.6,362.54l0.06-18.84c0.11-0.03,0.29,0.08,0.3,0.21
			l0.03,7.84l0.04,7.6"/>
	</g>
	<path fill="#939598" stroke="#231F20" stroke-miterlimit="10" d="M525.46,421.88c0.01,1.1-0.59,1.83-1.72,2l-0.05-4.36
		c0.29-0.75,0.85-1.31,1.72-1.46L525.46,421.88z"/>
	<path fill="#939598" stroke="#231F20" stroke-miterlimit="10" d="M545.94,389.08c-0.14,0.4-1.45,0.42-1.81,0.21
		c0.38-1.7,0.56-3.22,0.04-4.85c0.44-0.16,1.39-0.15,1.68,0.12C546.2,385.92,546.27,387.47,545.94,389.08z"/>
	<path fill="#939598" stroke="#231F20" stroke-miterlimit="10" d="M494.46,460.94c0.12,0.97,0.07,1.96-0.18,3.17
		c-1.46-0.2-2.66-1.32-3.02-3.02L494.46,460.94z"/>
	<path fill="#939598" stroke="#231F20" stroke-miterlimit="10" d="M535.94,389.62c-0.46,0.26-1.06,0.24-1.8,0.05
		c-0.27-1.57-0.38-3.27-0.05-4.92c0.07-0.33,1.21-0.41,1.49-0.13C534.98,386.2,534.87,387.72,535.94,389.62z"/>
	<path fill="#939598" stroke="#231F20" stroke-miterlimit="10" d="M535.57,344.98c-0.68,0.37-1.49,0.03-1.49-0.28l-0.03-4.5
		c0.58-0.16,1.03-0.24,1.82,0.01C535.08,341.83,535.22,343.41,535.57,344.98z"/>
	<path fill="#939598" stroke="#231F20" stroke-miterlimit="10" d="M494.67,459.82c-0.96,0.12-1.93,0.12-3.11-0.14
		c0.25-1.56,1.58-2.68,3.11-2.62L494.67,459.82z"/>
	<path fill="#939598" stroke="#231F20" stroke-miterlimit="10" d="M546.04,344.89c-0.54,0.32-0.97,0.38-1.68,0.1
		c0.61-1.52,0.33-2.81,0.09-4.23c-0.08-0.51,1.59-0.73,1.59-0.05L546.04,344.89z"/>
	<path fill="#939598" stroke="#231F20" stroke-miterlimit="10" d="M498.69,461.31c-0.16,1.62-1.3,2.71-2.92,2.93
		c-0.19-1.22-0.15-2.01,0.04-3.09C496.87,461.03,497.69,461.1,498.69,461.31z"/>
	<path fill="#939598" stroke="#231F20" stroke-miterlimit="10" d="M506.68,459.89c-0.77,0.28-1.25,0.23-2.05,0.06l0.65-4.68
		C506.05,456.69,506.54,457.94,506.68,459.89z"/>
	<path fill="#939598" stroke="#231F20" stroke-miterlimit="10" d="M565.91,402.81c0.44,1.27,0.24,3.38-0.34,3.67
		c-0.94,0.46-1.33-1.88-0.9-3.73C564.73,402.48,565.8,402.5,565.91,402.81z"/>
	<path fill="#939598" stroke="#231F20" stroke-miterlimit="10" d="M498.76,459.89c-1.05,0.16-1.86,0.13-2.88-0.03l0.12-2.66
		C497.45,457.26,498.49,458.34,498.76,459.89z"/>
	<path fill="#939598" stroke="#231F20" stroke-miterlimit="10" d="M524.65,310.94c-0.96-0.14-1.37-0.92-1.2-1.84l0.24-3.23
		c0.76,0.44,1.12,1.17,1.11,2.07L524.65,310.94z"/>
	<g>
		<path fill="#939598" stroke="#231F20" stroke-miterlimit="10" d="M466.21,338.33c-0.65-1.03-0.45-2.22,0.08-3.53l37.3-4.06
			c4.15-0.45,7.09-3.76,6.4-8.03l-1.5-9.29c-0.38-2.38-2.3-5.16-4.87-5.28l-22.86-1.06c-0.95-0.04-1.53-0.75-1.56-1.51
			c-0.02-0.67,0.52-1.59,1.43-1.64l19.03-1.18c1.78-0.11,3.76-0.87,4.65-2.4c2.01-3.42-0.61-7.53-0.8-13.14
			c-0.16-4.98-4.47-8.13-9.25-7.87c-2.8,0.15-5.08-1.97-6.21-3.93c-1.43-2.5-1.38-5.36,0.11-7.73c1.75-2.78,4.94-4.17,8.02-3.59
			c3.17,0.59,5.59,3.12,6.18,6.5l2.99,16.99l4.84,21.83c1.37,6.18,5.33,11.57,10.79,14.61c2.65,1.48,5.53,2.13,8.47,2.69l16.94,3.23
			c0.48,1.64,0.43,2.95,0.07,4.98c-4.73-0.63-9.81,0.72-14.31-0.5c-2.1-0.57-3.25-2.27-5.97-1.97l-37.45,4.17
			c-0.86,0.1-1.38,0.76-1.85,1.51c-2.3-0.44-4.51-0.22-6.88-0.16L466.21,338.33z"/>
		<g>
			<circle fill="#939598" stroke="#231F20" stroke-miterlimit="10" cx="494.79" cy="271.72" r="4.91"/>
			<path fill="#939598" stroke="#231F20" stroke-miterlimit="10" d="M497.79,272.13c-0.08,1.61-1.45,2.51-2.58,2.64
				c-1.43,0.16-2.99-0.47-3.4-2.05c-0.28-1.08-0.05-2.89,0.91-3.65c0.91-0.72,3.02-0.66,3.96,0
				C497.52,269.67,497.84,271.11,497.79,272.13z"/>
		</g>
	</g>
	<g>
		<path fill="#939598" stroke="#231F20" stroke-miterlimit="10" d="M275.74,480.35c-0.76,0.71-1.55,1.34-2.5,1.32l-13.43-0.29
			l0.46-25.29l4.84-0.02c1.39-0.01,2.27-1.16,3.14-2.1l8.7-9.41c0.48-0.52,1.16-1.26,1.97-1.23l9.46,0.34c0.21,0.01,6.42,4.6,6.76,8
			l-0.31,10.26l-9.14,9.08L275.74,480.35z"/>
		<g>
			<polygon fill="#939598" stroke="#231F20" stroke-miterlimit="10" points="288.12,462.95 279.6,462.84 275.37,455.05 
				279.84,447.8 288.36,448.06 292.5,455.69 			"/>
			<polygon fill="#939598" stroke="#231F20" stroke-miterlimit="10" points="287.35,461.77 280.35,461.72 276.78,455.08 
				280.43,449.09 287.62,449.2 291.08,455.69 			"/>
		</g>
	</g>
	<g>
		<circle fill="#939598" stroke="#231F20" stroke-miterlimit="10" cx="458.31" cy="305.73" r="17.04"/>
		<g>
			<g>
				<g>
					<g>
						<circle fill="#939598" stroke="#231F20" stroke-miterlimit="10" cx="458.28" cy="305.77" r="12.85"/>
						<g>
							<circle fill="#939598" stroke="#231F20" stroke-miterlimit="10" cx="458.24" cy="305.75" r="4.83"/>
							<g>
								<circle fill="#939598" stroke="#231F20" stroke-miterlimit="10" cx="458.24" cy="305.74" r="3.5"/>
							</g>
						</g>
					</g>
				</g>
			</g>
		</g>
	</g>
	<g>
		
			<rect x="394.26" y="128.14" transform="matrix(0.943 -0.3328 0.3328 0.943 -35.405 147.6662)" fill="#939598" stroke="#231F20" stroke-miterlimit="10" width="38.22" height="98.09"/>
		<path fill="#939598" stroke="#231F20" stroke-miterlimit="10" d="M300.33,216.79l-10.82,63.47l-8.87-0.11l5.94-47.41l17.35-135.4
			l8.11-63.91l13.27-11.57l-3.13,25.32c-0.24,1.4,0.67,2.71,2.07,2.58l4.69-0.41l-2.55,14.99l-11.59,67.81L300.33,216.79z"/>
		<path fill="#939598" stroke="#231F20" stroke-miterlimit="10" d="M337.99,75.56c0.51,3.21,1.45,6.82,4.02,8.44l-24.74,140.8
			l-9.72,55.8l-12.9-0.19l11.94-69.94l17.67-103.2l9.59-55.84l3.45-0.37l-0.11,9.91c-0.01,0.98,0.69,2.14,1.71,2.17l6.67,0.16
			l-1.69,9.61C341.74,73.61,339.72,74.28,337.99,75.56z"/>
		<path fill="#939598" stroke="#231F20" stroke-miterlimit="10" d="M432.87,288.54c-0.78-0.69-1.02-1.45-1.36-2.42l-16.98-48.3
			c-0.25-0.7-1.03-1.9-0.38-2.59l34.71-12.86c0.8-0.3,1.46,1.53,1.4,2.18l15.38,43.68l2.5,6.85L432.87,288.54z"/>
		
			<rect x="377.66" y="55.49" transform="matrix(0.9439 -0.3301 0.3301 0.9439 -8.1897 131.4485)" fill="#939598" stroke="#231F20" stroke-miterlimit="10" width="10.56" height="68.7"/>
		<path fill="#939598" stroke="#231F20" stroke-miterlimit="10" d="M414.84,122.03c-1.37-4.28-4.09-2.83-4.96-3.12
			c-1.75-0.58-2.97-1.4-5.01-0.66l-3.79,1.38L390.3,88.94l15.06-5.71l17.05,49.3l8.12,23.22c-0.55,0.55-1.07,0.96-1.85,1.39
			l-12.19-34.56L414.84,122.03z"/>
		<path fill="#939598" stroke="#231F20" stroke-miterlimit="10" d="M376.92,136.94l11.88,34.3c-0.61,0.41-1.51,0.46-2.12,0.2
			l-14.9-42.71l-10.13-29.32l15-5.37l10.72,30.46l-4.18,1.87c-1.66,0.74-2.13,1.83-2.92,3.34l-2.16,1.89
			C376.88,134.95,379.76,136.26,376.92,136.94z"/>
		
			<rect x="194.27" y="163.25" transform="matrix(0.1685 -0.9857 0.9857 0.1685 97.0034 444.2915)" fill="#939598" stroke="#231F20" stroke-miterlimit="10" width="235.17" height="2.8"/>
		<path fill="#939598" stroke="#231F20" stroke-miterlimit="10" d="M349.18,30.59c-5.35,9.71-1.55,21.54,8.47,26.64l-11.09,3.7
			c-1.4,0.47-2.89,0.38-4.42,0.09l0.86-46.25l29.76,0.6l2.57,8.41C365.89,18.52,354.73,21.35,349.18,30.59z"/>
		<path fill="#939598" stroke="#231F20" stroke-miterlimit="10" d="M425.65,295.63c-1.74,0.3-3.11-0.5-3.92-1.76l-5.52-8.56
			c-4.44-6.89-11.68-1.43-18.57-2.1c-2.2-0.21-3.83-2.49-5.22-3.9l-3.37-3.42l34.73-5.39l6.18,17.5c0.27,0.77,0.62,1.49,1.26,1.96
			c3.26,1.94,6.8,2.2,10.7,2.38c-0.87,0.63-1.87,0.78-2.95,0.97L425.65,295.63z"/>
		<polygon fill="#939598" stroke="#231F20" stroke-miterlimit="10" points="337.37,46.67 324.1,47.82 327.51,20.31 337.92,19.17 		
			"/>
		<path fill="#939598" stroke="#231F20" stroke-miterlimit="10" d="M362.09,88.03c-1.41-0.34-2.23-1.33-2.61-2.54
			c-0.35-1.35-1.11-2.35-2.43-2.89l-2.39-7.74l12.9-4.66l6.58,19.52C369.88,89.77,366.07,89.25,362.09,88.03z"/>
		<path fill="#939598" stroke="#231F20" stroke-miterlimit="10" d="M398.17,71.2c2.27,3.3-4.82,9.66-8.59,12.91l-6.98-19.6
			l12.48-4.58l3.11,7.8C397.24,68.88,397.4,70.12,398.17,71.2z"/>
		<polygon fill="#939598" stroke="#231F20" stroke-miterlimit="10" points="366.56,64.43 346.14,72.12 347.71,62.7 360.7,58.52 
			364.47,59.09 		"/>
		<path fill="#939598" stroke="#231F20" stroke-miterlimit="10" d="M348.73,288.11l-9.9-6.34c-1.25-0.8-2.84-1.1-4.32-1.14
			l-8.95-0.27c5.73-4.06,12.54-4.61,18.78-1.82c3.34,1.5,6.65,2.43,10.37,2.48l-2.38,6.51L348.73,288.11z"/>
		<path fill="#939598" stroke="#231F20" stroke-miterlimit="10" d="M413.11,123.91l-32.47,11.99c-0.69-0.7-1.5-3.28-0.3-3.73
			l30.62-11.43C412.17,120.29,413.19,122.4,413.11,123.91z"/>
		
			<rect x="412.98" y="224.22" transform="matrix(0.9385 -0.3453 0.3453 0.9385 -51.5634 162.5744)" fill="#939598" stroke="#231F20" stroke-miterlimit="10" width="35.19" height="3.62"/>
		<path fill="#939598" stroke="#231F20" stroke-miterlimit="10" d="M341.77,13.54l-0.85,47.59c-0.85,0.11-1.34,0.07-1.87-0.19
			l0.89-48.16l32.58,0.6l-0.01,0.65L341.77,13.54z"/>
		<path fill="#939598" stroke="#231F20" stroke-miterlimit="10" d="M457.93,286.56c-4.14-0.16-7.12,1.97-10.6,3.32
			c-2.6,1-5.88,0.34-8.86,0.17l26.42-9.92L457.93,286.56z"/>
		<path fill="#939598" stroke="#231F20" stroke-miterlimit="10" d="M376.33,91.78l-14.08,5.47l-2.79-8.52l1.8,0.97
			C366.05,91.53,370.81,91.58,376.33,91.78z"/>
		<path fill="#939598" stroke="#231F20" stroke-miterlimit="10" d="M389.29,86.99c3.4-3.24,6.82-5.67,9.2-9.4
			c0.91-1.06,1.38-2.22,1.84-3.45l3.29,7.8L389.29,86.99z"/>
		<path fill="#939598" stroke="#231F20" stroke-miterlimit="10" d="M401.37,206.22l-8.56,2.33c1.6-2.86,0.92-5.4-1.79-7.13l7.64-2
			L401.37,206.22z"/>
		<path fill="#939598" stroke="#231F20" stroke-miterlimit="10" d="M396.18,192.04l-8.36,2.07c1.32-2.76,0.74-5.21-1.87-6.94
			l7.68-2.01L396.18,192.04z"/>
		<path fill="#939598" stroke="#231F20" stroke-miterlimit="10" d="M437.58,182.33l-2.45-6.89l8.34-2
			c-1.57,2.57-1.09,5.47,1.82,7.16L437.58,182.33z"/>
		<path fill="#939598" stroke="#231F20" stroke-miterlimit="10" d="M440.37,166.36l-7.73,1.71l-2.39-6.69l8.14-1.93
			C436.91,162,437.65,164.5,440.37,166.36z"/>
		<path fill="#939598" stroke="#231F20" stroke-miterlimit="10" d="M450.13,194.97l-7.61,1.65l-2.45-7.02l8.08-1.71
			C446.61,190.63,447.37,193.49,450.13,194.97z"/>
		<path fill="#939598" stroke="#231F20" stroke-miterlimit="10" d="M389.7,173.65l1.52,4.27l-8.5,1.94
			c1.36-2.82,0.45-5.37-1.97-6.81c1.13-0.66,2.16-0.78,3.32-0.84c0.46,1.13,1.26,1.67,2.47,1.6L389.7,173.65z"/>
		
			<rect x="380.02" y="56.37" transform="matrix(0.9397 -0.3419 0.3419 0.9397 4.2174 138.3203)" fill="#939598" stroke="#231F20" stroke-miterlimit="10" width="28.92" height="1.65"/>
		<path fill="#939598" stroke="#231F20" stroke-miterlimit="10" d="M400.27,220.5l-0.46,1.51c-0.1,0.31-0.83,0.5-1.68,0.51
			c1.22-2.59,0.63-5.57-2.18-6.96l7.9-2.07l1.87,5.16C403.95,219.31,402.08,219.19,400.27,220.5z"/>
		
			<rect x="339.37" y="71.45" transform="matrix(0.9386 -0.3449 0.3449 0.9386 -3.2016 126.4571)" fill="#939598" stroke="#231F20" stroke-miterlimit="10" width="28.8" height="1.54"/>
		<circle fill="#939598" stroke="#231F20" stroke-miterlimit="10" cx="394.02" cy="220" r="3.27"/>
		<circle fill="#939598" stroke="#231F20" stroke-miterlimit="10" cx="398.86" cy="234.09" r="3.26"/>
		<circle fill="#939598" stroke="#231F20" stroke-miterlimit="10" cx="389.02" cy="205.76" r="3.25"/>
		<circle fill="#939598" stroke="#231F20" stroke-miterlimit="10" cx="383.82" cy="191.5" r="3.24"/>
		<circle fill="#939598" stroke="#231F20" stroke-miterlimit="10" cx="407.38" cy="60.69" r="3.23"/>
		<circle fill="#939598" stroke="#231F20" stroke-miterlimit="10" cx="427.5" cy="118.5" r="3.23"/>
		<circle fill="#939598" stroke="#231F20" stroke-miterlimit="10" cx="348.47" cy="91.09" r="3.23"/>
		<circle fill="#939598" stroke="#231F20" stroke-miterlimit="10" cx="452.05" cy="190.59" r="3.21"/>
		<circle fill="#939598" stroke="#231F20" stroke-miterlimit="10" cx="432.5" cy="133.07" r="3.21"/>
		<circle fill="#939598" stroke="#231F20" stroke-miterlimit="10" cx="368.85" cy="148.68" r="3.21"/>
		<circle fill="#939598" stroke="#231F20" stroke-miterlimit="10" cx="457.29" cy="204.95" r="3.21"/>
		<circle fill="#939598" stroke="#231F20" stroke-miterlimit="10" cx="358.84" cy="119.8" r="3.22"/>
		<circle fill="#939598" stroke="#231F20" stroke-miterlimit="10" cx="417.52" cy="89.57" r="3.21"/>
		<circle fill="#939598" stroke="#231F20" stroke-miterlimit="10" cx="363.81" cy="134.26" r="3.2"/>
		<circle fill="#939598" stroke="#231F20" stroke-miterlimit="10" cx="422.54" cy="103.98" r="3.21"/>
		<circle fill="#939598" stroke="#231F20" stroke-miterlimit="10" cx="378.68" cy="177.28" r="3.19"/>
		<circle fill="#939598" stroke="#231F20" stroke-miterlimit="10" cx="447.27" cy="176.17" r="3.18"/>
		<circle fill="#939598" stroke="#231F20" stroke-miterlimit="10" cx="437.43" cy="147.73" r="3.17"/>
		<circle fill="#939598" stroke="#231F20" stroke-miterlimit="10" cx="353.84" cy="105.37" r="3.19"/>
		<circle fill="#939598" stroke="#231F20" stroke-miterlimit="10" cx="412.33" cy="74.99" r="3.2"/>
		<circle fill="#939598" stroke="#231F20" stroke-miterlimit="10" cx="373.84" cy="163.05" r="3.19"/>
		<circle fill="#939598" stroke="#231F20" stroke-miterlimit="10" cx="442.38" cy="162" r="3.15"/>
		
			<rect x="434.03" y="282.97" transform="matrix(0.9344 -0.3561 0.3561 0.9344 -71.3908 179.2098)" fill="#939598" stroke="#231F20" stroke-miterlimit="10" width="34.02" height="1.06"/>
		<path fill="#939598" stroke="#231F20" stroke-miterlimit="10" d="M397.78,240.55c-0.33,0.12-0.54-0.1-0.6-0.19
			c-0.95-1.43,9.23-1.35,7.95-6.09l-3.46-12.8l5.15,12.94c0.28,0.71,0.4,2.69-0.37,2.97L397.78,240.55z"/>
		<path fill="#939598" stroke="#231F20" stroke-miterlimit="10" d="M382.5,129.7c0.7-1.66,2.68-2.12,4.33-2.73l18.54-6.8
			c0.69-0.25,1.45-0.49,2.19,0.24L382.5,129.7z"/>
		<path fill="#939598" stroke="#231F20" stroke-miterlimit="10" d="M464.62,215.53c-2.28,1.71-5.09,2.21-7.92,3.31
			c-1.03-1.16-2.89-1.99-3.33-3.44l-3.13-10.41l3.93,8.19l2.5,4.61L464.62,215.53z"/>
		<path fill="#939598" stroke="#231F20" stroke-miterlimit="10" d="M420.49,108.2c-1.08,0.66-2.05,0.83-3.19,1.07l-2.43-7.1
			l3.66-0.92C416.98,103.77,417.77,106.68,420.49,108.2z"/>
		<path fill="#939598" stroke="#231F20" stroke-miterlimit="10" d="M427.42,138.35l-2.55-7.17l3.76-0.97
			c-1.59,2.61-0.89,5.68,2.02,7.2C429.68,137.88,428.8,138.07,427.42,138.35z"/>
		<path fill="#939598" stroke="#231F20" stroke-miterlimit="10" d="M425.33,122.87c-1,0.73-1.92,0.79-2.98,1.05l-2.39-7.41
			l3.75-0.73C422.11,118.31,422.54,121.18,425.33,122.87z"/>
		<path fill="#939598" stroke="#231F20" stroke-miterlimit="10" d="M415.38,93.8c-0.78,0.54-1.74,0.83-3.02,1.07l-2.46-7.05
			l3.66-0.93C412.1,89.38,412.67,92.13,415.38,93.8z"/>
		<path fill="#939598" stroke="#231F20" stroke-miterlimit="10" d="M371.51,136.12c-1.26,0.65-2.48,0.63-3.83,0.94
			c1.46-2.45,1.11-5.27-1.54-7.03c0.99-0.59,1.78-0.63,2.88-0.79L371.51,136.12z"/>
		<path fill="#939598" stroke="#231F20" stroke-miterlimit="10" d="M381.52,164.68l-3.76,1.01c1.37-2.5,0.98-5.26-1.69-6.86
			c0.87-0.53,1.8-0.73,3.01-0.83L381.52,164.68z"/>
		<path fill="#939598" stroke="#231F20" stroke-miterlimit="10" d="M376.47,150.47c-1.19,0.59-2.38,0.66-3.67,0.94
			c1.5-2.58,0.78-5.47-1.8-6.95c1.04-0.61,1.92-0.69,3.03-0.79L376.47,150.47z"/>
		<path fill="#939598" stroke="#231F20" stroke-miterlimit="10" d="M449.99,209.55c-0.98,0.56-1.73,0.58-2.79,0.56l-1.95-5.71
			l2.93-0.74L449.99,209.55z"/>
		<path fill="#939598" stroke="#231F20" stroke-miterlimit="10" d="M361.39,107.2c-1.17,0.62-2.34,0.69-3.65,0.88
			c1.47-2.66,0.87-5.15-1.57-6.78c0.79-0.65,1.82-0.87,2.89-0.84L361.39,107.2z"/>
		<path fill="#939598" stroke="#231F20" stroke-miterlimit="10" d="M366.37,121.71c-1.26,0.47-2.18,0.61-3.47,0.75
			c1.16-2.5,0.82-5.16-1.65-6.88c0.72-0.53,1.59-0.7,2.65-0.84L366.37,121.71z"/>
		<path fill="#939598" stroke="#231F20" stroke-miterlimit="10" d="M432.43,152.69l-2.4-6.9l3.65-0.88
			c-1.71,2.66-1.09,5.31,1.48,6.96C434.28,152.38,433.6,152.46,432.43,152.69z"/>
		<path fill="#939598" stroke="#231F20" stroke-miterlimit="10" d="M346.57,86.09c-1.55,0.48-2.26,1.67-3.09,2.81
			c-0.16-1.46,0.3-2.55,0.57-3.86l4.86-1.78c0.44-0.16,1.1-0.1,1.4-0.01c0.37,0.11,0.87,0.98,0.73,1.46L346.57,86.09z"/>
		<path fill="#939598" stroke="#231F20" stroke-miterlimit="10" d="M405.36,226.05l-1.99-5.05l2.88-0.67l1.72,4.88
			C407.18,225.62,406.72,225.73,405.36,226.05z"/>
		<path fill="#939598" stroke="#231F20" stroke-miterlimit="10" d="M400.7,58.67c0.26,3.65,3.22,7.73,1.4,8l-3.05-8.1l5.19-2
			C403.64,57.82,402.31,58.31,400.7,58.67z"/>
		<path fill="#939598" stroke="#231F20" stroke-miterlimit="10" d="M348.24,81.37c-1.35,0.77-2.92,1.19-4.41,1.61
			c-0.66-0.11-1.31-1.06-1.67-1.57l6.39-2.3C348.58,79.84,348.49,80.72,348.24,81.37z"/>
		<path fill="#939598" stroke="#231F20" stroke-miterlimit="10" d="M354.14,87.29l-4.05-10.72l0.96-0.38l3.92,11.05
			C355.04,87.42,354.27,87.63,354.14,87.29z"/>
		<path fill="#939598" stroke="#231F20" stroke-miterlimit="10" d="M410.35,79.5c-0.74,0.5-1.39,0.66-2.17,0.87l-2-5.04
			c-0.28-0.7-0.2-1.29,0.11-1.81c0.35-0.6,1.07-1,1.71-0.79C406.68,75.48,407.97,78,410.35,79.5z"/>
		<path fill="#939598" stroke="#231F20" stroke-miterlimit="10" d="M451.5,214.78l-3.08-0.58l-0.77-2.02
			c0.89-0.41,1.75-0.61,2.8-0.68C450.99,212.5,451.2,213.17,451.5,214.78z"/>
		<path fill="#939598" stroke="#231F20" stroke-miterlimit="10" d="M463.63,213.75l-5.35,1.83c0.08-1.42,0.9-2.44,1.77-2.7
			C461.42,212.47,462.65,212.47,463.63,213.75z"/>
		<path fill="#939598" stroke="#231F20" stroke-miterlimit="10" d="M455.55,221.65c-0.39,0.15-0.53,0.08-0.63,0.03
			c-0.11-0.05-0.3-0.27-0.27-0.38c0.06-0.26,0.35-0.33,0.65-0.44l9.23-3.34l0.32,0.46L455.55,221.65z"/>
		<path fill="#939598" stroke="#231F20" stroke-miterlimit="10" d="M357.67,87.07L361,97.96c-0.15,0.03-0.34-0.05-0.47-0.14
			L356.16,84C357.37,84.53,357.31,85.87,357.67,87.07z"/>
		<path fill="#939598" stroke="#231F20" stroke-miterlimit="10" d="M399.07,241.87l8.03-3c0.87-0.32,1.32-0.85,1.44-1.98
			c0.32,0.5,0.44,0.88,0.64,1.67l-9.51,3.62C399.4,242.29,399.11,242.02,399.07,241.87z"/>
		<path fill="#939598" stroke="#231F20" stroke-miterlimit="10" d="M407.23,230.2c-0.51-0.74-0.67-1.41-1-2.35
			c0.67-0.35,1.42-0.6,2.36-0.74l0.65,2.03L407.23,230.2z"/>
		
			<rect x="405.25" y="74.85" transform="matrix(0.9356 -0.3531 0.3531 0.9356 -1.4063 148.2494)" fill="#939598" stroke="#231F20" stroke-miterlimit="10" width="0.87" height="6.25"/>
		<path fill="#939598" stroke="#231F20" stroke-miterlimit="10" d="M398.59,61.24l2.39,6.9c-0.07,0.06-0.24,0.11-0.33-0.12
			l-3.49-9.14C398.05,59.28,398.26,60.28,398.59,61.24z"/>
		<path fill="#939598" stroke="#231F20" stroke-miterlimit="10" d="M354.97,93.21c-0.74,0.4-1.46,0.5-2.44,0.36
			c0.85-1.44,0.64-2.68,0.5-4.32L354.97,93.21z"/>
		<path fill="#939598" stroke="#231F20" stroke-miterlimit="10" d="M453.42,221.42c0.24,0.95-0.99,1.23-1.56,1.22
			c-0.49-0.01-1.32-0.84-1.12-1.71C450.91,220.18,453.1,220.13,453.42,221.42z"/>
		<path fill="#939598" stroke="#231F20" stroke-miterlimit="10" d="M412.18,237.22c-0.52,0.56-1.37,0.58-1.71,0.46
			c-0.4-0.14-0.81-1.19-0.48-1.54c0.47-0.5,1.08-0.65,1.8-0.82C412,235.68,412.52,236.86,412.18,237.22z"/>
		<path fill="#939598" stroke="#231F20" stroke-miterlimit="10" d="M349.15,77.23l-8.02,2.92c-0.06-0.16-0.06-0.37-0.04-0.5
			l7.59-2.79C349.15,76.69,349.35,77.16,349.15,77.23z"/>
		<path fill="#939598" stroke="#231F20" stroke-miterlimit="10" d="M355.45,82.95l-2.47-7.47l0.51-0.02l2.12,6.64
			C355.67,82.31,355.68,82.68,355.45,82.95z"/>
		<path fill="#939598" stroke="#231F20" stroke-miterlimit="10" d="M337.35,49.58c-1.02,0.33-2,0.34-3.17,0.39
			c-0.06-0.48-0.02-0.71,0.11-1.13l2.78-0.27C337.21,48.56,337.52,48.98,337.35,49.58z"/>
		<path fill="#939598" stroke="#231F20" stroke-miterlimit="10" d="M452.15,205.14c-0.15-0.41-0.23-1.15-0.56-1.21l-2.13-0.39
			l3.43-1.03L452.15,205.14z"/>
		<path fill="#939598" stroke="#231F20" stroke-miterlimit="10" d="M355.93,88.88c0.24,1.01,0.7,1.88,0.51,3.24
			c-1.12-0.64-1.28-1.88-1.61-2.97L355.93,88.88z"/>
		<path fill="#939598" stroke="#231F20" stroke-miterlimit="10" d="M408.7,230.74c0.97,2.49,1.11,4.8,0.32,4.25
			C408.86,234.88,407.76,231.73,408.7,230.74z"/>
		<path fill="#939598" stroke="#231F20" stroke-miterlimit="10" d="M402.8,76.73l-2.34-5.84c0.11-0.03,0.23-0.13,0.28-0.22
			l2.14,5.26C402.99,76.19,403.01,76.5,402.8,76.73z"/>
		<path fill="#939598" stroke="#231F20" stroke-miterlimit="10" d="M404.31,72.23c-0.92-1.47-1.48-2.79-1.53-4.46
			C403.96,69,404.2,70.67,404.31,72.23z"/>
		<path fill="#939598" stroke="#231F20" stroke-miterlimit="10" d="M455.27,219.59c-0.79,0.65-1.28,0.25-1.64-0.19
			c-0.46-0.55-0.6-1.21-0.31-1.74L455.27,219.59z"/>
		<path fill="#939598" stroke="#231F20" stroke-miterlimit="10" d="M358.5,96.15c-0.86-0.45-1.29-1.25-1.73-2.24
			c-0.08-0.18,0.39-0.6,0.69-0.55C357.94,94.17,358.52,94.75,358.5,96.15z"/>
		<path fill="#939598" stroke="#231F20" stroke-miterlimit="10" d="M409.7,55.44c-1.09,0.21-2.2,0.69-3.59,0.29l2.62-0.85
			C408.94,54.81,409.4,54.78,409.7,55.44z"/>
		<path fill="#939598" stroke="#231F20" stroke-miterlimit="10" d="M451.28,218.13c-0.49-0.09-1.19-1.4-0.71-1.94
			C451.01,215.9,452.08,217.21,451.28,218.13z"/>
		<path fill="#939598" stroke="#231F20" stroke-miterlimit="10" d="M405.28,65.22c-0.21,0.18-0.72,0.46-0.98,0.49
			c-0.46-0.52-0.69-1.33-0.72-2.03L405.28,65.22z"/>
		<path fill="#939598" stroke="#231F20" stroke-miterlimit="10" d="M352.59,88.6c-0.53-0.69-1.34-1.02-1.64-2.06
			C352.09,86.58,352.56,87.66,352.59,88.6z"/>
		<g>
			<circle fill="#939598" stroke="#231F20" stroke-miterlimit="10" cx="365.61" cy="39.99" r="16.78"/>
			<circle fill="#939598" stroke="#231F20" stroke-miterlimit="10" cx="365.58" cy="40.01" r="15.83"/>
			<g>
				<circle fill="#939598" stroke="#231F20" stroke-miterlimit="10" cx="365.59" cy="40.01" r="14.68"/>
				<circle fill="#939598" stroke="#231F20" stroke-miterlimit="10" cx="365.56" cy="40.01" r="14.14"/>
				<g>
					<circle fill="#939598" stroke="#231F20" stroke-miterlimit="10" cx="365.56" cy="40.02" r="13.01"/>
					<g>
						<circle fill="#939598" stroke="#231F20" stroke-miterlimit="10" cx="365.52" cy="40.08" r="10.89"/>
						<g>
							<circle fill="#939598" stroke="#231F20" stroke-miterlimit="10" cx="365.55" cy="40.06" r="8.96"/>
							<g>
								<circle fill="#939598" stroke="#231F20" stroke-miterlimit="10" cx="365.56" cy="40.07" r="4.98"/>
								<circle fill="#939598" stroke="#231F20" stroke-miterlimit="10" cx="365.55" cy="40.05" r="3.41"/>
							</g>
						</g>
					</g>
				</g>
			</g>
		</g>
	</g>
	<g>
		
			<rect x="263.54" y="308.74" transform="matrix(0.0932 -0.9957 0.9957 0.0932 -104.4459 592.4879)" fill="#939598" stroke="#231F20" stroke-miterlimit="10" width="19" height="89.68"/>
		
			<rect x="399.05" y="327.13" transform="matrix(1 -8.023360e-03 8.023360e-03 1 -2.9245 3.3005)" fill="#939598" stroke="#231F20" stroke-miterlimit="10" width="21.69" height="78.03"/>
		
			<rect x="129.96" y="301.76" transform="matrix(0.9999 0.0163 -0.0163 0.9999 5.5948 -2.2213)" fill="#939598" stroke="#231F20" stroke-miterlimit="10" width="17.57" height="79.12"/>
		
			<rect x="120.09" y="299.35" transform="matrix(0.9998 0.0186 -0.0186 0.9998 6.3738 -2.2588)" fill="#939598" stroke="#231F20" stroke-miterlimit="10" width="8.7" height="83.31"/>
		<path fill="#939598" stroke="#231F20" stroke-miterlimit="10" d="M115.66,349.75c-0.03,3.34-5.38,0.1-6.09,4.64
			c-0.29,1.87-0.44,3.9-0.16,5.8c0.61,4.24,5.08,2.45,5.7,4.27l0.04,2.27l-18.17-7.5l0.6-36.51l18.2-7.24
			c0.39,1.61-0.87,2.17-2.1,2.23c-2.16,0.09-3.63,1.34-3.69,3.52l-0.1,3.91c-0.12,4.58,3.76,3.72,5.96,5.57L115.66,349.75z"/>
		<path fill="#939598" stroke="#231F20" stroke-miterlimit="10" d="M430.87,373.89c0.01,2.66,4.1,4.26,4.18,5.72
			c0.08,1.64,0.87,2.78,2.67,2.84c1.56,0.1,3.22-0.35,4.87,0.46l-20.51,8.25L421.82,340l20.35,7.92c-1.11,1.43-2.7,1.25-4.22,1.03
			c-0.86,0.02-1.57,0.04-2.26,0.42c-0.56,0.31-0.93,1.21-0.94,2.04c-0.02,1.45-0.77,1.84-1.82,2.65c-0.86,0.67-2.11,2.45-2.11,3.67
			L430.87,373.89z"/>
		
			<rect x="148.71" y="301.26" transform="matrix(0.9999 0.0158 -0.0158 0.9999 5.4216 -2.3546)" fill="#939598" stroke="#231F20" stroke-miterlimit="10" width="5.66" height="80.49"/>
		
			<rect x="392.07" y="326.42" transform="matrix(1 -9.338664e-03 9.338664e-03 1 -3.4015 3.7044)" fill="#939598" stroke="#231F20" stroke-miterlimit="10" width="5.78" height="79.33"/>
		<polygon fill="#939598" stroke="#231F20" stroke-miterlimit="10" points="177.25,370.79 170.9,367.78 171.82,316.4 178.07,313.15 
					"/>
		<path fill="#939598" stroke="#231F20" stroke-miterlimit="10" d="M375.75,392.06c-1.85,1.41-3.79,1.64-6.18,2.49l-0.44-55.06
			c2.03-0.65,4.22-0.77,6.32,0.22L375.75,392.06z"/>
		<path fill="#939598" stroke="#231F20" stroke-miterlimit="10" d="M344.04,379.27c-2.5,0.42-4.36,1.59-7.16,2.62l3.51-44.91
			l7.2,4.01L344.04,379.27z"/>
		<polygon fill="#939598" stroke="#231F20" stroke-miterlimit="10" points="205.69,368.55 198.99,364.62 203.13,326 210.18,324.1 		
			"/>
		<polygon fill="#939598" stroke="#231F20" stroke-miterlimit="10" points="357.66,386.06 351.37,390.15 354.14,333.8 
			358.03,341.47 		"/>
		<polygon fill="#939598" stroke="#231F20" stroke-miterlimit="10" points="192.72,371.24 188.55,365.91 190.1,320.68 
			196.06,317.73 		"/>
		<path fill="#939598" stroke="#231F20" stroke-miterlimit="10" d="M182.53,372.95c-1.6,0.22-2.71,0.13-4.02-0.42l0.92-59.5
			c0.02-1.05,0.68-1.94,1.25-2.24c0.55-0.29,2.32-0.42,2.44,0.2l0.2,7.41L182.53,372.95z"/>
		<path fill="#939598" stroke="#231F20" stroke-miterlimit="10" d="M367.85,339.1l0.4,56.88c-0.3,1.39-3.18,1.56-3.99,0.65
			l-0.42-60.39c1.03-0.33,2.3-0.36,3.22,0.25C367.69,336.91,367.84,337.94,367.85,339.1z"/>
		<polygon fill="#939598" stroke="#231F20" stroke-miterlimit="10" points="350,389.4 345.37,379.21 348.83,340.84 352.88,334.19 
			350.59,381.78 		"/>
		
			<rect x="377.58" y="340.73" transform="matrix(1 -4.415235e-03 4.415235e-03 1 -1.6136 1.6799)" fill="#939598" stroke="#231F20" stroke-miterlimit="10" width="4.19" height="51.14"/>
		<polygon fill="#939598" stroke="#231F20" stroke-miterlimit="10" points="187.4,365.44 183.81,372.07 184.68,312.47 
			188.71,320.56 		"/>
		
			<rect x="141.97" y="339.96" transform="matrix(0.0214 -0.9998 0.9998 0.0214 -178.2465 502.0705)" fill="#939598" stroke="#231F20" stroke-miterlimit="10" width="50.75" height="4.25"/>
		<polygon fill="#939598" stroke="#231F20" stroke-miterlimit="10" points="197.8,364.29 194.05,370.87 197.34,317.66 
			201.91,326.14 		"/>
		<polygon fill="#939598" stroke="#231F20" stroke-miterlimit="10" points="358.89,386.22 359.27,341.91 362.55,336.8 
			362.94,395.02 		"/>
		
			<rect x="436.35" y="356.63" transform="matrix(1 -3.311069e-03 3.311069e-03 1 -1.2085 1.4611)" fill="#939598" stroke="#231F20" stroke-miterlimit="10" width="8.64" height="18.16"/>
		<path fill="#939598" stroke="#231F20" stroke-miterlimit="10" d="M333.56,372.58c-1.68-1.08-3.22-1.84-5.12-2.5l2.14-22.49
			l5.15-1.89L333.56,372.58z"/>
		<polygon fill="#939598" stroke="#231F20" stroke-miterlimit="10" points="215.6,359.8 210.26,361.52 213.05,334.85 217.91,337.07 
					"/>
		<path fill="#939598" stroke="#231F20" stroke-miterlimit="10" d="M422.26,395.56c-0.25-1.04-0.25-1.99,0.15-3.04l22.5-9.13
			c-0.01-1.73-0.09-3.07,0.7-4.48l17.76-0.08c0.55,0,0.6,1.26,0.29,1.67c-0.28,0.38-0.71,0.42-1.46,0.45l-11.26,0.33l-2.35,3.06
			L422.26,395.56z"/>
		<path fill="#939598" stroke="#231F20" stroke-miterlimit="10" d="M461.73,350.06c1.12,0.01,2.06,0.63,1.97,1.85l-17.98,0.16
			c-1.01-1.41-1.17-2.93-1.33-4.72l-22.34-8.73c-0.22-0.86-0.25-1.47-0.09-2.4c3.95-0.11,4.18,1.63,6.16,2.42l20.87,8.4
			c0.67,1.54,1.41,2.92,3.53,2.94L461.73,350.06z"/>
		
			<rect x="155.65" y="301.26" transform="matrix(0.9999 0.0164 -0.0164 0.9999 5.6338 -2.5212)" fill="#939598" stroke="#231F20" stroke-miterlimit="10" width="1.11" height="80.48"/>
		
			<rect x="314.42" y="356.73" transform="matrix(0.0909 -0.9959 0.9959 0.0909 -60.4717 651.0396)" fill="#939598" stroke="#231F20" stroke-miterlimit="10" width="23.89" height="3.83"/>
		
			<rect x="207.73" y="347.06" transform="matrix(0.1001 -0.995 0.995 0.1001 -149.3667 532.65)" fill="#939598" stroke="#231F20" stroke-miterlimit="10" width="24.08" height="3.68"/>
		
			<rect x="158.06" y="331.23" transform="matrix(0.9999 0.0172 -0.0172 0.9999 5.9154 -2.7084)" fill="#939598" stroke="#231F20" stroke-miterlimit="10" width="3.8" height="20.67"/>
		
			<rect x="389.83" y="326.43" transform="matrix(1 -6.758716e-03 6.758716e-03 1 -2.4655 2.6468)" fill="#939598" stroke="#231F20" stroke-miterlimit="10" width="1.08" height="79.35"/>
		<path fill="#939598" stroke="#231F20" stroke-miterlimit="10" d="M163.49,364.3c-2.01,0.48-3.82,0.33-5.8,0.28l0.34-11.27
			c1.84-0.34,3.65-0.27,5.6,0.09L163.49,364.3z"/>
		<polygon fill="#939598" stroke="#231F20" stroke-miterlimit="10" points="164.15,329.85 158.3,329.77 158.58,318.97 
			164.28,319.01 		"/>
		<path fill="#939598" stroke="#231F20" stroke-miterlimit="10" d="M388.78,389.1c-1.92,0.1-3.62,0.12-5.61-0.27l0.1-10.7
			c1.75-0.48,3.42-0.54,5.22-0.19L388.78,389.1z"/>
		<path fill="#939598" stroke="#231F20" stroke-miterlimit="10" d="M164.04,314.68c-1.48,0.03-1.92,0.86-2.44,1.86
			c-0.26,0.5-1.92,0.53-2.14,0.03c-0.35-0.83-0.21-1.98-0.26-3.08c1.88-0.11,3.77,0.39,5.54-0.27c1.41-0.53,1.75-2.19,1.68-3.87
			l11.25,0.15c0.33,0.03,0.2,1.19-0.25,1.41l-7.51,3.64L164.04,314.68z"/>
		<path fill="#939598" stroke="#231F20" stroke-miterlimit="10" d="M388.49,353.73c-1.81,0.27-3.53,0.23-5.43,0.03l-0.26-10.61
			l5.52-0.67L388.49,353.73z"/>
		<path fill="#939598" stroke="#231F20" stroke-miterlimit="10" d="M164.28,311.15c-1.93,0.6-3.72,0.32-5.6,0.18l0.15-9.99l5.5,0.11
			L164.28,311.15z"/>
		<path fill="#939598" stroke="#231F20" stroke-miterlimit="10" d="M384.61,405.75c-0.72,0.02-1.52-0.42-1.51-1.07l0.18-8.53
			l5.43-0.15l0.02,9.62L384.61,405.75z"/>
		<path fill="#939598" stroke="#231F20" stroke-miterlimit="10" d="M334.55,378.08l3.33-38.4c0.09-1.07,0.32-2.04,1.23-2.49
			l-3.57,44.44C334.61,380.81,334.42,379.58,334.55,378.08z"/>
		<path fill="#939598" stroke="#231F20" stroke-miterlimit="10" d="M320.7,368.01c-1.01-0.17-1.8-0.5-2.7-1.09l1.82-18.3
			c0.09-0.87,2.07-1.14,2.63-0.45L320.7,368.01z"/>
		
			<rect x="386.1" y="355.1" transform="matrix(1 -8.964039e-03 8.964039e-03 1 -3.2639 3.4869)" fill="#939598" stroke="#231F20" stroke-miterlimit="10" width="2.5" height="21.49"/>
		<path fill="#939598" stroke="#231F20" stroke-miterlimit="10" d="M226.32,358.51c-0.67,0.52-1.82,0.61-2.83,0.31l2.03-19.4
			c0.6-0.6,2.52,0.14,2.44,1L226.32,358.51z"/>
		<path fill="#939598" stroke="#231F20" stroke-miterlimit="10" d="M208.31,366.46c-0.11,1.16-0.36,2.13-1.44,2.52l4.54-44.25
			c0.99,0.65,0.73,1.83,0.62,2.91L208.31,366.46z"/>
		<path fill="#939598" stroke="#231F20" stroke-miterlimit="10" d="M162.83,381.27l-5.36,0.17l0.18-9.34
			c1.92,0.01,3.53-0.22,5.31,0.23L162.83,381.27z"/>
		
			<rect x="116.92" y="330.53" transform="matrix(0.9999 0.015 -0.015 0.9999 5.1165 -1.7283)" fill="#939598" stroke="#231F20" stroke-miterlimit="10" width="1.92" height="20.05"/>
		<path fill="#939598" stroke="#231F20" stroke-miterlimit="10" d="M435.28,374.37c-0.72,0.24-1.46,0.17-2.33-0.13l-0.09-15.3
			c0.82-0.21,1.54-0.18,2.32,0.07L435.28,374.37z"/>
		<polygon fill="#939598" stroke="#231F20" stroke-miterlimit="10" points="388.37,332.59 382.67,332.59 382.74,326.78 
			388.33,326.54 		"/>
		<path fill="#939598" stroke="#231F20" stroke-miterlimit="10" d="M116.14,324.03c0.34-0.2,1.49,0.2,1.73-0.63
			c-0.49-0.37-1.06-0.36-1.76-0.4c-0.05-1.42-0.03-2.72,0.45-4.12c0.31-0.91,1.99-1.23,2.61-0.55l-0.22,10.44
			c-0.29,0.7-2.42,0.61-2.64-0.26C115.98,327.24,115.95,325.41,116.14,324.03z"/>
		<path fill="#939598" stroke="#231F20" stroke-miterlimit="10" d="M115.45,357.37c0.61-0.15,1.04-0.1,1.56-0.56
			c-0.5-0.44-0.9-0.31-1.49-0.36c0.03-1.31-0.19-2.66,0.44-3.81c0.42-0.77,1.76-0.75,2.62-0.49l-0.12,10.74
			c-0.97,0.26-2.01,0.21-2.9-0.29L115.45,357.37z"/>
		<path fill="#939598" stroke="#231F20" stroke-miterlimit="10" d="M116.98,310.98c-0.83-1.77-0.56-3.69-0.49-5.51
			c0.84,0.1,1.48,0.35,2.07-0.19c-0.48-0.67-1.2-0.62-1.99-0.79c-0.23-1.64,0.02-3.15,0.82-4.53c0.76-0.12,1.4-0.12,2.02,0.02
			l-0.2,11.21C118.81,311.42,117.26,311.57,116.98,310.98z"/>
		<path fill="#939598" stroke="#231F20" stroke-miterlimit="10" d="M426.46,403.53c-1.32,0.43-2.66,0.35-4.21,0.24l-0.12-5.44
			c1.23-0.86,2.65-1.38,4.2-1.61L426.46,403.53z"/>
		<path fill="#939598" stroke="#231F20" stroke-miterlimit="10" d="M115.45,381.26c-0.46-1.46-0.15-3.03-0.21-4.61l1.66-0.73
			c-0.56-0.36-1.02-0.29-1.65-0.43l0.08-4.67c0.87-0.36,1.72-0.34,2.72-0.07l-0.3,5.08l-0.02,5.54
			C117.23,381.51,116.18,381.6,115.45,381.26z"/>
		<polygon fill="#939598" stroke="#231F20" stroke-miterlimit="10" points="425.91,334.26 422.07,333.92 421.98,328.08 
			425.91,328.15 		"/>
		
			<rect x="383.89" y="355.26" transform="matrix(1 -7.040817e-03 7.040817e-03 1 -2.5665 2.7156)" fill="#939598" stroke="#231F20" stroke-miterlimit="10" width="1.03" height="21.21"/>
		<path fill="#939598" stroke="#231F20" stroke-miterlimit="10" d="M439.94,355.01l-3.83-0.02c-0.04-1.24-0.31-2.6,0.29-3.79
			c0.5-0.99,2.99-1.03,3.58-0.06C440.71,352.35,440.22,353.78,439.94,355.01z"/>
		<path fill="#939598" stroke="#231F20" stroke-miterlimit="10" d="M163.15,352.06l0.2-18.85c0.01-0.76-0.61-1.84,0.85-2.05
			l-0.38,20.73C163.63,352.11,163.34,352.1,163.15,352.06z"/>
		<path fill="#939598" stroke="#231F20" stroke-miterlimit="10" d="M431.06,399.97c-1.09,0.42-2.07,0.33-3.13,0.13
			c0.04-1.25-0.23-2.71,0.15-3.99c0.26-0.66,2.3-0.76,2.76-0.21C431.33,396.96,431.06,398.42,431.06,399.97z"/>
		<path fill="#939598" stroke="#231F20" stroke-miterlimit="10" d="M430.71,329.87c-1.05,0.29-1.96,0.17-3.24,0.16l0.03-4.23
			c0.72-0.13,2.29-0.38,2.8,0.24C431.01,327,430.72,328.45,430.71,329.87z"/>
		<path fill="#939598" stroke="#231F20" stroke-miterlimit="10" d="M322.35,369.5c-1.22-1.9-0.26-3.77-0.11-5.58l0.41-5l0.44-4.95
			l0.56-4.67c0.09-0.78-0.58-2.11,0.9-2.46l-0.76,6.38l-0.41,4.29l-0.43,4.98L322.35,369.5z"/>
		<path fill="#939598" stroke="#231F20" stroke-miterlimit="10" d="M430.99,405.67c-0.95,0.44-1.91,0.38-2.97,0.21l0.01-4.18
			c0.95-0.31,1.84-0.27,2.92-0.17L430.99,405.67z"/>
		<path fill="#939598" stroke="#231F20" stroke-miterlimit="10" d="M222.59,356.2l-0.54,3.71c-0.19-1.29-0.13-2.81,0-4.23l0.41-4.31
			l0.45-3.89l0.41-4.63c0.35-3.92,0.46-6.22,1.16-4.34c-0.64,1.75-0.41,3.44-0.58,5.08l-0.46,4.27l-0.43,4.26L222.59,356.2z"/>
		
			<rect x="427.5" y="331.57" transform="matrix(0.9999 0.0108 -0.0108 0.9999 3.6382 -4.6256)" fill="#939598" stroke="#231F20" stroke-miterlimit="10" width="3.09" height="4.29"/>
		<path fill="#939598" stroke="#231F20" stroke-miterlimit="10" d="M425.86,326.26c-1.88,0.22-3.33-0.39-5.26-0.77
			c-0.58-0.12-1.65,0.4-1.91-0.87l7.17,0.09L425.86,326.26z"/>
		<path fill="#939598" stroke="#231F20" stroke-miterlimit="10" d="M443.22,380.73c-0.16,0.59-1.43,0.53-1.5,0.2l0.16-4.44
			c0.02-0.47,1.51-0.54,1.65-0.09C443.91,377.72,443.62,379.22,443.22,380.73z"/>
		<path fill="#939598" stroke="#231F20" stroke-miterlimit="10" d="M443.8,354.95c-0.45,0.21-1.48,0.26-1.84-0.07
			c-0.36-1.23-0.57-3.03,0.04-4.28c0.29-0.6,1.6,0.28,1.63,1L443.8,354.95z"/>
		<path fill="#939598" stroke="#231F20" stroke-miterlimit="10" d="M434.61,332.25c0.06,1.34-0.67,2.26-2.27,2.26l0.08-4.08
			c0.86-0.09,1.45-0.03,1.93,0.29C434.67,330.94,434.58,331.72,434.61,332.25z"/>
		<path fill="#939598" stroke="#231F20" stroke-miterlimit="10" d="M440.31,377.87l-3.97,0c-0.52,0-0.87-0.37-0.92-0.74
			c-0.06-0.48,0.26-0.9,0.93-0.9l3.47-0.01C440.19,376.23,440.68,376.93,440.31,377.87z"/>
		<path fill="#939598" stroke="#231F20" stroke-miterlimit="10" d="M118.33,368.53c-0.62-0.03-1.26-0.34-1.6-0.6
			c-0.79-0.61-0.65-3.1-0.19-3.28c0.43-0.17,1.02-0.15,1.77,0L118.33,368.53z"/>
		<path fill="#939598" stroke="#231F20" stroke-miterlimit="10" d="M434.99,402.58c-0.14,0.86-0.39,1.32-1.09,1.48
			c-0.82,0.19-1.59-0.06-1.46-1.22c0.05-0.45-0.18-1.28,0.18-1.68c0.29-0.33,1.16-0.27,1.62-0.2
			C434.83,401.04,435.12,401.79,434.99,402.58z"/>
		<path fill="#939598" stroke="#231F20" stroke-miterlimit="10" d="M425.67,407.12c-2.25-0.23-4.14,0.42-6.46-0.36
			c2.3-0.81,4.68-0.99,7.02-1.02c0.11,0.47,0.26,0.64,0.24,0.76C426.45,406.69,426.19,407.03,425.67,407.12z"/>
		<circle fill="#939598" stroke="#231F20" stroke-miterlimit="10" cx="112.75" cy="357.91" r="1.48"/>
		<path fill="#939598" stroke="#231F20" stroke-miterlimit="10" d="M434.94,399.73c-0.85,0.31-1.54,0.29-2.37,0.13
			c-0.15-1.03-0.22-2.04,0.29-3.1C434.29,396.89,435.03,398.32,434.94,399.73z"/>
		<path fill="#939598" stroke="#231F20" stroke-miterlimit="10" d="M114.85,303.82c-0.49,0.4-2.47,0.13-2.47-0.74
			c0-1.08,1.79-2.02,2.8-1.83C115.3,302.07,115.11,302.71,114.85,303.82z"/>
		<path fill="#939598" stroke="#231F20" stroke-miterlimit="10" d="M439.85,379.44c0.57,0.25,0.24,0.9,0.04,1.09
			c-0.72,0.67-1.82,0.68-2.83,0.21c-0.27-0.13-0.71-0.84-0.32-1.26C437.37,379.02,438.95,379.05,439.85,379.44z"/>
		<path fill="#939598" stroke="#231F20" stroke-miterlimit="10" d="M113.51,375.32c0.45,0.41,0.45,1.56-0.01,1.93
			c-0.89,0.73-2.88-0.03-2.64-1.34C111,375.13,112.58,374.93,113.51,375.32z"/>
		<path fill="#939598" stroke="#231F20" stroke-miterlimit="10" d="M119.27,314.89c-0.07,0.81,0.18,1.69-0.77,1.77
			c-0.5,0.05-1.51,0.2-1.51-0.8c0-0.58,0.31-1.07,1.08-1.57l0.55-0.36C118.86,313.77,119.34,314.02,119.27,314.89z"/>
		<path fill="#939598" stroke="#231F20" stroke-miterlimit="10" d="M113.38,374.43c-0.83-0.03-1.66-0.5-2.3-1
			c-0.28-0.35,0.33-1.03,0.73-1.17c0.58-0.19,1.45-0.13,1.76,0.22C113.97,372.95,113.89,374.46,113.38,374.43z"/>
		<path fill="#939598" stroke="#231F20" stroke-miterlimit="10" d="M114.47,325.41c0.49,0.64,0.34,1.44,0.02,1.85
			c-0.91,0.08-2.78-0.53-2.56-1.64C112.06,324.99,114.08,324.91,114.47,325.41z"/>
		<path fill="#939598" stroke="#231F20" stroke-miterlimit="10" d="M434.23,329.7c-0.75,0.1-1.55-0.02-1.75-0.34
			s-0.27-1.28-0.01-1.87c0.25-0.56,1.35-0.07,1.65,0.34C434.49,328.34,434.77,329.63,434.23,329.7z"/>
		<path fill="#939598" stroke="#231F20" stroke-miterlimit="10" d="M114.5,321.63c-0.23,0.5-2.49,0.14-2.53-0.6
			c-0.04-0.99,2.39-1.46,2.68-0.97C114.83,320.36,114.7,321.19,114.5,321.63z"/>
		<path fill="#939598" stroke="#231F20" stroke-miterlimit="10" d="M115.05,308.87c-0.27,0.58-2.54-0.11-2.5-0.98
			c0.03-0.67,2.19-0.93,2.51-0.41C115.22,307.76,115.25,308.44,115.05,308.87z"/>
		<path fill="#939598" stroke="#231F20" stroke-miterlimit="10" d="M114.04,306.64c-0.79-0.08-1.47-0.44-2.05-1.12
			c0.67-0.71,1.79-0.89,2.74-0.65c0.42,0.1,0.42,0.74,0.35,0.99C114.99,306.15,114.8,306.72,114.04,306.64z"/>
		<path fill="#939598" stroke="#231F20" stroke-miterlimit="10" d="M113.26,324.25l-1.11-0.33c-0.3-0.09-0.46-0.62-0.17-0.89
			c0.34-0.32,2.08-0.67,2.33-0.48c0.37,0.28,0.44,0.85,0.28,1.37C114.47,324.29,114.02,324.47,113.26,324.25z"/>
		<path fill="#939598" stroke="#231F20" stroke-miterlimit="10" d="M114.06,355.57l-2.67-0.21c0.26-1.28,1.52-1.87,2.64-1.41
			C114.13,354.19,114.13,354.71,114.06,355.57z"/>
		<path fill="#939598" stroke="#231F20" stroke-miterlimit="10" d="M113.86,360.1c0.15,0.32,0.14,0.94-0.06,1.16
			c-0.82,0.23-2.04,0.02-2.35-1.07L113.86,360.1z"/>
		<path fill="#939598" stroke="#231F20" stroke-miterlimit="10" d="M113.59,378.4c0.12,0.37,0.05,0.88-0.08,1.07
			c-0.76,0.17-1.59-0.02-2.27-0.81C112.07,378.34,112.73,378.42,113.59,378.4z"/>
		<path fill="#939598" stroke="#231F20" stroke-miterlimit="10" d="M434.29,357.5l0.03-2.18c0.54,0.23,0.65,0.56,0.68,0.92
			C435.04,356.81,434.93,357.22,434.29,357.5z"/>
	</g>
	<circle fill="none" stroke="#231F20" stroke-miterlimit="10" cx="458.29" cy="305.85" r="9.74"/>
	<path fill="#939598" stroke="#231F20" stroke-miterlimit="10" d="M573.84,328.59c-1.11,3.09-3.39,5.01-6.55,4.25l-0.09,6.27
		l5.89-0.09c1.01,1.06,1.36,2.4,1.9,3.73l4.22-0.04l-0.05-13.86L573.84,328.59z"/>
	<rect x="575.17" y="344.44" fill="#939598" stroke="#231F20" stroke-miterlimit="10" width="4.03" height="40.71"/>
</g>
</svg>
